<?xml version="1.0" encoding="UTF-8"?>
<svg xmlns="http://www.w3.org/2000/svg" xmlns:xlink="http://www.w3.org/1999/xlink" version="1.1" viewBox="0 0 1024 1024">
  <!-- Generator: Adobe Illustrator 29.3.1, SVG Export Plug-In . SVG Version: 2.1.0 Build 151)  -->
  <defs>
    <style>
      .st0 {
        fill: none;
      }

      .st1 {
        fill: #f4ebe6;
      }

      .st2 {
        fill: #e6d3c7;
      }

      .st3 {
        fill: #ad97bb;
      }

      .st3, .st4, .st5 {
        fill-rule: evenodd;
      }

      .st6 {
        fill: #ae8c79;
      }

      .st7 {
        opacity: .7;
      }

      .st7, .st8 {
        mix-blend-mode: multiply;
      }

      .st9 {
        isolation: isolate;
      }

      .st10 {
        fill: #fff;
      }

      .st4 {
        fill: #b6875f;
      }

      .st8 {
        fill: #ebd1e5;
        opacity: .8;
      }

      .st5 {
        fill: #ad5f8f;
      }

      .st11 {
        clip-path: url(#clippath);
      }
    </style>
    <clipPath id="clippath">
      <path class="st0" d="M442.8,123.5c4.9,85.1,16.2,110-25,188-46.1,87.3-116.1,84.4-186.4,177.3-105.6,139.7-27,331.5,100,309.8,29.1,26,127,45.5,167.5,18.4,34.6,26.9,144.6,14.1,189.3-23.8,50.3,30.1,167.6-91.9,113.5-235.2-81.1-214.8-273.2-154.7-262.4-432.5-34.5.9-63.8-7.1-96.6-2Z"/>
    </clipPath>
  </defs>
  <g class="st9">
    <g id="Capa_1">
      <g>
        <g>
          <path class="st4" d="M699.1,828.7c-.2-1.6-.3-3.2-.6-4.9-.3-1.7-.8-3.4-1.4-5.1-1.2-3.4-3.1-6.6-5.4-9.1-1.3-1.4-2.8-2.8-4.3-4,10.2-9.1,18.9-20,25.2-33.1-97.6,3.8-234.3,5.6-345.9,1.3-.8-1.5-1.9-2.7-2.5-2.5-1.4.4-6.7-1.1-8.1-.5-1.7.6-3.2,1.4-4.7,2.3-19.2-.9-37.6-1.9-54.7-3.2,7.7,14.9,18.4,27.6,31.4,38.3,0,.5,0,1,0,1.5,0,2-.1,3.9-.4,5.6l-.3,1.1c0,.4-.2.8-.3,1-.2.5-.5.9-.9,1.3-.7.8-1.5,1.3-1.9,1.7-.4.3-.6.9-1.2,1.7-.6.7-1.3,1.5-1.8,2.4-.5.9-.7,1.9-.4,2.7.2.9,1,1.5,1.7,1.7,1.2.2,4,.5,6.7-.5,2.8-1,5.5-2.8,7.5-5.9,1.2-2.2,1.7-4.2,2-6.2,2.2,1.5,4.5,3,6.8,4.4.2,1.5.5,3,1,4.4,1.6,4.7,3.9,8.6,5.1,12.5.5,1.7.8,3.6.4,5.7-.3,2.1-1.3,4.2-2.7,6-2.8,3.6-7.4,5.3-10.7,5.9-1.6.4-2.8,1-3.6,1.7-.8.8-1.3,1.8-1.4,2.8-.3,2,1.1,4.1,2.5,4.1,1.1,0,3.5.2,6.6-.3,3.1-.4,7.1-1.5,10.7-3.8,3.7-2.3,6.8-6,8.4-10.2.4-.9.7-1.9.9-2.9,1.3-.2,2.8-.5,4.3-1.3,1.3-.7,2.6-1.6,3.6-3,.6-.6,1-1.4,1.4-2.2.4-.8.6-1.6.8-2.4.3-1,.4-2,.6-2.9,2.2.9,4.5,1.8,6.8,2.7-.1.3-.3.5-.4.8-.4.9-.6,1.9-.4,2.7.2.8.8,1.5,1.4,1.5,1,.1,3.1.3,5.4-.5.9-.3,1.7-.7,2.7-1.4,2.1.7,4.1,1.3,6.2,2-1.2,1.2-2.5,2.5-3.6,3.9-1.5,1.8-2.9,3.9-4,6.4-1,2.5-1.6,5.5-1.1,8.8.5,2.7,1.8,6,3.9,8.9,2.1,2.9,4.8,5.4,7.4,7.7,5.2,4.3,10.3,8.3,14.1,10.7,7.7,4.8,10.3-3,8.5-4.2-1.5-1-6-5.1-11.6-9.9-2.8-2.5-5.8-5-7.9-7.3-2.2-2.4-3.2-4.4-3.5-6-.5-2.1,1-4.4,3.7-6.8,1.3-1.2,2.9-2.3,4.6-3.6,1.7-1.3,3.6-2.6,5.2-4.1,3.9.9,7.8,1.8,11.7,2.6-1.4,1.2-3,2.6-4.5,4.4-2.7,3.2-4,7.8-3,11.1.3.8.7,1.5,1.1,2,.5.5,1.1.8,1.6,1,1.1.4,2.2.2,3.3-.2,2-.8,3.8-1.7,3.6-1.9-.2-.4-.3-2.2,1.3-4.4,1.4-2.1,4.5-4.2,7.2-6.7,1-.9,2.2-1.7,3.5-2.7,6.4,1.1,13,1.9,19.5,2.7,0,0,0,0,0,.1.6,2.8.6,5.6-.5,8.6-.2.6-.6,1.3-1,2-.5.7-1,1.4-1.6,2-1.2,1.3-2.9,2.4-4.7,3.3-1.9.8-3.8,1.4-5.7,1.7-1.9.3-3.7.4-5.1.4-.7,0-1.4.2-1.9.4-.6.2-1,.4-1.5.8-.8.7-1.4,1.6-1.7,2.6-.6,1.9.2,4.1,1.3,4.3,1.7.3,7.9,2,15.1.5,3.6-.7,7.3-2.3,10.4-4.7,3.1-2.4,5.3-5.4,6.6-8.4,0-.2.1-.3.2-.5.4,1.7.8,3.3,1.2,5.1.5,1.7,1.1,3.5,1.6,5.2.2.7.4,1.5.5,2.3.1.8.3,1.7.2,2.4,0,.8,0,1.6-.3,2.3-.1.3-.1.7-.4,1.1-.2.3-.4.7-.6,1-.1.4-.5.6-.7.9-.3.3-.5.6-.8.9-.7.5-1.1,1.1-1.8,1.5-.6.4-1.2.9-1.9,1.1-.3.2-.6.3-.9.5-.3.1-.6.2-.8.3-1,.6-1.7,1.1-2.2,2-.5.9-.8,1.9-.8,3,0,2,1.3,3.9,2.4,3.8.9,0,2.9-.2,5.4-.8,2.4-.7,5.6-1.8,8.2-4.1,2.6-2.2,5.1-5.3,5.8-9.3.3-1,.3-1.9.3-2.8,0-.9.1-1.9,0-2.7-.2-1.6-.4-3.3-.8-4.5-.2-.8-.4-1.8-.6-2.6-.2-.8-.3-1.6-.4-2.4-.1-1.5,0-3-.1-4.5.2-3,.5-5.9.7-8.9,0-.7,0-1.4,0-2.1,4.2.2,8.4.4,12.6.5,3.6,5.2,6.8,8.9,7.8,14,.6,2.9,0,7.4-1.8,11.5-1.8,4.2-4.5,8.2-5.8,11.2-2.9,6.2,5.7,8.7,6.6,7.2.6-1.3,3.9-4.8,7.2-10.1.8-1.4,1.6-2.8,2.3-4.3.6-1.4,1.2-3,1.7-4.5.2.4.5.8.8,1.1.7.6,1.7.7,2.3.4,1.1-.5,3.5-1.9,5.2-4.3,1.7-2.4,2.9-5.5,2.7-9.1-.5-3.7-2-6.5-3.5-9-.7-1.1-1.4-2.1-2-3.1-.2-.3-.4-.7-.6-1,2.5,0,5-.2,7.5-.3,1.9,4,4.8,7.3,8.1,9.9,4,2.9,8.1,4.8,11.4,7.3,1.4,1.1,2.7,2.5,3.6,4.4.9,1.9,1.4,4.2,1.2,6.5-.2,4.5-3.1,8.6-5.3,11-1.1,1.3-1.7,2.4-1.9,3.5-.2,1.1,0,2.2.4,3.1.9,1.8,3.3,2.7,4.4,1.9.9-.7,3-1.9,5.3-4,2.3-2.1,4.9-5.3,6.5-9.3,1.6-4,2.1-8.8,1-13.2-.2-1-.6-2-.9-2.9,1-.9,2-2.1,2.8-3.6.6-1.3,1.2-2.8,1.2-4.5.1-.9,0-1.7-.1-2.6-.1-.9-.4-1.6-.7-2.4-1.1-3.1-3-5.6-4.1-7.4,0,0,0-.2-.1-.2,3-.4,6.1-.8,9.1-1.2v.3s0,0,0,0c0,.1,0,.3,0,.4.1.2.6.8.7,1.6.2.8.2,1.9.4,2.9.2,1,.6,1.9,1.3,2.4.6.5,1.5.7,2,.4.9-.5,2.7-1.6,4.1-3.5.7-1,1.3-1.9,1.8-3.8,0-.2.1-.5.2-.8v-.3c0,0,0,0,0,0h0s0,0,0,0v-.4s0,0,0,0v-.3c0-.2,0-.4,0-.6,2.1-.3,4.2-.7,6.2-1.1,0,.3-.2.7-.2,1-.5,2.2-.9,4.5-1,6.9-.2,2.3,0,4.9.4,7.5.6,2.6,1.9,5.4,4.1,7.8,2,1.9,4.9,3.9,8.3,5,3.4,1.1,7,1.7,10.5,2,6.7.5,13.2.9,17.7.6,9-.6,6.7-8.4,4.6-8.3-1.8,0-7.9-.7-15.2-1.5-3.7-.4-7.6-.7-10.7-1.4-3.1-.7-5.2-1.8-6.3-2.8-1.6-1.4-1.7-4.2-.8-7.7.4-1.7,1-3.6,1.7-5.6.7-2.1,1.4-4.3,2-6.4,3.6-.8,7.1-1.7,10.6-2.6-.3,1.3-.6,2.8-.7,4.3-.3,4.2,1.2,8.6,3.9,10.8.7.5,1.4.8,2,1,.7.1,1.3,0,1.9-.1,1.1-.4,1.9-1.2,2.6-2,1.2-1.8,2.1-3.6,1.9-3.7-.4-.2-1.5-1.6-1.5-4.3,0-2.4,1.2-5.8,2-9.4,7.6-2.3,15.3-5,22.9-8.1.3.6.5,1.2.7,1.9.2.6.2,1.4.3,2.2,0,.8,0,1.7-.1,2.6-.2,1.8-1,3.7-1.9,5.4-1.1,1.7-2.4,3.3-3.7,4.7-1.4,1.3-2.8,2.4-3.9,3.3-.6.4-1,.9-1.4,1.4-.4.5-.6,1-.7,1.5-.3,1-.3,2.1,0,3.1.6,1.9,2.5,3.2,3.5,2.7,1.6-.8,7.6-2.9,12.6-8.3,2.5-2.6,4.7-6.1,5.8-9.8,1.1-3.7,1.2-7.5.6-10.7,0-.2,0-.4-.1-.5,1.3,1.1,2.6,2.3,3.9,3.4,1.4,1.1,2.9,2.2,4.3,3.3.6.5,1.2,1,1.7,1.6.5.6,1.2,1.2,1.6,1.9.4.7.9,1.4,1.1,2.1,0,.4.3.7.3,1.1,0,.4,0,.8.1,1.2.1.4,0,.8,0,1.2,0,.4,0,.8-.1,1.2-.3.8-.3,1.6-.7,2.2-.3.7-.5,1.4-.9,2-.2.3-.3.6-.4.9-.2.3-.3.5-.5.8-.5,1.1-.8,1.9-.7,2.9.1,1,.5,2,1.1,2.9,1.1,1.7,3.3,2.5,4.2,1.7.8-.5,2.2-1.8,4-3.7,1.6-2,3.5-4.7,4.3-8.1.8-3.3,1.1-7.3-.6-10.9-.3-1-.9-1.7-1.3-2.5-.5-.7-1-1.6-1.5-2.2-1.1-1.2-2.2-2.4-3.3-3.2-.7-.6-1.4-1.2-1.9-1.8-.6-.5-1.1-1.1-1.7-1.7-1-1.2-1.8-2.4-2.7-3.6-.4-.6-.8-1.3-1.2-1.9,5.6-3.1,11-6.5,16.1-10.3,1.5.8,3,1.8,4.3,3,2.2,2,4.2,6,5.1,10.4.9,4.4,1.1,9.3,1.7,12.5,1.2,6.7,9.7,3.8,9.5,2.1-.2-1.4.4-6.2,0-12.4ZM362.6,832.1c0,.9-.1,1.8-.2,2.5-.1.3-.2.6-.2.9-.7-2.4-1.4-4.7-2-6.9.8.4,1.7.8,2.5,1.2,0,.7,0,1.5,0,2.2ZM544.5,857.7c.3.5.5,1,.8,1.5.3.5.6.9.9,1.4.6.9,1.2,1.7,1.8,2.6.5.8.9,1.5,1.2,2.2,0,.3.2.6.3.9-3.7-3-7.3-5.5-9.7-7.9-.8-.8-1.5-1.6-2-2.5,1.8-.1,3.6-.3,5.4-.5.3.8.7,1.5,1.2,2.3Z"/>
          <path class="st4" d="M564.2,853.4h0c0,0,0-.1,0,0,0,0,0,.1,0,0Z"/>
        </g>
        <path class="st2" d="M442.8,123.5c4.9,85.1,16.2,110-25,188-46.1,87.3-116.1,84.4-186.4,177.3-105.6,139.7-27,331.5,100,309.8,29.1,26,127,45.5,167.5,18.4,34.6,26.9,144.6,14.1,189.3-23.8,50.3,30.1,167.6-91.9,113.5-235.2-81.1-214.8-273.2-154.7-262.4-432.5-34.5.9-63.8-7.1-96.6-2Z"/>
        <g>
          <path class="st1" d="M361.8,513.4c-43.2,82-62.1,195.1,57.3,190.5,74.6-2.9,56.2-233,55-351.6-27.5,60.4-81.6,102.7-112.3,161.2Z"/>
          <path class="st1" d="M214,574.9c-19.2,66.5,30.6,78.3,42.1,25.6,15.5-71.5,63.1-136.4,117-201.6-65.7,50.4-134.3,90.3-159.1,176Z"/>
          <path class="st1" d="M554.6,684.1c69.2,57.2,130.6-7.1,134.6-66.9,8.2-123.3-104.7-187.8-154.3-278,3,112.4-19.5,312.6,19.6,344.9Z"/>
          <path class="st1" d="M676.4,427.1c42.1,47.5,75,106.9,88,169.6,9.9,47.6,34.8,41.2,20.6-11.2-16.7-61.3-60.4-119.1-108.6-158.4Z"/>
        </g>
        <g>
          <path class="st10" d="M605.4,528.5c-19.8,3.1-28.3,28.3-30.5,49.2-2.3,20.9,7.2,44,24,52.8,16.8,8.8,39.4-.5,45-20.4,8.4-13,11-30.8,6.9-46.6-4.2-15.8-25.5-38.1-45.4-35Z"/>
          <path class="st10" d="M606.1,508.1c3.1-1.8,5.1-5,6.4-8.3,2.8-7.2,2.3-15.6-1.3-22.4s-10.2-12-17.7-13.8c-5-1.2-10.9-.6-14,3.4-1.5,1.9-2.1,4.3-2.6,6.7-1.2,6-1.6,12.2-1.3,18.3.3,6.1,1.9,12.9,7.1,16.2,3.7,2.3,8.3,2.3,12.6,2.1,3.7-.1,7.6-.3,10.8-2.1Z"/>
        </g>
        <g class="st11">
          <g>
            <path class="st5" d="M557.7,834.4c2.2-3.1,3.9-6.7,5.9-10.2,2-3.6,4-7.3,6.1-11.1,2-3.8,3.7-7.9,5.7-12,1.8-4.1,4-8.3,5.5-12.7,1.7-4.4,3.4-8.9,5.1-13.4,1.7-4.5,2.9-9.3,4.4-14,.7-2.4,1.4-4.7,2.1-7.1.6-2.4,1.1-4.9,1.7-7.3,1-4.9,2.4-9.7,3.2-14.7,3.7-19.7,5.2-39.8,5.7-58.6,0-4.7,0-9.3.1-13.9,0-4.5-.2-9-.3-13.3-.1-8.7-.8-16.8-1.1-24.4-.6-9-1.2-17.7-2-26.2-.4-4.3-.7-8.5-1.1-12.7-.4-4.2-.9-8.3-1.4-12.5-1.7-16.5-4.5-32.4-7.5-48.2-6.4-31.6-15.5-62.4-26.2-96.7-10.8-34.7-24.8-77.6-34.5-121.7-2.7-11-4.5-22.1-6.5-33-2.2-10.9-3.4-21.9-4.9-32.5-1.6-10.6-2.3-21.1-3.2-31.1-.4-5-.8-9.9-1.2-14.7-.3-4.8-.4-9.5-.5-14-.1-3.5-.3-8.3-.5-13.9-.2-5.5-.7-11.8-.5-18,0-12.4.1-24.9.2-31.9.1-7.6-.7-5-1.7,5.8-.9,10.8-2.7,30-1.7,55.4,0,14.5,1.3,31.3,2.4,50,.9,9.3,2,19.2,3.2,29.5.5,5.2,1.4,10.4,2.3,15.7.9,5.3,1.8,10.8,2.7,16.3.8,5.6,2.2,11,3.3,16.5,1.2,5.5,2.4,11,3.6,16.5,2.7,10.9,5.6,21.9,8.6,33,6.3,22.2,13.5,45,21.2,69.7,10,32.4,20.4,67,27.2,101.6,1.7,8.6,3,17.3,4.5,25.9.8,4.3,1.1,8.6,1.6,12.8.5,4.3,1,8.5,1.4,12.7,1.7,16.9,2.9,33.4,3.9,48.9,1.5,23.7,2.5,51.6,0,80.3-2.4,28.7-8.9,58.1-19,83.9-9.9,25.9-23.2,48-34.5,64.7-11.3,16.7-21.1,27.9-25,32.6-4.7,5.6-3.3,4.9,4.3-3.1,1.9-2,4.1-4.5,6.8-7.3,1.3-1.5,2.7-3,4.3-4.7,1.5-1.7,2.9-3.7,4.5-5.7,3.1-4.1,6.7-8.6,10.6-13.7,3.6-5.2,7.4-11.2,11.6-17.5Z"/>
            <path class="st5" d="M648.8,806.7c2.5-2.9,5.1-6,7.7-9.2,2.4-3.3,4.9-6.9,7.4-10.4,1.3-1.8,2.5-3.6,3.8-5.5,1.1-1.9,2.3-3.9,3.4-5.9,1.1-2,2.3-4,3.5-6,1.1-2,2.4-4,3.4-6.2,8.7-17,15.1-36.5,19.2-56.3,4-19.9,5.7-40.3,5.3-59.3-.2-19-1.7-36.8-3.7-52.1-1.1-9-2.5-17.9-4.4-26.5-1.1-4.2-2-8.5-3.2-12.6-1.3-4.1-2.5-8.2-3.8-12.2-5.5-16-12.4-30.9-20-45.2-15.3-28.8-33.5-55.6-53-86-9.8-15.4-20.8-32.8-31.3-51.7-10.5-18.9-20.5-39.3-28.8-60.4-8.3-21.1-15-42.9-19.5-64.1-4.6-21.2-7.2-41.6-8.6-59.8-.2-3.5-.5-8.4-.8-14-.2-2.8-.3-5.7-.5-8.8,0-3.1-.1-6.2-.2-9.3-.4-12.6.1-25.1.3-32.2.3-7.6-.6-5.1-1.9,5.9-.6,5.5-1.5,13-1.7,22.5-.1,4.7-.4,9.9-.3,15.5.2,5.6.4,11.6.6,18.1.5,7.3,1.1,15.2,1.8,23.7.5,4.2,1,8.5,1.5,13,.3,2.2.5,4.5.8,6.8.4,2.3.8,4.6,1.1,6.9.8,4.7,1.4,9.5,2.5,14.4,1,4.9,2.1,9.9,3.2,15,1.3,5.1,2.7,10.3,4.1,15.6,1.4,5.3,3.2,10.6,4.9,16,7.2,21.6,16.2,42.3,27,63.1,10.7,20.8,23.3,41.5,37.3,63.6,18.3,29,38.9,59.2,55.3,90.7,8.2,15.8,15.2,31.9,20.3,48,5.2,16.2,8,32.2,9.8,47.8,2.9,23.7,5.2,51.8,2.8,80.8-2.4,28.9-9.7,58.4-22.2,83.4-12.5,24.9-29,45.1-43.5,59.3-3.6,3.6-7.3,6.6-10.5,9.6-1.6,1.5-3.2,2.8-4.7,4.2-.7.7-1.5,1.3-2.2,1.9-.7.6-1.5,1.1-2.2,1.7-5.6,4.2-9.8,7.4-12.3,9.3-5.9,4.4-4.4,4,4.9-2,2.3-1.5,5.1-3.4,8.4-5.6.8-.6,1.7-1.1,2.6-1.7.8-.7,1.7-1.4,2.6-2.1,1.8-1.4,3.7-3,5.7-4.6,4-3.3,8.7-6.8,13.1-11.5,4.5-4.6,9.9-9.3,14.6-15.4Z"/>
            <path class="st5" d="M742.5,783.6c2.7-3,5.6-5.9,8.4-9.2,2.7-3.4,5.5-6.8,8.3-10.4,3-3.5,5.5-7.4,8.2-11.4,2.6-4,5.6-7.9,7.9-12.3,10.3-17,18.4-36.8,23.2-57.5,4.8-20.7,6-42.1,4.4-62-.5-5-1.1-9.8-1.6-14.6-.9-4.7-1.8-9.3-2.7-13.9-.7-4.5-2.1-8.8-3.2-13-1.2-4.2-2.1-8.3-3.5-12.1-5.9-18.2-13.5-34.7-22-50-2.2-3.8-4.4-7.5-6.6-11.3-2.4-3.6-4.8-7.2-7.2-10.7-2.3-3.6-5-6.9-7.6-10.4l-3.8-5.1-4.1-4.9c-21.5-26.4-47.1-48.8-75.2-73.9-14.3-12.7-30.3-26.8-46-42.8-15.7-16-30.8-34.2-43.2-54.2-12.4-20-21.6-41.9-27.9-63.5-6.1-21.6-9.1-42.9-10.8-61.8-.3-7.3-1.6-20.3-1.4-33.4-.4-13.1.5-26.1.8-33.5.4-7.9-.5-5.3-2,6.1-.3,2.8-.7,6.2-1.1,10.1-.2,2-.5,4-.6,6.2,0,2.2-.2,4.5-.3,7-.1,4.9-.3,10.3-.5,16.1.1,5.8.4,12.1.7,18.9,0,3.8.5,7.8.9,11.9.4,4.1.8,8.4,1.2,12.8.5,4.4,1.3,8.9,2,13.5.4,2.3.7,4.7,1.1,7.1.3,2.4,1,4.8,1.5,7.2,3.9,19.5,10.5,40.7,21.2,62.1,10.6,21.4,24.6,40.7,40.8,58.9,16.2,18.2,34.9,35.3,55.2,53.4,26.6,23.7,55.4,48.7,78.5,77.5,11.6,14.4,21.7,29.6,30.1,45.1,8.4,15.5,14.5,31.6,19.7,46.9,7.5,23.4,12.6,52.4,10.5,82.5,0,3.8-.7,7.5-1.2,11.2-.6,3.7-.9,7.5-1.7,11.2-1.8,7.4-3.1,14.9-5.7,22-1.2,3.6-2.3,7.2-3.6,10.8-1.5,3.5-3,6.9-4.4,10.4-.7,1.7-1.5,3.4-2.2,5.1-.9,1.6-1.7,3.3-2.6,4.9-1.7,3.3-3.5,6.5-5.2,9.7-1.8,3.2-3.9,6.1-5.7,9.1-2,3-3.7,6-5.8,8.8-4.3,5.5-8.2,11-12.3,15.9-4.3,4.8-8.4,9.6-12.4,14-4.3,4.2-8.3,8.1-12.1,11.8-1.8,1.9-3.8,3.6-5.7,5.2-1.9,1.6-3.7,3.1-5.4,4.6-3.5,2.9-6.5,5.7-9.5,7.9-5.9,4.4-10.3,7.7-12.9,9.6-6.2,4.5-4.6,4.1,5.1-2.1,2.4-1.6,5.3-3.5,8.8-5.8,3.5-2.3,7.1-5.3,11.4-8.6,2.1-1.7,4.4-3.4,6.8-5.3,2.4-1.9,4.6-4.1,7.1-6.4,2.5-2.3,5.1-4.7,7.8-7.2,2.8-2.4,5.2-5.4,8-8.3Z"/>
            <path class="st5" d="M481.9,825.1c-.9-3.6-1.8-7.2-2.8-11.1-.8-3.8-1.7-7.8-2.6-11.9-1.9-8.1-3.3-16.8-5-25.7-2.9-17.9-5.6-37-7.1-56.2-3.6-38.4-3.5-77-2.3-106.3,1.2-34.7,5.6-65.5,8.7-96.4,3.8-30.8,7.7-61.6,12-96.3,2.1-17.6,4.3-37.3,6.4-58.2.9-10.4,1.8-21.2,2.7-32,.5-5.4.9-10.9,1.4-16.4.4-5.5.7-11,1-16.5,1.1-22,2.8-44,3.1-64.9.3-10.5.6-20.7.9-30.5.2-4.9.3-9.7.5-14.4.2-4.7,0-9.2.1-13.7,0-13.6-.1-48.4-.1-62.1,0-14.7-3.3,10.2-4.1,59.4,0,14.1-1.3,30.3-2.2,48.4-.5,9.1-1,18.6-1.5,28.6-.6,10-1.5,20.4-2.2,31.2-.7,10.8-1.4,21.6-2.1,32.4-.9,10.8-1.8,21.7-2.8,32.9-1.7,22.3-4.4,45.3-7.3,70.3-4.2,32.7-8.7,67.6-13.2,101.8-1.9,17.2-3.9,34.2-5.7,50.7-1.6,16.6-2.8,32.7-3.3,47.9-.9,23.3-.6,50.8,1.5,79.2,2,28.4,5.9,57.7,11.3,84.4,10.3,53.8,28,96.6,33,107.5,2.7,6.7,2.7,5-.7-5.1-.9-2.5-1.9-5.6-3.2-9.2-1.1-3.6-2.5-7.8-4-12.6-.8-2.4-1.6-4.9-2.4-7.5-.8-2.7-1.6-5.5-2.4-8.5-.9-3-1.8-6.1-2.7-9.3-.8-3.3-1.7-6.7-2.6-10.3Z"/>
            <path class="st5" d="M407.4,807.7c-4.1-6.2-7.9-13.2-12.3-20.5-1.9-3.8-3.9-7.6-5.9-11.5-1-2-2-3.9-3-5.9-.9-2.1-1.8-4.2-2.7-6.3-1.7-4.2-3.8-8.4-5.3-12.8-1.5-4.4-3.1-8.9-4.6-13.4-2.6-9.2-5.2-18.5-6.8-28.1-3.4-19.1-4.3-38.5-3.9-56.8.6-18.3,2.5-35.4,4.3-50.1.5-4.4,1.2-8.7,1.8-12.9.6-4.3,1.1-8.5,2-12.5,1.6-8.2,3-16.2,4.6-24.1,2.1-7.8,4.1-15.4,6.1-23,2.3-7.5,4.9-14.9,7.4-22.3,10.5-29.5,23.9-57.9,38.4-90.2,7.4-16.4,15.3-35,22.7-55,2-4.9,3.6-10.1,5.3-15.3,1.7-5.2,3.4-10.4,5.2-15.7,3.2-10.6,5.9-21.5,8.8-32.3,2.2-11,4.4-22,6.6-32.8,1.5-11,3-21.8,4.4-32.3,1.7-21.2,3.5-41.3,3.2-59.3,0-3.5,0-8.3.1-13.7,0-2.7,0-5.6,0-8.6-.2-3-.4-6.1-.5-9.1-.7-12.3-1.4-24.5-1.8-31.4-.4-7.5-1-4.8-1.4,5.9-.2,5.4-.3,12.7-.2,21.9,0,4.6.2,9.6.1,15-.2,5.4-.3,11.3-.5,17.5-.2,7.1-.3,14.7-.7,22.9-.8,8.1-1.6,16.8-2.5,25.9-.2,2.3-.4,4.6-.7,6.9-.1,1.2-.2,2.3-.3,3.5-.2,1.2-.4,2.4-.6,3.5-.8,4.8-1.6,9.6-2.4,14.6-.8,5-1.6,10.1-2.4,15.3-1,5.2-2.3,10.4-3.4,15.7-9.1,42.8-22.6,83.7-43.6,130.1-13.6,30.5-29.4,62.6-41.3,95.8-1.4,4.2-2.9,8.3-4.3,12.5l-2.1,6.2c-.7,2.1-1.2,4.2-1.8,6.3-1.1,4.2-2.3,8.4-3.4,12.5-1.1,4.2-2.4,8.2-3.1,12.4-1.6,8.3-3.2,16.6-4.7,24.6-1.1,8.1-2.3,15.9-3.2,23.6-2.8,23.4-5.1,51.5-2.5,80.5,2.4,29.1,11.1,58.5,23.2,83.6,12,25.2,26.9,46.1,39,62.1,12.2,16,22.1,26.8,26,31.6,4.6,5.6,4.1,4-2.3-4.7-1.6-2.2-3.6-4.8-5.9-7.9-1.2-1.5-2.4-3.2-3.8-5-1.3-1.8-2.7-3.7-4.2-5.8-3-4.1-6.3-8.7-9.9-13.7-3.5-5.2-7.3-10.9-11.4-17.1Z"/>
            <path class="st5" d="M302.2,793.4c-2.5-3-5.1-6.1-7.8-9.3-2.6-3.3-5-6.9-7.6-10.5-5.4-7.1-9.8-15.3-14.9-23.5-9.1-17-16.8-36.1-21.8-55.9-1.1-5-2.2-10-3.3-15-.7-5-1.4-10.1-2-15.1-.4-2.5-.6-5-.7-7.5-.1-2.5-.3-5-.4-7.4-.1-2.5-.3-4.9-.3-7.3,0-2.4.1-4.9.2-7.2,0-2.4.1-4.8.2-7.1,0-1.2,0-2.4.1-3.5.1-1.2.2-2.3.4-3.5.5-4.6,1-9.1,1.4-13.5.7-4.4,1.6-8.6,2.3-12.7.4-2.1.7-4.1,1.1-6.1.5-2,1-3.9,1.5-5.8,4-18.1,10.7-34,19.3-48.5,8.6-14.5,18.8-27.4,29.9-39.5,22.2-24.4,47.4-46.1,73.4-73.4,13.1-13.8,27.2-30.1,40-48.8,12.8-18.7,24.1-39.9,32.4-62.2,8.4-22.3,13.7-45.6,16.7-67.9.4-2.8.8-5.6,1.2-8.3.4-2.8.5-5.5.8-8.2.4-5.4,1-10.8,1.3-16,.2-5.3.3-10.4.5-15.4,0-2.5.2-5,.2-7.4,0-2.4,0-4.9-.1-7.2,0-3.7-.2-8.7-.3-14.5-.2-5.8-.9-12.2-1.3-18.7-.2-3.2-.5-6.5-.7-9.6-.4-3.1-.7-6.2-1.1-9-.7-5.7-1.3-10.8-1.7-14.4-.9-7.8-1.4-5-1,6.3.4,11.3,1.8,31.1,1.8,57.3,0,3.7,0,7.6,0,11.7-.2,4-.4,8.2-.6,12.5-.2,8.6-1.4,17.7-2.4,27.3-2.6,19.1-6.5,40.1-13.3,62-6.9,21.9-16,42.9-28.2,63.2-12.2,20.3-27.2,40-45.6,59.5-12,12.8-25.2,25.4-38.5,38.1-13.4,12.7-26.9,25.6-39.5,39.4-12.5,13.8-24,28.6-32.8,44.4-2.2,4-4.4,7.9-6.1,12-1.8,4.1-3.7,8.1-5.1,12.3-3.2,8.2-5.1,16.5-7.2,24.5-.9,3-1.3,6.2-1.9,9.5-.6,3.2-1.2,6.5-1.8,9.9-1,6.7-1.4,13.8-2.2,21,0,3.6-.1,7.3-.2,11,0,3.7-.3,7.4.1,11.2.6,7.5.7,15.2,2.1,22.8,4.3,30.5,15.1,61.2,30.5,86.3,15.1,25.3,33.3,45.7,49,60,3.8,3.7,7.8,6.7,11.2,9.7,3.5,2.9,6.5,5.7,9.5,7.9,5.9,4.4,10.3,7.6,12.9,9.6,6.1,4.6,5.2,3.2-3.5-4.3-2.2-1.8-4.9-4.1-8-6.7-1.6-1.2-3.2-2.8-4.9-4.4-1.7-1.6-3.6-3.3-5.5-5.1-3.9-3.6-8.4-7.5-12.8-12.4-4.5-4.8-9.8-9.8-14.6-16Z"/>
          </g>
          <g>
            <path class="st3" d="M530.4,826.1c1-3.6,2-7.2,3.1-11.1.9-3.8,1.9-7.8,2.9-11.9,2.1-8.1,3.7-16.8,5.6-25.7,3.3-17.9,6.4-37.1,8.3-56.4,4.3-38.6,4.8-77.4,3.8-107-.2-8.8-.8-17.3-1.2-25.6-.7-8.3-1.1-16.5-2-24.4-1.7-15.9-3.3-31.4-4.9-46.9-2-15.4-4.1-30.8-6.2-46.7-2.2-15.9-4.7-32.2-7.3-49.4-2.6-17.5-5.6-37-8.7-57.7-1.4-10.3-2.8-20.9-4.3-31.7-.7-5.4-1.5-10.8-2.2-16.2-.7-5.4-1.2-10.9-1.8-16.3-2.2-21.8-5-43.6-6-64.5-.7-10.4-1.4-20.6-2-30.3-.3-4.9-.6-9.6-.9-14.3-.3-4.7-.3-9.2-.4-13.6-.4-13.6-1.6-48.3-2-61.9-.3-14.7-2.9,10.1-2.3,59.5,0,14.1.9,30.3,1.5,48.5.4,9.1.8,18.7,1.2,28.7.5,10,1.6,20.4,2.6,31.3,1,10.8,2,21.6,3.2,32.5,1.5,10.8,2.9,21.7,4.4,32.8.7,5.5,1.5,11.1,2.3,16.8.8,5.7,1.7,11.4,2.6,17.2,1.7,11.6,3.5,23.6,5.3,36,2.3,16.3,4.8,33.1,7.2,50.2,2.2,17,4.5,34.3,6.5,51.4,1.7,17.1,3.4,34.1,5.1,50.5,1.3,16.4,2.3,32.4,2.7,47.4.8,23,.8,50.2-.8,78.3-1.5,28.1-4.7,57.2-9.3,83.8-8.9,53.4-25.1,96.4-30.2,107.1-2.8,6.5-1.6,5.5,3.1-4.1,1.2-2.4,2.6-5.3,4.2-8.8,1.5-3.5,3.2-7.6,5-12.2.9-2.3,1.9-4.8,2.9-7.4.9-2.6,1.9-5.4,2.9-8.4,1-2.9,2-6,3.1-9.2,1-3.2,1.9-6.7,3-10.2Z"/>
            <path class="st3" d="M604.6,809.6c4.3-6.2,8.3-13.2,12.9-20.4,2-3.8,4.1-7.6,6.2-11.6,1.1-2,2.1-4,3.2-6,.9-2.1,1.9-4.2,2.9-6.3,1.9-4.3,4-8.5,5.7-13,1.6-4.5,3.3-9,5-13.6,2.8-9.3,5.7-18.8,7.4-28.6,3.9-19.5,5.1-39.4,4.9-58-.4-18.6-2.1-35.9-3.8-50.8-.5-4.4-1.1-8.7-1.7-13-.6-4.3-1.1-8.5-1.9-12.7-1.5-8.4-2.9-16.6-4.5-24.6-2-7.9-4-15.8-6-23.5-2.2-7.7-4.8-15.2-7.2-22.8-10.3-30-23.4-58.9-38.1-91.1-14.8-32.6-33.5-73-46.6-115.5-1.9-5.2-3.2-10.6-4.6-16-1.4-5.4-2.8-10.7-4.2-16-1.6-5.3-2.4-10.7-3.5-16-1-5.3-2.1-10.6-3.1-15.7-.5-2.6-1.1-5.2-1.5-7.7-.3-2.6-.7-5.2-1-7.7-.7-5.1-1.3-10.1-1.9-15-.6-4.9-1.3-9.7-1.7-14.4-.3-4.7-.5-9.3-.8-13.8-.2-3.4-.5-8.2-.9-13.7-.2-2.7-.4-5.6-.6-8.6-.3-3,0-6-.2-9.1,0-12.3,0-24.5,0-31.4,0-7.5-.8-4.9-1.7,5.8-.5,5.3-1,12.7-1.4,21.9,0,2.3-.2,4.7-.3,7.2,0,1.3,0,2.5-.1,3.9,0,1.3,0,2.7.1,4,.2,5.5.5,11.4.7,17.6,1,28.6,4.5,66.3,15.5,109.4,11.1,43.1,28.3,83.2,49.6,129.5,13.8,30.5,28.6,62.9,39.6,95.9,1.3,4.1,2.6,8.3,3.9,12.4l2,6.2c.6,2.1,1.1,4.2,1.6,6.2,1,4.1,2.1,8.3,3.1,12.4,1,4.1,2.2,8.1,2.8,12.2,1.4,8.2,2.9,16.2,4.3,24.1,1,8,2.2,15.8,3,23.4,2.7,23.2,5.2,50.6,3.2,78.9-1.9,28.3-9.6,56.9-20.8,81.8-11.1,24.9-25.3,46-36.9,62.2-11.7,16.1-21.4,27.1-25.3,31.8-4.7,5.5-3.3,4.8,4.3-3,1.9-2,4.1-4.3,6.8-7.2,1.3-1.4,2.7-3,4.3-4.6,1.5-1.7,3-3.5,4.6-5.5,3.2-3.9,6.8-8.3,10.8-13.2,3.8-5,7.7-10.7,12.1-16.8Z"/>
            <path class="st3" d="M709.7,795.4c2.6-3,5.4-6.1,8.2-9.3,2.7-3.3,5.2-6.9,8-10.6,1.4-1.8,2.7-3.7,4.1-5.5,1.4-1.9,2.5-3.9,3.8-5.9,2.5-4,5.1-8.1,7.7-12.3,9.6-17.2,17.8-36.7,23.2-57.1,5.6-20.3,7.6-41.5,7.4-61.3.2-9.9-1.2-19.5-1.9-28.6-.8-4.5-1.6-8.9-2.3-13.1-.4-2.1-.7-4.2-1.2-6.3-.5-2-1-4-1.5-5.9-4.2-18.6-11.2-35.6-19.7-50.8-8.5-15.3-18.4-29.1-28.9-42.3-21.1-26.3-44.7-50.1-69.9-77.8-12.7-14-26.8-29.9-40.4-47.6-13.6-17.7-26.7-37.2-37.6-58-10.9-20.8-19.6-42.8-25.4-64.4-5.9-21.6-9.2-42.7-10.9-61.5-.4-3.6-.5-8.7-.9-14.5-.2-2.9-.4-6-.6-9.1,0-3.2,0-6.4,0-9.7-.4-13,.5-26,.8-33.3.4-7.9-.5-5.3-2,6-.7,5.7-1.8,13.5-2,23.2-.1,4.9-.5,10.3-.4,16.1.2,5.8.4,12.1.7,18.8.2,3.8.7,7.7,1.1,11.8.4,4.1.7,8.3,1.3,12.7,1.4,8.7,2.4,18,4.6,27.6,4,19.3,10,40.5,19.6,62.1,9.5,21.7,21.5,41.9,35.5,61.7,14.1,19.7,30.3,39,48.4,59.1,23.7,26.5,50.4,53.4,73.2,82.3,11.4,14.5,21.7,29.5,29.7,45,8.2,15.5,13.7,31.5,17.2,47.2.4,1.5.8,3,1.1,4.5.3,1.5.6,3.1.8,4.7.6,3.1,1.1,6.3,1.7,9.6.7,3.2.9,6.6,1.3,10,.4,3.4.7,6.8,1.1,10.3.3,3.5.2,7,.4,10.6,0,3.6.4,7.2.1,10.8-.2,3.6-.4,7.3-.6,11-.1,1.8-.2,3.7-.3,5.6l-.7,5.6c-3.6,29.7-13.3,59.8-27.7,84.9-14.2,25.2-31.6,45.8-46.8,60.4-1.8,2-3.8,3.6-5.6,5.2-1.8,1.6-3.6,3.2-5.3,4.7-3.4,2.9-6.4,5.8-9.3,8-5.8,4.4-10.2,7.7-12.8,9.6-6.1,4.5-4.5,4.1,5.1-2.1,2.4-1.6,5.3-3.5,8.7-5.8,1.7-1.1,3.5-2.5,5.3-4,1.9-1.5,3.8-3.1,5.9-4.8,2.1-1.7,4.3-3.5,6.6-5.4,2.4-1.8,4.5-4.2,7-6.5,4.8-4.7,10.3-9.5,15.4-15.7Z"/>
            <path class="st3" d="M454.3,832.7c-2.1-3.1-3.7-6.7-5.6-10.3-1.9-3.6-3.8-7.3-5.8-11.1-1.9-3.8-3.5-7.9-5.3-12-1.7-4.1-3.8-8.2-5.2-12.6-1.5-4.4-3.1-8.8-4.7-13.3-1.6-4.5-2.6-9.2-4-13.9-.7-2.3-1.3-4.7-2-7-.5-2.4-1-4.8-1.5-7.2-.9-4.8-2.1-9.6-2.9-14.5-3.3-19.4-4.4-39.2-4.7-57.7,0-4.6,0-9.2,0-13.7,0-4.5.3-8.9.4-13.1.2-8.6.9-16.7,1.3-24.2,2.7-35.7,6-67.4,12.2-98.5,6.1-31.2,14.5-61.9,24.2-96.5,9.8-35,21.3-79,28.7-123.8,2.1-11.2,3.4-22.4,4.9-33.6,1.7-11.1,2.3-22.1,3.4-32.9,1.2-10.7,1.5-21.2,2-31.3.3-5,.5-10,.8-14.8.2-4.8.1-9.5.2-14.1,0-3.5,0-8.4,0-13.9,0-5.5.2-11.8-.2-18-.5-12.4-.9-24.9-1.2-31.9-.2-7.6-.9-4.9-1.5,5.9-.7,10.9-.5,29.9-1.4,55.2,0,14.4-1.6,31-3,49.6-1,9.2-2.1,19-3.3,29.1-.5,5.1-1.3,10.3-2.1,15.6-.8,5.3-1.6,10.7-2.4,16.2-.7,5.5-1.8,11-2.7,16.4-1,5.5-1.9,10.9-2.9,16.4-2.2,10.9-4.4,21.9-6.8,33.1-5.1,22.4-10.9,45.5-17.9,70.3-9.1,32.7-19.2,67.5-26.2,102.5-1.8,8.7-3.1,17.5-4.7,26.2-1.4,8.7-2.3,17.4-3.4,25.9-2,17-3.4,33.4-4.4,49.1-1.6,23.8-2.3,52.3.8,81.6,3,29.3,10.3,59.2,21.2,85.3,10.8,26.1,24.9,48.1,36.6,64.7,11.9,16.6,21.9,27.6,25.8,32.5,4.7,5.7,4.2,4.1-2.3-4.8-1.6-2.2-3.6-4.9-5.9-8.1-1.2-1.6-2.5-3.2-3.8-5.1-1.3-1.8-2.6-3.9-4.1-6-2.9-4.2-6.1-8.9-9.7-14.2-3.3-5.4-6.9-11.3-10.8-17.8Z"/>
            <path class="st3" d="M363.3,804.9c-2.4-2.9-4.8-6-7.3-9.1-2.4-3.2-4.6-6.8-7-10.3-1.2-1.8-2.4-3.6-3.6-5.4-1.2-1.8-2.2-3.8-3.3-5.8-2.1-3.9-4.5-7.9-6.5-12-8.1-16.7-14.1-35.6-17.8-54.9l-1.3-7.3-.6-3.6-.4-3.7c-.5-4.9-1-9.7-1.5-14.6-.2-4.9-.4-9.7-.6-14.4-.2-2.4-.2-4.8,0-7.1,0-2.4,0-4.7,0-7,0-2.3,0-4.6,0-6.9.1-2.3.3-4.5.4-6.8.3-4.5.5-8.9.8-13.1,1-8.5,1.5-16.6,2.7-24.1,3.7-35.6,15.5-65.3,30.5-93.2,15.1-28,33.3-54.3,52.5-84.8,9.7-15.5,20.3-33.2,30-52.6,9.8-19.4,18.7-40.6,25.6-62.3,7-21.8,11.9-44.1,15-65.6,3.1-21.5,4.1-42,4.5-60.3,0-3.5-.1-8.4-.2-14,0-2.8,0-5.7-.2-8.8-.2-3-.4-6.2-.6-9.3-.5-12.5-2.1-24.9-2.7-31.9-.7-7.6-1.2-4.9-1.1,6,0,5.4.5,12.9.4,22.2,0,4.6.2,9.7.3,15.2,0,5.5-.1,11.4-.2,17.8,0,7.2-.7,15-1.1,23.2-.3,4.1-.8,8.4-1.3,12.8-.4,4.4-.9,8.9-1.6,13.5-2.4,18.4-6.6,38.6-12.6,59.9-12.1,42.7-30.2,82.8-57.8,126.5-17.9,28.8-39,58.4-56.2,90-8.5,15.8-16,32.1-21.3,48.6-.7,2.1-1.3,4.1-2,6.2-.6,2.1-1.1,4.2-1.6,6.2-1.1,4.1-2.2,8.2-2.8,12.4-1.7,8.3-2.6,16.3-3.8,24.1-.9,6-1.3,12.2-2,18.7-.7,6.5-.8,13.2-1.2,20.1-.3,6.9,0,14,0,21.2.2,3.6.4,7.2.6,10.9.3,3.7.3,7.3.9,11,3.1,29.4,11.3,59.6,24.9,84.6,13.4,25.1,30.8,45,45.8,59,3.7,3.5,7.5,6.5,10.8,9.4,3.4,2.8,6.2,5.6,9.2,7.6,5.7,4.2,9.9,7.4,12.4,9.2,5.9,4.5,5,3-3.3-4.2-2.1-1.8-4.7-3.9-7.7-6.5-.8-.6-1.5-1.3-2.4-1.9-.8-.7-1.6-1.5-2.4-2.3-1.6-1.6-3.4-3.2-5.3-5-3.7-3.5-8.1-7.2-12.3-12-2.2-2.3-4.4-4.7-6.8-7.3-1.2-1.3-2.5-2.5-3.6-3.9-1.1-1.4-2.3-2.9-3.5-4.3Z"/>
            <path class="st3" d="M268.7,781.5c-2.6-2.9-5.5-5.9-8.3-9.1-2.6-3.3-5.3-6.8-8.1-10.3-1.4-1.8-2.9-3.5-4.2-5.4-1.3-1.9-2.6-3.8-3.9-5.8-1.3-1.9-2.6-3.9-4-5.9l-2-3-1.8-3.2c-2.4-4.2-4.8-8.5-7.3-12.9-2.1-4.5-4.2-9.1-6.3-13.7-3.8-9.4-7.5-19.1-9.8-29.1-5.1-20-6.9-40.7-5.8-60,1-19.4,5.3-37.1,9.4-52.3,5.4-17.8,13.1-33.7,22.1-48,9.1-14.4,19.5-27.3,31-39.3,23-24.1,49.4-44.8,78.1-69.5,14.5-12.6,30.5-27.2,45.7-44.3,15.2-17.1,29.1-37.1,39.5-58.9,10.5-21.7,17.2-45.1,20.7-67.6.4-2.8.8-5.6,1.2-8.4.4-2.8.9-5.5,1-8.3.4-5.5.8-10.9,1.2-16.2.3-5.3.2-10.5.3-15.6,0-5.1.2-10-.2-14.8-.2-3.7-.5-8.8-.8-14.7-.1-2.9-.5-6-.9-9.2-.4-3.2-.8-6.4-1.2-9.7-.4-3.3-.8-6.5-1.2-9.7-.5-3.2-1.1-6.2-1.5-9.1-1-5.8-1.8-10.8-2.4-14.4-1.3-7.9-1.6-5-.6,6.4.3,2.8.6,6.2,1,10.1.2,1.9.4,4,.7,6.2.2,2.2.3,4.5.5,6.9.4,4.9.8,10.2,1.3,15.9.3,2.9.4,5.9.5,9,.1,3.1.2,6.3.4,9.6.7,15.1-.2,32.5-2.4,51.8-2.7,19.2-7.5,40.2-16,61.7-8.5,21.5-20,41.5-34.6,60.4-14.6,18.9-32.5,36.5-52.9,54.3-26.8,23.4-57.3,46.4-83.5,73.7-13,13.6-24.9,28.3-34.2,44.1-9.4,15.7-16.2,32.2-21,48.3-7.1,24.4-10.9,54.9-7.1,86,3.8,31.1,16.3,61.7,32.3,86.7,2.1,3.1,4.3,6.1,6.3,9,2.2,2.9,4.1,6,6.3,8.7,2.3,2.7,4.5,5.4,6.7,8.1,2.2,2.6,4.2,5.3,6.6,7.7,4.6,4.8,8.9,9.4,13.2,13.7,4.4,4.1,8.7,8,12.6,11.6,1.9,1.9,4,3.5,5.9,5,1.9,1.6,3.8,3.1,5.6,4.5,3.6,2.9,6.7,5.6,9.8,7.8,6,4.4,10.5,7.6,13.1,9.6,6.2,4.6,5.3,3.2-3.6-4.3-2.2-1.8-4.9-4.1-8.1-6.7-3.2-2.6-6.6-5.9-10.7-9.4-2-1.8-4.2-3.7-6.4-5.7-2.3-2-4.4-4.3-6.8-6.6-2.4-2.3-4.9-4.8-7.5-7.3-1.3-1.2-2.6-2.6-3.9-4-1.3-1.4-2.6-2.9-3.9-4.3Z"/>
          </g>
        </g>
        <path class="st8" d="M795.4,720.7c-19.7,12.4-45.9,15-66.6,4.1-37.2,25.7-86.1,33.6-129.5,20.9-43.4-12.7-80.3-45.8-97.7-87.5-27.9,35.2-73.6,55.5-118.4,52.4-44.8-3.1-87.4-29.4-110.1-68.1-13,18.9-42.1,21.5-61.5,9.3-14.4-9.1-23.7-24.3-28.3-40.9-10.3,107.3,56.3,203.4,148.2,187.8,29.1,26,127,45.5,167.5,18.4,34.6,26.9,144.6,14.1,189.3-23.8,28.7,17.2,79.1-15.1,107.2-72.6Z"/>
        <path class="st8" d="M504,768.2c-57.7,37.7-153.3,20.6-200.5-26.5-37.8,24.1-88.2-3.4-106.8-30.8,23.5,59,73.4,98.2,134.7,87.8,29.1,26,127,45.5,167.5,18.4,34.6,26.9,144.6,14.1,189.3-23.8,16.7,10,40.8,3.2,63.6-15.6-19.1,4.8-29.5-3-39.3-10.7-61.2,27-151.6,49.7-208.6,1.3Z"/>
        <g class="st7">
          <path class="st6" d="M744.1,617.5c-.5-2.9-.9-5.7-1.4-8.6-.6-2.9-1.2-5.7-1.8-8.6l-.9-4.3-1.1-4.3c-.7-2.9-1.5-5.8-2.2-8.7-.9-2.9-1.7-5.8-2.6-8.7-.4-1.5-.9-2.9-1.3-4.4-.5-1.4-1-2.9-1.5-4.4-1-2.9-2-5.8-3.1-8.8-1.1-2.9-2.3-5.8-3.5-8.8-1.1-3-2.4-5.9-3.7-8.9-1.3-3-2.6-6-4-9-7.2-15.7-16.1-31.3-26.1-46.3-2.4-3.8-5.2-7.4-7.8-11.1-2.6-3.7-5.4-7.3-8.3-10.8l-4.2-5.3-4.5-5.2c-3-3.4-5.9-6.9-8.9-10.2-23.6-26.3-45.2-53.1-62.5-78.5-13.1-19.3-27.5-42.9-38.9-69.1-11.4-26.1-20.1-54.6-24.1-81.8-.3-1.7-.7-3.4-.9-5.1-.2-1.7-.4-3.4-.6-5-.4-3.3-.7-6.7-1.1-9.9-.4-3.3-.7-6.5-1.1-9.7-.3-3.2-.3-6.3-.4-9.4-.2-6.2-.5-12.1-.7-17.7,0-5.6.3-11,.4-16,.2-4.8.3-9.3.4-13.5-1.8,0-3.5-.1-5.2-.2,0,.2,0,.4-.1.7-.6,5.1-1.3,10.9-1.9,17.2-.3,3.2-.6,6.5-1,10,0,3.5-.1,7.2-.2,11,0,3.8,0,7.8-.1,11.9,0,2.1-.1,4.1,0,6.3.1,2.1.3,4.3.4,6.4.3,4.3.6,8.8.8,13.4.2,2.3.2,4.6.5,6.9.3,2.3.6,4.6,1,7,.7,4.7,1.3,9.5,2,14.3l.5,3.6.8,3.6c.5,2.4,1,4.8,1.6,7.3,1.1,4.9,2,9.8,3.3,14.7,1.4,4.8,2.9,9.7,4.3,14.5,11.5,38.9,31.8,74.6,49.2,99.8,20.7,30,41.8,54.6,63.5,78.4,10.7,11.7,20.7,23.5,29.9,36.7,9.2,13.2,17.7,27.4,25.4,43.1,7.7,15.9,15.2,34.3,20.9,54.6,5.5,20.2,9.2,42.1,9.9,64.3.6,22.1-1.5,44.5-6.8,65-2.4,10.3-5.9,20.1-9.5,29.3-3.9,9.1-8,17.8-12.7,25.4-.9,1.5-1.9,3.3-3.1,5.3-1.2,2-2.7,4.1-4.2,6.4-2.3,3.7-5.2,7.6-8.1,11.5,2.2,1.2,4.4,2.2,6.8,2.8,1.2-1.4,2.5-2.9,3.8-4.4,1.8-2.2,3.5-4.6,5.3-7.1,1.8-2.5,3.6-5,5.3-7.8,8-12.5,16.3-27.7,22.9-45.9,6.7-18.1,11.8-39,13.2-62.1.9-11.5.5-23-.3-34.5-.7-5.7-1-11.5-2.1-17.2Z"/>
          <path class="st6" d="M500,817.8c2.3,1.6,4.8,3.1,7.6,4.5.4-5.1.8-10.6,1-16.5,1.8-29,4.2-67,5.1-111.8.6-22.4-.2-44.6-.6-67.7-.2-11.5-.4-23.3-.6-35.4-.1-12.1-.2-24.6-.4-37.5-.3-34,.3-70.2.4-105.8,0-35.6.2-70.5-.4-101.8-.5-23.9-1.6-52-2.8-81.2-1.3-29.2-3.1-59.4-4.7-87.3-1.1-19.2-2.2-37.3-3.3-53.4-2.6-.2-5.2-.4-7.7-.6,0,1.9,0,3.8,0,5.8.8,60.6,2.1,159.3,3,219.9.4,35.9.7,67.9,1,99.9.2,32,.4,64,.6,99.9.2,18.2.5,38.6.8,60.2.4,21.5.9,44.2,1.4,66.8.2,22.7.3,45.3.4,66.9,0,10.8,0,21.3,0,31.4-.2,10.1-.5,19.7-.7,28.8-.1,3.7-.2,9-.3,15Z"/>
          <path class="st6" d="M445.5,356c1.2-2.4,2.3-4.9,3.5-7.4,9.2-19.9,17.2-41.7,22.7-64.1,5.6-22.4,8.6-45.3,9.4-67.1.8-21.8-.9-42.4-3.2-60.6-.5-3.5-1.1-8.4-2.2-13.8-1.2-5.5-2.3-11.6-3.8-17.7-.3-1.1-.6-2.2-.9-3.3-2.1,0-4.2,0-6.4,0,0,.3,0,.6.1,1,.3,2.3.8,4.7,1.1,7.2.3,2.5.7,5.1,1,7.8.4,2.7.8,5.5,1.2,8.4.3,2.9.7,5.9,1,9,3.4,28.3,2.9,66-6.4,108.6-4.6,21.3-10.8,42.2-19.3,63.1-1.1,2.6-2.1,5.3-3.2,7.9-1.1,2.7-2.4,5.2-3.6,7.9-2.5,5.2-4.9,10.6-7.8,15.8-1.4,2.6-2.8,5.3-4.3,7.9-.7,1.3-1.5,2.7-2.2,4-.8,1.3-1.6,2.6-2.4,3.9-1.6,2.6-3.2,5.2-4.9,7.9-1.8,2.6-3.6,5.2-5.4,7.8-19.3,27.3-44.8,53.2-67,81.6-11.2,14.1-21.3,29-30.2,44-2.2,3.8-4.3,7.5-6.5,11.3-1.9,3.8-3.9,7.6-5.8,11.4-.9,1.9-1.9,3.7-2.8,5.6-.8,1.9-1.7,3.8-2.5,5.7-1.6,3.8-3.3,7.5-4.9,11.1-2.2,5.7-4.4,11.7-6.7,17.8-1.2,3-2,6.5-3,9.8-.9,3.4-2.1,6.7-2.7,10.3-1.3,7-2.9,14.2-3.4,21.6-.2,1.8-.4,3.7-.5,5.6l-.3,2.8v2.8c-.1,3.7-.2,7.5-.3,11.3.4,15.1,1.7,30.4,5.1,45.2,1.3,7.5,3.6,14.6,5.4,21.8,1,3.6,2.3,7,3.5,10.5,1.2,3.4,2.2,6.9,3.7,10.2,10.5,26.7,24.2,49.2,36.6,65.7.8,1.1,1.5,2,2.3,3,.6,0,1.2-.2,1.8-.3,2.8,2.5,6.2,4.9,10.1,7.2-6.2-9-13.7-20.6-21.9-35.4-7-13.2-14.3-29-20.1-46.5-5.7-17.5-9.9-36.7-11.7-56.1-1.8-19.3-1.1-38.8,2.3-56.6,1-4.4,1.7-8.8,2.9-13,1.3-4.1,2.5-8.2,3.7-12.1,1.5-4,3-7.8,4.4-11.5,1.5-3.7,2.7-7.4,4.3-10.8,1.8-4,3.5-8,5.3-11.9,1.7-3.9,3.8-7.6,5.6-11.4,3.6-7.6,7.9-14.6,11.9-21.6,8.4-13.8,17.4-26.7,26.9-39.2,9.7-12.5,19.9-24.6,30.5-37.2,10.6-12.6,21.8-25.7,32.6-40.6,2.7-3.8,5.4-7.8,8.2-11.9,2.6-4.2,5.3-8.6,7.9-13,2.4-4.5,4.9-9.1,7.4-13.8l1.9-3.5,1.7-3.7Z"/>
        </g>
      </g>
    </g>
  </g>
</svg>