<?xml version="1.0" encoding="UTF-8"?>
<svg id="Capa_1" xmlns="http://www.w3.org/2000/svg" version="1.1" viewBox="0 0 1024 1024">
  <!-- Generator: Adobe Illustrator 29.3.1, SVG Export Plug-In . SVG Version: 2.1.0 Build 151)  -->
  <defs>
    <style>
      .st0 {
        fill: #161d15;
      }

      .st1 {
        fill: #689433;
      }

      .st2 {
        fill: #715b73;
      }

      .st2, .st3, .st4, .st5, .st6, .st7 {
        opacity: .5;
      }

      .st8 {
        fill: #426a2a;
      }

      .st9 {
        fill: #93ae4c;
      }

      .st10 {
        fill: #597e2d;
      }

      .st3 {
        fill: #9e837a;
      }

      .st4 {
        fill: #6a546c;
      }

      .st11 {
        fill: #67962f;
      }

      .st5 {
        fill: #826656;
      }

      .st12 {
        fill: #010101;
      }

      .st13 {
        fill: #838c4d;
      }

      .st6 {
        fill: #627da4;
      }

      .st14 {
        fill: #98bd47;
      }

      .st15 {
        fill: #25361c;
      }

      .st16 {
        fill: #89b141;
      }

      .st17 {
        fill: #62852d;
      }

      .st18 {
        opacity: .6;
      }

      .st18, .st19 {
        fill: #b7c578;
      }

      .st20 {
        fill: #c5d870;
      }

      .st21 {
        fill: #bfd570;
      }

      .st22 {
        fill: #e6c009;
      }

      .st23 {
        fill: #1d0909;
      }

      .st24 {
        fill: #210c0a;
      }

      .st25 {
        fill: #4f3735;
      }

      .st26 {
        fill: #aea262;
      }

      .st27 {
        opacity: .6;
      }

      .st27, .st28 {
        fill: #694f4c;
      }

      .st29 {
        fill: #79a942;
      }

      .st30 {
        fill: #3a4237;
      }

      .st31 {
        fill: #7a9533;
      }

      .st32 {
        fill: #8f9669;
        opacity: .3;
      }

      .st33 {
        fill: #e7de6e;
      }

      .st34 {
        fill: #c4b650;
      }

      .st35 {
        fill: #48782e;
      }

      .st36 {
        fill: #efefc0;
      }

      .st37 {
        fill: #232854;
      }

      .st38 {
        fill: #6e4f49;
      }

      .st38, .st39 {
        opacity: .6;
      }

      .st40 {
        fill: #729838;
      }

      .st41 {
        fill: #384c67;
      }

      .st42 {
        fill: #57772b;
      }

      .st39 {
        fill: #61463f;
      }

      .st7 {
        fill: #85674d;
      }

      .st43 {
        fill: #657434;
      }

      .st44 {
        fill: #555c55;
      }

      .st45, .st46 {
        fill: #767d74;
      }

      .st46 {
        opacity: .5;
      }

      .st47 {
        fill: #b0ce63;
      }

      .st48 {
        fill: #4b2c28;
      }

      .st49 {
        fill: #adcd66;
      }

      .st50 {
        fill: #414182;
        opacity: .3;
      }

      .st51 {
        fill: #7d8c37;
      }

      .st52 {
        fill: #628d2e;
      }

      .st53 {
        fill: #658831;
      }

      .st54 {
        fill: #250e0b;
      }

      .st54, .st55 {
        opacity: .6;
      }

      .st56 {
        fill: #49501d;
      }

      .st55 {
        fill: #555592;
      }

      .st57 {
        fill: #3d1919;
      }

      .st58 {
        fill: #4d792e;
      }
    </style>
  </defs>
  <g>
    <path class="st43" d="M567.5,200.3c-8.3-16.7-16.7-111-16.7-111,0,0-6.1,6.1-18.8,9.9-9.8,2.9-20.1,3.1-20.1,3.1,0,0-10.3-.2-20.1-3.1-12.7-3.8-18.8-9.9-18.8-9.9,0,0-8.3,94.4-16.7,111-8.3,16.7-50,34.9-50,66v692s0,26,19.4,35.1c24.2,11.3,86.1,10.6,86.1,10.6,0,0,61.9.7,86.1-10.6,19.5-9.1,19.4-35.1,19.4-35.1V266.3c0-31.1-41.6-49.4-50-66Z"/>
    <path class="st56" d="M514.7,193.3c-39-5.7-64.6,28.1-91.5,51.7-16.6,28.5,11.7,22.4,20.1,20.7,17.3-3.6,33.4-6.8,51.2-9.4,37-5.5,75.8,5,109.8,6.6-8.3-35.5-57.9-64.9-89.6-69.6Z"/>
    <path class="st13" d="M593.3,261.3c-35.3-10.3-63.6-14.3-94.4-9.9-23.3,3.4-71.4,9.9-72,16.4-6.7,72.4-3.7,214.2,2.4,285.1,3.1,36.6,3.2,72.9,4.9,109.7,1.7,34.8,10.6,78.2,1.7,112.8l2.3-2.2c.9-29.5,7.6-56.6,6.2-87.4-1.5-32.5-1.3-64.6.5-96.9,3.6-65.9-7.2-130.1-6.7-195,.2-26,1.3-82.9,21.9-99.9,17.6-14.6,88.4-14.5,106.3-1.8,20.8,14.8,12.2,78.2,14.6,102.1,3.7,37.3,10.9,90.9,13.4,118.2,2.5-26.1-1.1-99-1.1-132.6s1.2-79,0-118.6Z"/>
    <path class="st44" d="M512,20c-25.1,0-45.4,3.2-45.4,7.2s20.4,9.6,45.4,9.6,45.4-5.7,45.4-9.6-20.3-7.2-45.4-7.2Z"/>
    <path class="st45" d="M521.4,33.1c-17,1.2-33-2.1-49.7-4.9-1.9-.3-3.6-.8-5-1.5,0,.2-.2.3-.2.5,0,4,20.4,9.6,45.4,9.6s45.4-5.7,45.4-9.6,0-.4-.2-.6c-10.8,5.1-24.2,5.7-35.9,6.5Z"/>
    <path class="st30" d="M512,20c-25.1,0-45.4,3.2-45.4,7.2s.7,1.6,2.1,2.4c.4-.2.9-.5,1.3-.7,14.4-6.8,31.9-6,47.7-6.5,13.6-.4,25.6.9,36.7,7.8,2-1,3.1-2,3.1-2.9,0-4-20.3-7.2-45.4-7.2Z"/>
    <path class="st15" d="M567.5,200.3c-8.3-16.7-16.7-111-16.7-111,0,0-6.1,6.1-18.8,9.9-.7.2-1.4.3-2.1.5,4.1,27.7.3,58.2,7.7,85.3,1.8,3.2,57.6,48.2,58.9,53,8.4,31.7-6.1,472.6-10,591,4.9,45.6,4.9,91.1,2.1,137-.9,14.9-15.2,22.7-28.4,16.3-14.3-7-30.4-14.3-46.6-9.7-11.6,3.3-22.2,9.1-33.7,12.5-19.2,5.6-33.2-5.2-38.4-23.6-19.1-68-1.9-138.1-2.1-206.9-.3-153.2-21.1-505.3-9-521.2,2-2.6,30.9-23.3,41-37.3,11.8-26.7,14.2-66.9,18.2-97.6-11.2-3.8-16.6-9.1-16.6-9.1,0,0-8.3,94.4-16.7,111-8.3,16.7-50,34.9-50,66v692s0,26,19.4,35.1c24.2,11.3,86.1,10.6,86.1,10.6,0,0,61.9.7,86.1-10.6,19.5-9.1,19.4-35.1,19.4-35.1V266.3c0-31.1-41.6-49.4-50-66Z"/>
    <path class="st30" d="M557.1,77.4v.3c-2-2.7.5-3.6,1.7-5.4,1.4-2.1,1.8-4.3,1.4-7.1-.6-4.2-6.3-6.7-4.8-11.2.6-1.9,2.6-3.6,3.4-5.4.9-2.2,1.4-5,1.6-7.2.4-4.4-.1-11.3-3.1-14.8-4.4,2.8-8.9,4.2-18.5,6.5-13,3.1-42.3,2.6-53.7,0-9.7-2.2-14.1-3.7-18.5-6.5-2.9,3.5-3.5,10.4-3.1,14.8.2,2.3.7,5,1.6,7.2.8,1.9,2.8,3.5,3.4,5.4,1.5,4.6-4.2,7-4.8,11.2-.4,2.8,0,5,1.4,7.1,1.2,1.8,3.7,2.7,1.7,5.4v-.3c-2.8,4.4-3.4,7.7-3.4,13.6s-.5,5.1,2,7.2c8.2,6.7,25.2,8.8,46.5,8.8,21.3,0,38.3-2,46.5-8.8,2.5-2.1,2-4,2-7.2,0-5.9-.5-9.2-3.4-13.6Z"/>
    <path class="st0" d="M557.1,77.4v.3c-2-2.7.5-3.6,1.7-5.4,1.4-2.1,1.8-4.3,1.4-7.1-.6-4.2-6.3-6.7-4.8-11.2.6-1.9,2.6-3.6,3.4-5.4.9-2.2,1.4-5,1.6-7.2.4-4.4-.1-11.3-3.1-14.8-2.4,1.5-4.9,2.6-8.1,3.7,1.4,6.4.7,12.9-.6,20-1.6,8.5,8.3,15.7,4.8,25.5-.7,1.8-1.5,3.5-2.3,5.2-.3,2-1,4.1-2.1,6.3-3.6,7.3-9,13.6-15.3,18.9,11-1.2,19.6-3.6,24.7-7.8,2.5-2.1,2-4,2-7.2,0-5.9-.5-9.2-3.4-13.6Z"/>
    <path class="st0" d="M553.5,28.5c-8.3,15.8-22.5,25.4-42.3,26.2-15.8.6-35.2-1.4-47.5-12.2.3,2,.7,4.2,1.5,5.9.8,1.9,2.8,3.5,3.4,5.4,0,0,0,.2,0,.3,23,9.4,65.3,10.6,88.5-3.1.6-.8,1.3-1.7,1.7-2.6.9-2.2,1.4-5,1.6-7.2.4-4.4-.1-11.3-3.1-14.8-1.2.8-2.5,1.4-3.9,2.1Z"/>
    <path class="st0" d="M558,60.9c-9.3,10.5-21.5,17.4-37.5,19.4-17.8,2.2-42.9-.8-56.7-14.4,0,0,0,0,0,0-.2,2.5.1,4.6,1.4,6.5.7,1.1,1.9,1.8,2.3,2.8.5.2.9.5,1.4.8,24.7,14.8,59.1,10.3,87.8,1.2-1.1-2.2,1-3.1,2.1-4.7,1.4-2.1,1.8-4.3,1.4-7.1-.2-1.6-1.2-2.9-2.2-4.2Z"/>
    <path class="st0" d="M557.1,77.4v.3c-2-2.7.5-3.6,1.7-5.4,1.4-2.1,1.8-4.3,1.4-7.1-.5-3.7-4.9-6-5-9.6,0,1.5,0,2.9-.3,4.4-5,40.2-63,43.8-91,24.5-.3,1.9-.5,3.9-.5,6.5s-.5,5.1,2,7.2c8.2,6.7,25.2,8.8,46.5,8.8,21.3,0,38.3-2,46.5-8.8,2.5-2.1,2-4,2-7.2,0-5.9-.5-9.2-3.4-13.6Z"/>
    <path class="st51" d="M487.1,107c-1,32-13.9,70.4-24,98,23.1-.9,44.9-95.8,24-98Z"/>
    <path class="st51" d="M538.3,184.9c-4.4-9.6-5.1-23.7-6.6-37.3-.8-7.2-1.2-14.4-1.2-21.7s0-7.1-.4-10.6c-.5-4.1-1-6.5-3.7-2-2,3.4-2.3,7.5-2.9,11.3-.8,5.5-2.8,10.4-2.9,16-.1,10.5.1,21,2,31.1,1.8,9.4,2.5,13.5,11.1,18.9,6.5,4.1,13,7.5,19.6,11.3,1.2.7,2.4,1.5,3.5,2.5-6.1-5.7-12.4-16.1-18.7-19.6Z"/>
    <path class="st19" d="M460.1,211.4c-12.2,12.2-42.1,27.2-35.3,43,16.5-3.9,31.6-26.5,46.5-36,6.2-9.6-2.7-11.9-11.2-7Z"/>
    <path class="st18" d="M564.8,209.1c-3.6-2.5-7.2-4.9-11.1-6.8l2.8.9c-7.8-2.6-28.4-15.1-35-4.7,10,9.1,22.7,13.9,33.9,21,5.6,3.5,10.4,7.9,13.7,13.7,3.4,5.9,2.8,12.7,7.5,17,13.3,12.2,24.5-.6,16.8-14.9-6.1-11.2-18.4-19-28.6-26.2Z"/>
    <path class="st18" d="M447.8,264.8c-5.9-3.2-16.3-.6-20.8,2.9,0,53.1,6.6,113.2,6.8,163.2,0-35.4,2.8-68.7,4.6-103.5.8-15.9,6-28.5,8.7-43,1.5-8.1,9.9-14.7.7-19.6Z"/>
    <path class="st18" d="M578.6,969.2c-14.6,18.3-20.5,1.1-38.4-3.2-29.5-7.1-70.4,20.3-89-14.3-7.7-14.3-9.3-55.4-8.8-84.5.9-55.8-4.1-94.1-2.9-112.6-4.6,78.3-4.6,95.5-4.6,132,0,34.6-5.3,63.1,16.9,89.7l-5-7.6c31.4,46.7,51.4-3.2,88.3,0,15.5,1.3,28.6,30.1,47.4,14.6,9.5-7.8,5.5-45.7,5.5-57.9-1.8,6.4-2.6,35.3-9.5,43.8Z"/>
    <path class="st32" d="M502.1,65.7c-4.6-.9-9.2-1.8-13.9-2.7-2.7-.6-5.4-1.1-8.1-1.6-2.7-.5-5.2-2-8.2-1.7-11.6,8.5,9,14,15.1,15.1,4.4.8,10.5,2.7,14.9,1.2,8.4-2.8,9.4-7.1,11.4-9.8-1.8-1.6-8.7,0-11.3-.5Z"/>
    <path class="st32" d="M469.2,32.2v-.3c-2.2,4.4-2.9,10.8,2.1,13.4,5.3,2.8,11.4,3.9,17.2,4.4,29.7,2.5,48.5-8.8,49.1-12.8-35,3.9-61.7-2-68.4-4.7Z"/>
    <path class="st32" d="M493.7,86.6c-4.5-1.6-9.5-2.8-14.2-4-3.5-.9-6.8-2.4-10.3-3h-.3c-6.2,2.1,4.6,7.6,6.4,8.4,4.8,2,9.5,2.5,14.8,2.5s6.3.8,7.3-.3c1.8-1.9-2.2-3.1-3.6-3.6Z"/>
    <path class="st46" d="M472.2,35.8v.3c-2.1,4.8,15.3,5,18.1,4.8-2-3.7-14.2-4.2-18.1-5.1Z"/>
  </g>
  <path class="st36" d="M588.9,871.6h-150.5V329.5s27-28,75.8-28,74.8,28,74.8,28v542Z"/>
  <g>
    <g>
      <path class="st12" d="M494.8,367.8c0,1.6-.4,3.1-1,4.3-.5,1.1-1.2,2.1-2.3,2.9-1.1.9-2.5,1.3-4.4,1.3s-3.4-.5-4.5-1.3c-1.1-.8-1.8-1.8-2.3-2.9-.6-1.2-.9-2.7-1-4.3v-23.2c0-1.6.4-3,1-4.2.5-1.1,1.2-2.1,2.3-2.9,1.1-.8,2.6-1.3,4.5-1.3s3.4.5,4.4,1.3c1.1.8,1.8,1.9,2.3,2.9.6,1.2.9,2.7,1,4.2v23.2ZM489.1,344.6c0-1.1-.2-1.8-.7-2.5-.3-.3-.7-.4-1.2-.4-1,0-1.5.7-1.7,1.4-.2.4-.2.9-.2,1.4v23.2c0,1.1.3,1.9.8,2.5.3.3.6.4,1.1.4,1,0,1.5-.6,1.7-1.4.2-.4.2-.9.2-1.4v-23.2Z"/>
      <path class="st12" d="M498.7,375.9v-39.3h5.4v39.3h-5.4Z"/>
      <path class="st12" d="M508.4,336.6h5.4v5.4h-5.4v-5.4ZM508.4,375.9v-29.3h5.4v29.3h-5.4Z"/>
      <path class="st12" d="M521.2,375.9l-4.8-29.3h5.2l1.8,17,.2,1.9h.4l.2-1.9,1.8-17h5.2l-4.8,29.3h-5.4Z"/>
      <path class="st12" d="M547.2,365.4v3.4c-.2,2.8-1,4.8-2.9,6.4-1,.8-2.3,1.2-4.1,1.2-3.5,0-5.2-1.9-6.1-3.9-.5-1.1-.8-2.4-.9-3.9v-14.7c.2-2.8,1.1-4.9,3-6.5.9-.8,2.2-1.2,4-1.2,3.5,0,5.2,1.9,6.1,3.8.5,1.1.8,2.4.8,3.7v8.5h-8.9v6.4c0,1.1.4,1.9.9,2.5.3.3.6.4,1.1.4,1,0,1.5-.6,1.7-1.4.2-.4.2-.9.2-1.5v-3.2h5ZM538.3,358h3.9v-4.1c0-1.1-.2-1.9-.7-2.6-.3-.3-.7-.4-1.2-.4-1,0-1.5.7-1.7,1.5-.2.4-.2.9-.3,1.5v4.1Z"/>
    </g>
    <g>
      <path class="st12" d="M510.9,418.6c-.2,2.8-1,4.8-2.9,6.4-1,.8-2.3,1.2-4.1,1.2-3.5,0-5.2-1.9-6.1-3.9-.5-1.1-.8-2.4-.8-3.9v-14.7c.2-2.8,1-4.9,2.9-6.5.9-.8,2.2-1.2,4-1.2,3.5,0,5.3,1.9,6.1,3.8.5,1.1.8,2.4.9,3.7v15ZM505.8,403.7c0-1.1-.2-1.9-.7-2.6-.3-.3-.7-.4-1.2-.4-1,0-1.4.7-1.7,1.5-.2.4-.2.9-.2,1.5v14.7c0,1.1.2,1.9.7,2.5.3.3.6.4,1.1.4,1,0,1.5-.6,1.7-1.4.2-.4.2-.9.2-1.5v-14.7Z"/>
      <path class="st12" d="M514.6,386.3h5.4v5.4h-5.4v-5.4ZM514.6,425.7v-29.3h5.4v29.3h-5.4Z"/>
      <path class="st12" d="M524.2,425.7v-39.3h5.4v39.3h-5.4Z"/>
    </g>
  </g>
  <g>
    <g>
      <g>
        <g>
          <path class="st11" d="M515.6,527.3c0,0-.1,0-.2-.1h.2Z"/>
          <path class="st11" d="M516.5,522.5c.7-2,.9-4.1,1.1-6.2.6-5,1.8-9.8,2.2-14.8.3-3.9.2-7.8.6-11.8.3-3,.9-6.2.7-9.2-.5-7.2-2.9-13.9-5.1-20.9-.5-1.7-1.1-3.2-1.9-4.7-.4-.8-1.3-3.7-2-4.1-.9-.5-1.8.4-2.7,1.8.5,7.7.6,15.3,1.2,23,.4,5.7.5,11.5-1,17,.1,5.9.9,11.5,1.8,17.5.5,3.4.8,6.7,1.7,10,.5,1.9.9,3.8.9,5.8.4.6.9,1.1,1.4,1.5.2-.4,0-1.4,0-2.1.1-.9.7-1.7,1-2.5Z"/>
          <path class="st35" d="M520.4,489.7c.3-3,.9-6.2.7-9.2-.5-7.2-2.9-13.9-5.1-20.9-.5-1.7-1.1-3.2-1.9-4.7-.4-.8-1.3-3.7-2-4.1-.6-.3-1.1,0-1.7.5,0,.2,1.5-1.4,2.1.3,1.4,4,4.5,10.8,6.7,20.3,1.4,6.4.8,11.9.6,19.3-.2,5.7-.7,12.6-1.1,18.5.5-2.7,1-5.5,1.2-8.3.3-3.9.2-7.8.6-11.8Z"/>
          <path class="st10" d="M510.5,512.1c0,2.1.6,4.2,1.5,6.1.8,1.9,1.5,3.8,2.3,5.5.3-.4.6-.8.9-1.1-.3-.1-.6-.5-.8-.6.3-.1.4-.4.7-.5-.2-.5-.6-.8-1.1-1.2.5-.3,1.2-.5,1.7-.8-1.1.1-2.4-1.3-2.2-2.4.3-1.3,2.4-1.7,3.2-2.5-1.1,0-2.3,1-3.3.5.5-.8,1.7-1.1,2.5-1.5-1.8-.6-3.9,1.3-3.9-1.9,0-2.7,1.8-2.7,3.9-2.8-1.1-.4-3.6-.6-2.1-1.8,1-.9,2.8-1.2,3.9-1.9-1.1-.5-4.6,2-4.6-.9,1.4-1.1,2.9-2.4,4.4-3.3-1.7,1.2-5.6,2.3-4.1-.9.9-2,2.8-4.3,4.2-5.9-1.8,1.1-4.2,4.1-6.3,4.7l-.3.5c0-.1,0-.2,0-.3-1.9,3.9-.7,8.9-.6,13.2Z"/>
          <path class="st52" d="M514.3,523.8s0,0,0,0c0,0,0,0,0,0,0,0,0,0,0,0Z"/>
          <path class="st10" d="M507.5,474.2c-.2,3.4,0,6.3.8,9.6.5,2.1,1.2,4,2,6,.3.9.3,2.3,1.2,2.9,1.5-1.6,2.8-3,4.7-4-1.7,0-3.2,2.3-3.8,1.9-.5-.3.1-3.2.2-3.8.2-1.8.6-2.7,2-3.9,1.1-1,2.4-1.9,3.6-2.8-1.6.6-3.7,2-5.7,1.9-.2-.7.3-1.2.8-1.6-2.9.3,1.1-3.2,1.8-3.8-1,.5-2.3,1.8-3.8,1.8-.4-1.2-.5-4.9,0-6,.7-1.4,3.8-2.6,5.2-2.9-1.4-.7-4.9,2-4.8.3,0-.9,3.9-3.4,4.7-3.7-2,0-3.7,2.8-5.1,2.5,0-2.9,2.2-5.2,2.5-8-.9,1.4-1.5,4.5-3.1,5.3l-.3.2c-3.3,1.2-2.6,5-2.9,8.2Z"/>
          <path class="st16" d="M515.6,527.3c0,0-.1,0-.2-.1h.2Z"/>
          <path class="st16" d="M512.8,508c-.9-7.5-1.3-15.2-1.1-22.9.1-6.6-.1-12.9-.7-19.4-.5-5-.7-10.2.5-15.1-2,.4-4.1,6.1-4.6,7.5-3.2,8.1-3.9,16-3.9,24.5,0,8.2,1.1,16.9,3.4,24.9,1.1,3.7,2,7.3,4.2,10.6,1.7,2.7,2.4,7.1,5,9,0,0,0,0,0-.1-2.3-5.9-2.5-12.8-2.7-19Z"/>
          <path class="st14" d="M511.7,477.3c0,1.5,0,2.9,0,4.4,0-1.5,0-2.9,0-4.4Z"/>
          <path class="st47" d="M509.8,452c-1.4,1.9-2.6,5.1-3,6.1-3.2,8.1-3.9,16-3.9,24.5,0,8.2,1.1,16.9,3.4,24.9,1,3.2,1.8,6.3,3.4,9.3-3.1-8-4.6-17-5.3-25.6-1-13.4-1.2-27.3,5.4-39.2Z"/>
          <path class="st31" d="M507.9,510.6c.5.3,4.5,3.1,4.5,3.8,0,2.5-1.3,4,.5,6.9,1,1.6,1.6,3.3,1.9,5.2.2.3.5.5.8.7h-.2c0-.2,0-.2,0-.3-2.3-5.9-2.5-12.8-2.7-19-.9-7.5-1.3-15.2-1.1-22.9.1-6.6-.1-12.9-.7-19.4-.5-5-.7-10.2.5-15.1-.6.1-1.2.7-1.7,1.5,0,.4.1.9,0,1.5-.3,2-.6,8.3.3,10.2,1,2,.3,2.2-2.4,1,.5.6.9,1.2,1.2,2,.8,1.7,2.7,4.1,1.3,5.4-.6.5-2.5-1.1-3.6-.8-1.6.5,4.1,1.6,3.8,2.8,0,0,1.1,5.5.2,6.2-1.4.9-3.8-2.9-3.8-2.9-1.8,1.4,3.7,6.1,4.1,7.4,1.3,4.5-2.2.5-6.2,0,1.4,1.3,4.6,1.8,5.9,3.2,1.1,1.3.2,3-3.9,1.8l4,2.3c.3,1.8-3,.2-4.9-.2,6.1,3.8,5.1,5.5,5.1,4.7,0,1.9-3.7.3-3.4.6.3.3,3.3,1.5,3.6,1.8,1.2,1.2.2,4.4.3,6.2.1,1.9-2.1,1-3.8,0,.6,1.2,3.4,2,3.8,2.4,0,0,.6,2.1-1.7,1.6-1.1-.3,2.6,1.7,2.2,2.7-.1.3-3.9-1.4-4.1-1.1Z"/>
        </g>
        <path class="st33" d="M514.4,520.2c-1.4-2.1-1.7-8.2-2-11.4-.3-3.2-.6-16.4-.5-19.9.1-3.5-.8-21.6-.8-21.6-.3,4.1-.3,17.6-.6,27-.3,9.3,2.1,21.4,2.2,24.7,0,.5.2,1.1.4,1.6.5,1.6,1.6,4.8,2,5.3.8.5.6-.9,1.5-.7-.7-.7-1.4-3.7-2.2-4.9Z"/>
      </g>
      <path class="st26" d="M515.6,521.3s0-.1,0-.2c-.3,1.1-.7,2-1.5,2.8,0,1.3-.1,2.4-.1,2.8.6.8.9-.5,1.7,0-.3-.9.2-3.9,0-5.4Z"/>
      <g>
        <path class="st29" d="M516.9,537.5c0,0,0-.2,0-.2h0s0,.2,0,.2Z"/>
        <path class="st29" d="M520.8,533.1c2-1.6,3.4-3.7,5-5.7,3.7-4.8,7.9-9,11.5-14,2.7-3.8,5.1-7.9,7.9-11.8,2.1-3,4.8-5.9,6.4-9.2,3.9-7.8,5.6-16.2,7.6-24.8.5-2,.8-4,1-6,0-1.1,1-4.7.5-5.5-.6-1-2.2-.7-3.9.2-4.2,8.2-8.8,16.2-13,24.5-3.1,6.1-6.6,12.2-11.5,17-3.5,6.2-6.2,12.5-9,19.2-1.6,3.8-3.3,7.5-4.4,11.5-.6,2.3-1.4,4.5-2.6,6.5,0,.8.2,1.6.5,2.4.4-.2.8-1.5,1.4-2.2.7-.8,1.8-1.3,2.6-2Z"/>
        <path class="st58" d="M551.5,492.4c3.9-7.8,5.6-16.2,7.6-24.8.5-2,.8-4,1-6,0-1.1,1-4.7.5-5.5-.4-.7-1.1-.7-2.1-.5,0,.2,2.4-.5,2,1.6-1,5-2,14-5.6,25.2-2.4,7.5-6.5,12.9-11.3,20.4-3.8,5.8-8.5,12.6-12.6,18.5,2.2-2.5,4.4-5.1,6.3-7.8,2.7-3.8,5.1-7.9,7.9-11.8,2.1-3,4.8-5.9,6.4-9.2Z"/>
        <path class="st53" d="M530.1,505.4l-.5.4c0-.1,0-.3.1-.4-4.4,2.9-6.2,8.8-8.8,13.3-1.3,2.3-2,4.7-2.3,7.3-.3,2.4-.8,4.8-1,7.2.5-.2,1.1-.4,1.6-.6-.2-.3-.3-.9-.5-1.1.3,0,.7-.2,1.1,0,0-.6-.2-1.3-.4-1.9.7,0,1.5.2,2.2.3-1.2-.6-1.7-2.8-.7-3.9,1.1-1.2,3.5-.3,4.9-.7-1.2-.7-3-.4-3.7-1.6,1-.5,2.5,0,3.5,0-1.6-1.7-4.8-1.1-2.8-4.4,1.7-2.8,3.5-1.7,5.8-.6-.8-1.1-3.4-2.8-1.1-3.2,1.6-.3,3.6.5,5.2.4-.8-1.2-6-.8-4.2-3.8,2.1-.3,4.4-.7,6.6-.7-2.5.2-7.2-1.1-3.8-3.5,2.2-1.5,5.5-2.7,8-3.5-2.5,0-6.9,1.7-9.4,1Z"/>
        <path class="st40" d="M517.6,533.1s0,0,0,0c0,0,0,0,0,0,0,0,0,0,0,0Z"/>
        <path class="st53" d="M549.3,470.8c-4.1-.8-5.8,3.6-8,6.8-2.3,3.3-3.9,6.5-5.1,10.4-.8,2.5-1.2,4.9-1.7,7.4-.2,1.2-1.2,2.6-.5,3.7,2.6-.7,4.8-1.4,7.3-1.3-1.8-1.2-4.7.4-5.1-.4-.4-.6,2.1-3.2,2.6-3.8,1.3-1.7,2.3-2.4,4.5-2.8,1.8-.3,3.7-.5,5.5-.7-2-.4-5.1-.2-7.1-1.5.2-.9,1.1-1,1.9-1.2-3.2-1.4,3.1-2.6,4.2-2.9-1.4,0-3.5.4-5.1-.5.3-1.4,2.5-5.4,3.8-6.2,1.6-1,5.5-.3,7.2.2-1-1.6-6.3-1-5.2-2.7.6-.9,6.2-1.1,7.1-.9-2.1-1.3-5.6.6-6.8-.6,1.8-2.9,5.4-4,7.5-6.8-1.9.9-4.4,3.8-6.5,3.6h-.5Z"/>
        <path class="st49" d="M516.9,537.5c0,0,0-.2,0-.2h0s0,.2,0,.2Z"/>
        <path class="st49" d="M525.9,515.8c3.7-8.4,8-16.5,13-24.3,4.2-6.7,7.8-13.4,11.2-20.6,2.6-5.5,5.6-10.9,9.8-15.3-2.3-.8-7.9,3.7-9.4,4.9-8.3,6.4-13.9,14.2-19.2,23-5.1,8.5-9.4,18.1-11.9,27.9-1.2,4.6-2.4,8.8-2.3,13.5.1,3.8-1.9,8.9-.4,12.4,0,0,0,0,.1-.1,1.3-7.6,5.3-14.9,9-21.4Z"/>
        <path class="st21" d="M543.6,483.4c-.9,1.5-1.8,3-2.6,4.5.9-1.5,1.8-3,2.6-4.5Z"/>
        <path class="st20" d="M550.5,460.4c-8.3,6.4-13.9,14.2-19.2,23-5.1,8.5-9.4,18.1-11.9,27.9-1,3.9-2,7.6-2.2,11.7,1.7-10.2,5.7-20.5,10.3-29.7,7.2-14.5,15.6-29,29.8-37.3-2.6,1.1-5.8,3.6-6.8,4.4Z"/>
        <path class="st9" d="M516.9,537.5c0,0,0-.2,0-.2h0s0,.2,0,.2Z"/>
        <path class="st9" d="M521.5,522.3c-1.5,2.6-3.8,3.4-3.8,7.5,0,2.3-.4,4.4-1.3,6.5,0,.4.2.7.3,1,0,0,0,0,.1-.1,1.3-7.6,5.3-14.9,9-21.4,3.7-8.4,8-16.5,13-24.3,4.2-6.7,7.8-13.4,11.3-20.6,2.6-5.5,5.6-10.9,9.8-15.3-.7-.2-1.6,0-2.7.5-.2.5-.5,1-.9,1.5-1.6,1.9-5.8,8.3-6,10.7-.2,2.6-1,2.5-3.1-.4.1.9-.2,3.7-.3,4.8-.2,2.2.6,4-1.6,4.5-.9.2-1.9-2.7-3.2-3-1.9-.5,3.3,4.2,2.1,5.2,0,0-2.3,6.4-3.6,6.5-2,.1-2.2-5.4-2.2-5.4-2.7.3.1,8.6-.3,10.2-1.4,5.5-2.6-.9-6.3-3.9.7,2.2,3.7,4.7,4.1,7,.4,2.1-1.7,3.2-5.2-.6l2.8,4.8c-.8,2-3.3-1.6-5-3.3,4,7.7,1.9,8.9,2.4,8.1-1.2,2-4-1.9-3.8-1.5.1.4,2.5,3.7,2.6,4.1.5,2-2.5,4.7-3.4,6.6-1,2.1-2.7-.3-3.9-2.3-.1,1.6,2.3,4.2,2.5,4.8,0,0-.7,2.6-2.7.6-.9-.9,1.6,3.3.7,4.2-.3.3-3.2-3.8-3.6-3.7.3.6,2.7,6,2.3,6.7Z"/>
      </g>
      <g>
        <path class="st29" d="M494.8,520.5c-3-3.7-5.4-7.9-7.7-12.1-4.3-8.2-9.1-16.1-13.5-24.2-2.5-3.7-3.3-2.3-3.9-.1-.3,1,.5,4.5.6,5.5.2,2,.6,4,1.1,6,2.2,8.5,4.1,16.9,8.2,24.6,1.7,3.2,4.4,6.1,6.6,9,2.8,3.8,5.3,7.9,8.1,11.6,3.6,4.9,7.9,9.1,11.8,13.7,1.7,2,3.1,4,5.1,5.6.8.6,1.9,1.1,2.6,1.9.2.2.3.5.5.7.1-.4.3-.9.4-1.3-3-5.1-5.1-10.6-7.3-16-2.3-5.8-5.1-11.2-8.1-16.7-1.5-2.8-3-5.5-4.5-8.3Z"/>
        <path class="st58" d="M476.1,510.1c-3.9-11.1-5.6-20-6.2-25.1-.2-2,.6-3,1.5-3.2-1-.2-1.8.9-1.8,2.4,0,1,.7,4.2.7,5.2.2,2,.6,4,1.1,6,2.2,8.5,4.1,16.9,8.2,24.6,1.7,3.2,4.4,6.1,6.6,9,2.8,3.8,5.3,7.9,8.1,11.6,2,2.7,4.3,5.2,6.5,7.7-4.2-5.8-9.1-12.5-13-18.2-5-7.4-9.2-12.7-11.8-20.1Z"/>
        <path class="st53" d="M506,552.3c1.4.3,3.7-.6,4.9.5,0,0,0,0,0,0-.5-1.5-2.1-3.9-2.5-5.4-.5.9-1.2,2-2.2,3.1,1,0,2.5-.5,3.5,0-.7,1.2-2.5.9-3.7,1.7Z"/>
        <path class="st53" d="M501.2,533.3c-.1-.2-.2-.4-.3-.6-2.5.5-6.6-.9-9-.9,2.5.8,5.9,1.9,8.1,3.3,3.5,2.3-1.2,3.7-3.7,3.5,2.2,0,4.5.3,6.6.5,1.9,2.9-3.3,2.6-4.1,3.9,1.6,0,3.6-.8,5.2-.5,2.4.4-.2,2.1-1,3.2,1.8-.9,3.3-.5,4.7.4-2.1-3.9-4.4-9.1-6.6-13Z"/>
        <path class="st40" d="M514.4,560.1s0,0,0,0h0c0,0,0,0,0,0Z"/>
        <path class="st53" d="M489.9,525.4c2.6-.1,6.8,2.7,9.4,3.4,0,0-5.6-10.9-10.1-17.9-3.9-6.1-5.8-9.3-7.8-12.9,0,0-3.5-.5-7.1-3,2.1,2.8,5.8,3.7,7.6,6.6-1.2,1.3-4.7-.6-6.8.8,1-.1,6.5-.1,7.1.8,1.1,1.7-4.2,1.1-5.2,2.8,1.7-.6,5.6-1.3,7.2-.4,1.3.8,3.5,4.7,3.9,6.1-1.5.9-3.7.5-5,.6,1.1.2,7.5,1.2,4.3,2.8.8,0,1.7.2,1.9,1.1-2,1.4-5.1,1.2-7.1,1.7,1.8.2,3.7.3,5.5.6,2.2.3,3.2,1.1,4.6,2.7.5.6,3,3.1,2.6,3.8-.4.8-3.4-.7-5.1.6Z"/>
        <path class="st34" d="M498.5,529c2.3,3.6,9.1,18.6,10.8,22.1,1.7,3.5,3.6,8.3,4.8,11.2,1.4,3.4,4.6,5.5,5.9,9.4.3,1,1.4,1.3.9-1.8-.6-3.1-4.5-5.9-5.8-8.1-1.3-2.3-9-20.3-16-33.7-5.2-10-11.4-20.2-14.2-24.2,0,0,11.4,21.6,13.7,25.2Z"/>
      </g>
      <path class="st33" d="M525.6,517.2c-1.8,3.4-6,11.2-7.2,14.1-.8,1.9-1.2,3.9-1.6,5,.7,2.9.9,5.6,1,8.2.1,3.4.7,6.6,1,9.8.3,3.4,1.1,6.7,1.8,10,.6,2.8.4,5.5.6,8.2,2,11.8,3.7,26.1,4.6,37.8.4,6,1,12.2,2.4,17.9.4,1.5.7,3,1.1,4.4-1.4-.1-2.8,0-4.2,0-1.1-5.7-2.3-12-2.5-15.3-.5-7.1-1.6-21.5-3.3-34-.2-1.7-1.9-9.6-1.6-12.2-.3-2.1-.3-4.5-.4-5.5-.6-6.6-2.3-13.2-2.5-19.8,0-1.8,0-4.5-.2-6.7,0-3-.2-5.9-1.1-8.8,0-.7,0-1.5,0-2.4,0-2.4.3-3.3,2.9-4.8,3.4-2,3.1-.2,1.5,2.5-.9,1.5-1.6,3-1.8,4.6-.1,1.1.5,1.2.7.7,0,0,1.3-1.4,1.9-2.3,2.8-4.2,12-26,18.5-35.2,7.4-10.4,10.2-20,14.2-25.4,0,0-8.8,19-13.4,25.2-2.9,4-9.3,17.7-12.4,23.8Z"/>
      <path class="st34" d="M526.6,632.6c-.5,0-1,0-1.5.1-1.1-5.8-2.3-12.1-2.5-15.3-.5-7.1-1.6-21.5-3.3-34-.2-1.7-1.9-9.6-1.6-12.2-.3-2.1-.3-4.5-.4-5.5-.6-6.6-2.3-13.2-2.5-19.8,0-1.8,0-4.4-.2-6.7,0-3-.2-5.9-1.1-8.8,0-.7,0-1.5,0-2.4.1-2.4.4-3.3,2.9-4.8,1-.6,1.6-.8,2.1-.8-.2.2-.4.3-.6.5-4,4.1-3.1,10.2-2.4,15.4,1.2,8.7.9,17.6,2.3,26.3,1.3,7.9,2.5,15.9,3.7,23.8.6,3.9,1.3,7.8,1.3,11.8,0,2.2.2,4.2.8,6,.2,7.2,1.1,14.6,2.3,21.7,0,.6,0,1.3.3,1.9.2,1,.4,2,.5,2.9Z"/>
    </g>
    <g>
      <path class="st48" d="M537.8,548.6c-3.2-3.5-5-3.2-8.3-3.2-1.5,0-2.9.3-4.3.5-1.1.2-2.7.2-3.8.8-2.8-.2-4.5.2-6.6,2.4-1.7,1.9-2.6,4.1-3.3,6.5-1.4,4.6-.4,10.9,1.3,15.3,1.9,4.7,5.4,9.4,10.7,11.4,14.7,5.6,21.3-10.9,21.1-17.4-.2-9-4.3-13.5-6.9-16.3Z"/>
      <path class="st57" d="M519.5,576.3c-2.5-.5-4.5-2-6.1-4,2,4.2,5.3,8.3,10.1,10.1,14.7,5.6,21.3-10.9,21.1-17.5-.2-7.7-3.2-12.1-5.7-14.9.7,5.5-2.2,12.2-4.6,16.1-3.1,5.1-8.1,11.6-14.9,10.2Z"/>
      <path class="st24" d="M515.7,576.2c1.9,2.7,4.5,4.9,7.8,6.2,14.7,5.6,21.3-10.9,21.1-17.4-.2-9-4.3-13.5-6.9-16.3-2.3-2.5-3.8-3-5.7-3.2,1.3,1.4,2.4,2.9,3.3,4.4,4.9,8.3,2.6,18.5-4.2,26.5-3.6,4.3-9.8,4.9-15.5-.2Z"/>
      <path class="st50" d="M527.2,583.2c-.2,0-.4,0-.6,0,12.5,2.3,18.2-12.2,18-18.3-.2-9-4.3-13.5-6.9-16.3-3.2-3.5-5-3.2-8.3-3.2-1.5,0-2.9.3-4.3.5,0,0-.1,0-.2,0,5.1.7,10,2.5,13.3,6.8.7.9,1.2,1.9,1.7,2.9,2.9,5.4,3.2,12.5.4,17.9-2.5,4.9-7.4,10.8-13.2,9.6Z"/>
      <path class="st39" d="M544.6,564.9c-.2-9-4.3-13.5-6.9-16.3-2.8-3-4.5-3.2-7.1-3.2.8.2,1.6.6,2.3,1,8.2,2.3,11.1,14.2,10.2,21.7-.9,6.5-4.5,10.9-9.1,14.5,7.4-3.1,10.7-12.9,10.6-17.6Z"/>
      <path class="st28" d="M522.9,559.9c1.7-2.6,3.6-4.7,4.6-7.6,1-2.7-2.2-5.5-5.3-4.4-2.9.8-4.9.8-6.5,3.9-1.5,2.8-2.3,5.4-2.5,8.6-.2,5.6,1.2,12.5,5.9,15.9,1.3.9,2.5-1.1,1.8-3.8-.9-3.2-2.3-6.1,1.9-12.6Z"/>
      <path class="st55" d="M511.8,563.9c-.5-4.2.1-10.2,2.5-14.3-1.4,1.8-2.1,3.8-2.8,5.9-1.4,4.6-.4,10.9,1.3,15.3,1.7,4.3,4.8,8.6,9.3,10.8-.2-.1-.5-.3-.7-.5-5.4-4-8.9-10.8-9.7-17.3Z"/>
      <path class="st4" d="M528.5,546.3c-1.5-.2-2.2.9-3.4,1.4-1.1.4-2.5.6-3.6.4-1.2-.2-2.4-1.2-3.7-.6-.3.2-2,1.3-1.7,2.1,1.2,2.5,3.7,4.2,6.9,4.1,2.2,0,6.5-2.4,7.2-4.6.5-1.5-.2-2.6-1.7-2.8Z"/>
      <path class="st24" d="M520.1,548.1c-.6.5.1,1.2.7,1.3,1.4,0,4.4-.3,4.8-1.8,0-.8-4.8-.1-5.5.5Z"/>
      <path class="st41" d="M521,548.5h-.1c0-.1,0,0,0,0,0,0,0,0,0,0Z"/>
      <path class="st41" d="M521,548.4s0,0,0,0h0s0,0,0,0Z"/>
      <path class="st37" d="M522.6,549.2c.6,0,1.6,0,1.9-.6.6-.9-1.2-.6-1.6-.5-.5.2-.4,0-1,0-.2,0-.7,0-.9,0-.2,0-.2.2-.2.3h.1c0,.1,0,0,0,0,.1.8,1,.8,1.7.7Z"/>
      <path class="st33" d="M517.9,532.8c-.2-.2-.4-.4-.5-.5-.9-1.2-1.8.5-2.1,1.1.4,1.6.7,4.5,2.9,7.6,1.1,1.6,2.2,3.1,2.8,4.9.2.8.1,2.4.6,3.2,0,.1.7,0,1.5,0,.5,0,1.1,0,1.2-.3,1.4-1.8-4.1-8-4.8-9.4-1.1-2.2-1.5-4.4-1.5-6.7Z"/>
      <path class="st34" d="M517.9,532.8c-.2-.2-.5-.4-.7-.7,0,0,0,0,0,0,0,.2,0,.5,0,.7,0,.8,0,1.6,0,2.3.3,4,3.7,6.9,5.1,10.5.4,1.2.7,2.3.8,3.5.5,0,1,0,1.1-.3,1.4-1.8-4.1-8-4.8-9.4-1.1-2.2-1.5-4.4-1.5-6.7Z"/>
      <path class="st6" d="M514.9,554.6l.7-.7c-.3.1-.5.4-.7.6,0,0,0,0,0,0Z"/>
      <path class="st5" d="M518.7,552.2c-1-.7-.9-1-2.2-.2-.7.5-1.7,1.7-1.6,2.5.2-.2.4-.5.7-.6l-.7.7s0,0,0,0c-1.9,2.2-1.6,8.1-1,10.3.6,2.2,2.1,5.8,3.9,7.3,1-1.1,0-3-.2-4.3-.2-1.9-.2-3.8-.5-5.6-.4-2.4-.4-4.4,1.4-6.1,2-1.9,2.7-2,.1-3.9Z"/>
      <path class="st3" d="M520.8,553.5c1.1-.7,1.1-1.7,0-2.4-1-.6-1.8,0-2.8,0-1.4.9-2.4.3-2.9,2.1-.3,1-.2,2.5,0,3.5.7-.9,1.3-2,2.3-2.6,1.1-.7,2.5-.1,3.4-.8Z"/>
      <path class="st23" d="M524.7,580s0,0,0,0c0,0,0,0,0,0Z"/>
      <path class="st23" d="M524.8,580c.4.4,2.4,3,6.6,1.6,2.9-.9,7.7-7.5,8.9-10.3,2.5-6,.9-12.7-2-18.6.8,5,.6,13-.9,18.2-.9,3-3.3,5.8-5.9,7.5-1.6,1.1-4.8,2.6-6.7,1.6Z"/>
    </g>
    <g>
      <g>
        <g>
          <path class="st11" d="M528.7,640.1c0,0,.1,0,.1-.1h-.1Z"/>
          <path class="st11" d="M527.5,635.3c-.8-2-1.1-4-1.5-6.1-.9-4.9-2.3-9.7-3-14.7-.5-3.8-.7-7.8-1.2-11.7-.4-3-1.2-6.2-1.2-9.2.1-7.2,2.1-14.1,4-21.2.4-1.7.9-3.3,1.6-4.8.4-.8,1.1-3.8,1.8-4.2.8-.5,1.9.3,2.8,1.7,0,7.7.2,15.3,0,23-.1,5.7.1,11.5,1.9,16.9.2,5.9-.2,11.6-.8,17.5-.3,3.4-.5,6.8-1.2,10.1-.4,2-.8,3.9-.6,5.8-.4.6-.8,1.1-1.3,1.5-.2-.3,0-1.4-.2-2.1-.2-.9-.8-1.7-1.2-2.4Z"/>
          <path class="st35" d="M521.8,602.8c-.4-3-1.2-6.2-1.2-9.2.1-7.2,2.1-14.1,4-21.2.4-1.7.9-3.3,1.6-4.8.4-.8,1.1-3.8,1.8-4.2.5-.3,1.1-.1,1.7.4,0,.2-1.6-1.3-2.1.4-1.2,4-4,11.1-5.6,20.7-1.1,6.4-.2,12,.5,19.3.5,5.7,1.3,12.6,2.1,18.5-.6-2.7-1.3-5.4-1.6-8.2-.5-3.8-.7-7.8-1.2-11.7Z"/>
          <path class="st10" d="M533,624.7c0,2.1-.4,4.2-1.1,6.2-.7,1.9-1.3,3.8-2,5.6-.3-.4-.6-.7-.9-1.1.3-.1.5-.5.8-.7-.3,0-.5-.4-.8-.5.2-.5.6-.9,1-1.2-.5-.3-1.2-.4-1.7-.7,1.1,0,2.4-1.4,2-2.6-.4-1.3-2.5-1.6-3.3-2.4,1.1,0,2.3.8,3.3.3-.5-.8-1.8-1-2.6-1.4,1.8-.7,4,1,3.8-2.1-.2-2.7-1.9-2.6-4-2.6,1-.5,3.6-.8,2-2-1.1-.8-2.9-1.1-4-1.7,1.1-.6,4.7,1.7,4.5-1.2-1.5-1-3-2.2-4.6-3.1,1.7,1.1,5.7,2,4.1-1.1-1-2-3-4.1-4.6-5.7,1.9,1,4.5,3.9,6.6,4.3l.3.5c0-.1,0-.2,0-.3,2.1,3.8,1.2,8.9,1.3,13.2Z"/>
          <path class="st52" d="M529.8,636.6h0s0,0,0,0c0,0,0,0,0,0Z"/>
          <path class="st10" d="M533.9,586.6c.4,3.3.4,6.3-.3,9.6-.4,2.2-1,4-1.7,6.1-.3.9-.2,2.4-1.1,2.9-1.6-1.5-3-2.9-4.9-3.8,1.7-.2,3.3,2.1,3.9,1.7.5-.3-.3-3.1-.4-3.8-.3-1.7-.8-2.7-2.2-3.8-1.2-.9-2.5-1.8-3.8-2.7,1.6.5,3.8,1.8,5.8,1.6.2-.7-.4-1.2-.9-1.6,2.9.2-1.2-3.1-2-3.7,1,.5,2.4,1.7,3.9,1.6.3-1.2.2-4.9-.4-6-.8-1.4-3.9-2.4-5.4-2.6,1.3-.8,5,1.7,4.9,0,0-.9-4.1-3.2-4.9-3.4,2-.2,3.9,2.6,5.3,2.2-.2-2.8-2.5-5-2.9-7.9,1,1.4,1.8,4.5,3.3,5.2l.4.2c3.3,1,2.9,4.9,3.3,8.1Z"/>
          <path class="st16" d="M528.7,640.1c0,0,.1,0,.1-.1h-.1Z"/>
          <path class="st16" d="M530.5,620.6c.5-7.6.4-15.2-.1-22.9-.5-6.6-.6-12.9-.3-19.5.2-5.1.1-10.2-1.3-15,2,.3,4.4,5.8,5,7.2,3.6,7.9,4.8,15.8,5.3,24.3.5,8.2-.1,16.9-2.1,25.1-.9,3.8-1.6,7.3-3.6,10.8-1.5,2.8-2,7.2-4.5,9.3,0,0,0,0,0-.1,2-6.1,1.8-13,1.7-19.2Z"/>
          <path class="st14" d="M529.9,590c0,1.4.2,2.9.2,4.3,0-1.5-.2-2.9-.2-4.3Z"/>
          <path class="st47" d="M530.5,564.6c1.5,1.8,2.8,4.9,3.3,5.9,3.6,7.9,4.8,15.8,5.3,24.3.5,8.2-.1,16.9-2.1,25.1-.8,3.3-1.4,6.4-2.9,9.4,2.7-8.1,3.7-17.3,3.9-25.8.3-13.4-.3-27.3-7.5-38.9Z"/>
          <path class="st31" d="M535.5,623c-.5.3-4.3,3.4-4.3,4.1,0,2.5,1.5,4-.1,7-.9,1.7-1.4,3.4-1.6,5.2-.2.3-.5.5-.8.8h.2c0-.2,0-.2,0-.3,2-6.1,1.8-13,1.7-19.2.5-7.6.4-15.2-.1-22.9-.5-6.6-.6-12.9-.3-19.5.2-5.1.1-10.2-1.3-15,.6,0,1.2.6,1.8,1.4,0,.4,0,.9,0,1.5.4,2,1,8.3.2,10.2-.9,2-.2,2.3,2.5.9-.5.6-.8,1.2-1.1,2-.7,1.7-2.5,4.3-1,5.5.6.5,2.4-1.2,3.6-.9,1.6.4-4.1,1.8-3.6,3,0,0-.8,5.6.1,6.2,1.4.9,3.7-3.1,3.7-3.1,1.8,1.3-3.4,6.3-3.7,7.6-1.1,4.6,2.2.4,6.2-.4-1.3,1.4-4.5,2-5.7,3.5-1.1,1.4,0,3,4,1.6l-3.9,2.5c-.2,1.8,3.1,0,4.9-.5-5.9,4.1-4.8,5.8-4.9,5,.2,1.9,3.7.1,3.4.4-.3.3-3.3,1.7-3.5,2-1.1,1.3,0,4.4,0,6.2,0,2,2.1.9,3.7-.2-.5,1.2-3.3,2.2-3.7,2.6,0,0-.5,2.2,1.8,1.5,1.1-.3-2.5,1.8-2.1,2.8.1.3,3.8-1.6,4.1-1.3Z"/>
        </g>
        <path class="st33" d="M529.5,633c1.3-2.2,1.2-8.3,1.3-11.5.1-3.2-.3-16.4-.6-19.9-.3-3.5-.4-21.7-.4-21.7.6,4.1,1.2,17.6,2.1,26.9.8,9.3-1,21.5-.9,24.7,0,.5-.1,1.1-.3,1.6-.4,1.7-1.3,4.8-1.7,5.4-.8.5-.6-.8-1.5-.6.6-.8,1.2-3.7,2-5Z"/>
      </g>
      <g>
        <g>
          <path class="st29" d="M567,689c-1.7,8.6-3.1,17.1-6.8,25-1.5,3.3-4.1,6.3-6.1,9.4-2.6,3.9-4.9,8.2-7.4,12.1-3.3,5.1-7.4,9.5-10.9,14.4-1.5,2.1-2.9,4.2-4.8,5.9-.8.7-1.9,1.2-2.5,2.1-.6.7-.9,2-1.3,2.2-.4-.8-.5-1.4-.6-2.3,1.2-2,1.8-4.3,2.4-6.6,1-4,2.6-7.8,4-11.6,2.5-6.8,5-13.2,8.3-19.5,4.8-4.9,8.1-11.1,10.9-17.4,3.8-8.4,8.1-16.6,12.1-25,1.7-.9,3.3-1.3,3.9-.3.5.8-.2,4.5-.3,5.6,0,2-.4,4-.8,6.1Z"/>
          <path class="st58" d="M565.9,676.9c.9-.3,1.7-.2,2.1.4.5.8-.2,4.5-.3,5.6,0,2-.4,4-.8,6.1-1.7,8.6-3.1,17.1-6.8,25-1.5,3.3-4.1,6.3-6.1,9.4-2.6,3.9-4.9,8.2-7.4,12.1-1.9,2.8-3.9,5.4-6,8.1,3.9-6,8.4-13,11.9-19,4.6-7.7,8.5-13.2,10.6-20.7,3.2-11.3,3.9-20.4,4.7-25.4.4-2.1-2-1.3-2-1.5Z"/>
          <path class="st53" d="M548.6,726.4c-2.5.9-5.8,2.2-7.9,3.8-3.3,2.5,1.4,3.6,3.9,3.3-2.2,0-4.5.5-6.6.9-1.7,3,3.4,2.5,4.3,3.6-1.6.1-3.7-.6-5.2-.2-2.3.5.3,2.1,1.2,3.2-2.3-1-4.2-2.1-5.8.8-1.9,3.3,1.4,2.6,3,4.2-1,0-2.5-.4-3.5.2.8,1.1,2.6.8,3.8,1.5-1.4.4-3.8-.4-4.8.8-1,1.1-.4,3.3.9,3.8-.7,0-1.5-.3-2.2-.2.2.6.5,1.2.4,1.9-.4,0-.7.1-1.1.1.2.3.3.8.5,1.1-.5.2-1.1.4-1.6.7.1-2.4.5-4.8.7-7.2.2-2.6.8-5.1,2-7.4,2.4-4.6,4-10.6,8.3-13.6,0,0-.1.2-.1.4l.5-.4c2.5.6,6.8-1.2,9.4-1.3Z"/>
          <path class="st40" d="M527.8,755.9s0,0,0,0h0q0,0,0,0Z"/>
          <path class="st53" d="M550.2,719.8c-2.5,0-4.7.7-7.3,1.5-.7-1.1.2-2.6.4-3.8.4-2.6.7-5,1.4-7.5,1.1-4,2.6-7.2,4.8-10.6,2.1-3.3,3.7-7.7,7.8-7h.5c2.1,0,4.5-2.9,6.3-3.9-2,2.9-5.5,4.1-7.3,7,1.3,1.2,4.7-.8,6.9.4-1,0-6.5.3-7.1,1.2-1,1.7,4.3.9,5.3,2.5-1.8-.5-5.7-1-7.2,0-1.3.8-3.3,4.9-3.6,6.3,1.6.8,3.7.2,5.1.3-1.1.2-7.4,1.7-4.1,3-.8.1-1.6.3-1.8,1.2,2.1,1.3,5.1.9,7.2,1.3-1.8.3-3.7.5-5.5.9-2.2.5-3.1,1.2-4.4,3-.5.6-2.8,3.3-2.4,3.9.5.8,3.3-.8,5.1.3Z"/>
          <path class="st49" d="M547.5,713.5c-4.7,8-8.7,16.3-12.1,24.8-3.4,6.7-7.2,14.1-8.2,21.7,0,0,0,0-.1.1-1.8-3.5.2-8.6,0-12.5-.3-4.8.7-9,1.8-13.6,2.2-9.8,6.1-19.6,10.9-28.3,5-9,10.3-16.9,18.4-23.6,1.4-1.2,7-5.9,9.2-5.2-4.1,4.6-6.8,10.1-9.2,15.7-3.2,7.3-6.5,14.1-10.5,21Z"/>
          <path class="st21" d="M552,705.3c-.8,1.5-1.6,3.1-2.5,4.6.8-1.6,1.6-3.1,2.5-4.6Z"/>
          <path class="st20" d="M527,745.7c0-4,.9-7.7,1.8-11.7,2.2-9.8,6.1-19.6,10.9-28.3,5-9,10.3-16.9,18.4-23.6,1-.9,4.1-3.5,6.7-4.7-13.9,8.8-21.8,23.6-28.5,38.3-4.3,9.4-7.9,19.8-9.3,30Z"/>
          <path class="st9" d="M558.2,689.9c.1-2.5,4.1-9,5.6-10.9.4-.5.7-1,.8-1.5,1.1-.5,2-.8,2.7-.6-4.1,4.5-6.8,10.1-9.2,15.7-3.2,7.3-6.5,14.1-10.5,21-4.7,8-8.7,16.3-12.1,24.8-3.4,6.7-7.2,14.1-8.2,21.7,0,0,0,0-.1.1-.2-.4-.3-.6-.4-1,.7-2.1,1.1-4.3,1-6.5-.2-4.1,2.1-4.9,3.5-7.6.4-.7-2.2-6.1-2.5-6.7.4-.1,3.4,3.8,3.7,3.6.9-.9-1.8-5-.8-4.1,2.1,2,2.7-.7,2.7-.7-.2-.6-2.7-3.1-2.6-4.7,1.3,2,3,4.3,4,2.1.9-1.9,3.7-4.8,3.2-6.7-.1-.5-2.6-3.6-2.8-4-.2-.4,2.7,3.3,3.9,1.3-.5.8,1.6-.4-2.7-8,1.7,1.6,4.3,5.1,5.1,3.1l-2.9-4.7c3.6,3.6,5.6,2.5,5.2.4-.5-2.2-3.6-4.6-4.3-6.8,3.9,2.9,5.2,9.2,6.5,3.7.3-1.5-2.7-9.8,0-10.2,0,0,.4,5.5,2.3,5.3,1.3-.1,3.4-6.6,3.4-6.6,1.1-1.1-4.2-5.6-2.3-5.2,1.3.3,2.5,3.1,3.4,2.9,2.2-.6,1.6-4.3,1.8-6.5,0-1,0-1.9-.2-2.8,2.2,2.9,3,2.9,3.2.3Z"/>
        </g>
        <path class="st33" d="M528.2,758c-1.3,3.5-5.9,7.1-7,11.1-.3,1-1.4-.4.2-5.4,1.4-2.6,3.4-1.6,5.8-6.1,2-3.8,5.8-17.8,11.3-27.6,5.5-9.8,12.9-24.4,15.5-28.6,0,0-9,20-11.1,23.6-2,3.7-9,18-10.5,21.6-1.5,3.6-3.1,8.5-4.2,11.4Z"/>
      </g>
      <g>
        <path class="st1" d="M511,684c-.7-3.1-1.3-6.2-2-9.3-.1-4.8-1-9.6-2.1-14.2-2.1-9-3.6-18.1-5.5-27.2-.5-4.4,1-3.9,2.9-2.6.8.6,2.6,3.7,3.2,4.6,1.2,1.7,2.1,3.4,3.1,5.3,3.9,7.9,7.9,15.5,9.8,24,.8,3.6.6,7.5.8,11.1.3,4.7,1.1,9.5,1.4,14.1.4,6.1-.1,12.1,0,18.1,0,2.6.2,5.1-.2,7.6-.2,1-.8,2.1-.8,3.2s0,.6.1.9c-.4-.3-.7-.5-1.1-.7-1.1-5.8-3-11.4-4.9-16.9-2-5.9-3.4-11.9-4.7-18Z"/>
        <path class="st8" d="M504.6,630.8c.7.7,2.2,3.6,2.8,4.5,1.2,1.7,2.1,3.4,3.1,5.3,3.9,7.9,7.9,15.5,9.8,24,.8,3.6.6,7.5.8,11.1.3,4.7,1.1,9.5,1.4,14.1.2,3.4.2,6.7,0,10.1-.5-7.2-1.2-15.4-2-22.3-1-8.9-1.3-15.6-4.1-22.9-4.3-10.9-8.8-18.9-11.6-23.1-1.2-1.7-2.5-1.8-3.2-1.5.6-.8,1.9-.5,2.9.7Z"/>
        <path class="st17" d="M517.9,709.8s0,0,0,.1c-.6-1.5-1-4.3-1.6-5.7,1,.4,2.2.7,3.7.9-.8.6-2.3,1.2-2.7,2.2,1.3.4,2.5-.9,3.9-1.1-.9,1.1-3.2,2-3.3,3.6Z"/>
        <path class="st42" d="M520.7,694.6c-1.2,1-3.3,1.8-4.3,3-1.5,1.8,1.5,1.5,2.8,1.8-1.9.5-2.8,1.8-3.3,3.3-.9-4.4-2.6-9.8-3.4-14.1,0-.2,0-.4-.1-.6,2.2-1.3,4.4-5,6.3-6.5-1.4,2.2-3.3,5.2-4,7.8-1.1,4,3.3,2,5.1.3-1.7,1.4-3.2,3.1-4.7,4.7.5,3.5,4.2-.1,5.6.3Z"/>
        <path class="st17" d="M520,717.6c0,0,0,0,0,0,0,0,0,0,0,0,0,0,0,0,0,0Z"/>
        <path class="st42" d="M515.9,675.3c-2,1.5-3.4,6.5-4.9,8.7,0,0-2.9-12-4-20.2-1-7.1-1.7-10.8-2.5-14.9,0,0,2.3-2.7,3.5-6.9.2,3.5-2,6.6-1.5,10,1.8.2,3.2-3.5,5.7-3.9-.8.5-5,4.2-4.9,5.2.2,2,4-1.9,5.7-1.3-1.7.7-5.1,2.6-5.7,4.4-.5,1.5.3,5.9,1,7.2,1.8-.3,3.1-2.1,4.2-2.8-.7.9-4.9,5.8-1.5,4.9-.5.6-1.1,1.2-.7,2.1,2.4-.2,4.7-2.4,6.5-3.3-1.3,1.3-2.6,2.7-3.8,4-1.5,1.7-1.7,2.9-1.7,5,0,.8-.2,4.3.4,4.6.9.3,2.2-2.7,4.3-2.9Z"/>
        <path class="st33" d="M520.5,719.3c-.5-2.6-6.4-21.2-9.8-36-2.5-11-4.5-22.7-4.9-27.7,0,0,5.4,23.9,6,28,.6,4.2,5.2,20,6.2,23.8,1,3.7,2.6,8.7,3.6,11.6,1.1,3.5,0,7.2,1.6,11,.4.9,0,4.4-1.5,1.7-1.6-2.7-.7-9.9-1.2-12.5Z"/>
      </g>
      <g>
        <g>
          <path class="st11" d="M509.1,769.7c1.7,5.6,2.7,11.2,3.7,17.2.6,3.4,1.3,6.7,1.4,10.1.1,2,.3,3.9.9,5.8-.2.7-.5,1.4-1,2v-.2c-.2-.3-.3-1.3-.6-2-.4-.8-1.2-1.4-1.7-2.1-1.3-1.7-2.1-3.6-3-5.6-2.1-4.5-4.8-8.8-6.7-13.4-1.5-3.6-2.7-7.4-4.2-11-1.2-2.8-2.8-5.7-3.5-8.6-1.7-7-1.6-14.2-1.6-21.5,0-1.7,0-3.4.3-5.1.1-.9,0-4,.6-4.6.7-.7,1.9-.1,3.1.9,1.9,7.4,4.1,14.8,5.9,22.2,1.4,5.5,3.1,11.1,6.2,15.8Z"/>
          <path class="st35" d="M493.7,731.7c-.1,4.2-1,11.7-.1,21.4.6,6.5,2.9,11.6,5.4,18.5,2,5.4,4.5,11.8,6.8,17.3-1.3-2.5-2.6-4.9-3.7-7.5-1.5-3.6-2.7-7.4-4.2-11-1.2-2.8-2.8-5.7-3.5-8.6-1.7-7-1.6-14.2-1.6-21.5,0-1.7,0-3.4.3-5.1.1-.9,0-4,.6-4.6.4-.5,1.1-.4,1.8,0,0,.2-1.9-.9-1.9.9Z"/>
          <path class="st10" d="M507.8,778.1c-1.5-1.6-4-3.2-5.9-4.3,2.1.5,5.3,2.6,7.4,2.5l.4.4c0-.1,0-.2,0-.3,3,3.1,3.4,8.2,4.6,12.4.6,2.1.7,4.2.5,6.3-.2,2-.2,4-.5,6-.4-.3-.8-.5-1.2-.8.2-.2.4-.6.6-.8-.3,0-.6-.3-.9-.3,0-.5.4-1,.7-1.4-.6-.2-1.2,0-1.8-.2,1.1-.2,1.9-2,1.3-3-.7-1.2-2.8-.9-3.8-1.4,1.1-.4,2.5.2,3.3-.6-.7-.6-2-.5-2.8-.7,1.6-1.1,4.1,0,3.1-3-.9-2.6-2.5-2-4.6-1.5.9-.7,3.3-1.6,1.5-2.4-1.2-.5-3-.3-4.3-.6.9-.8,5,.4,4.1-2.3-1.7-.6-3.5-1.4-5.2-1.8,2,.6,6,.5,3.7-2.1Z"/>
          <path class="st52" d="M514.3,801s0,0,0,0c0,0,0,0,0,0h0Z"/>
          <path class="st10" d="M495.3,740.5c1.3,1.1,2.8,3.8,4.6,4.1h.4c3.5.2,4.1,4.1,5.2,7,1.3,3.1,2,6,2.2,9.4.2,2.2,0,4.2,0,6.3,0,1,.5,2.3-.3,3.1-2-1.1-3.6-2-5.7-2.4,1.6-.6,3.7,1.2,4.2.6.4-.4-1.1-3-1.4-3.6-.8-1.6-1.4-2.4-3.1-3.1-1.4-.6-2.9-1.1-4.3-1.6,1.7,0,4.1.8,6,0,0-.8-.7-1-1.3-1.3,2.9-.6-2-2.7-2.9-3.1,1.1.2,2.8,1,4.2.6,0-1.2-1-4.8-1.9-5.7-1.1-1.1-4.4-1.3-5.9-1.1,1.1-1.1,5.3.4,4.7-1.2-.3-.8-4.8-2-5.6-2.1,1.9-.7,4.4,1.5,5.6.8-.9-2.7-3.7-4.2-4.8-6.9Z"/>
          <path class="st16" d="M514.2,804.7c0,0,0-.1.1-.2h0v.2Z"/>
          <path class="st16" d="M512.5,758.2c2.6,7.8,4.2,16.4,4.5,24.8.1,3.9.3,7.5-.7,11.4-.8,3.1-.1,7.5-2,10.1,0,0,0,0-.1-.1.4-6.4-1.6-13-3.3-18.9-1.4-7.5-3.5-14.8-6-22.1-2.2-6.2-3.9-12.3-5.3-18.7-1.1-4.9-2.5-9.9-5.1-14.2,2-.2,5.7,4.5,6.7,5.7,5.5,6.7,8.7,14,11.3,22.1Z"/>
          <path class="st14" d="M502.5,756c.5,1.4.9,2.8,1.3,4.2-.5-1.4-.9-2.8-1.3-4.2Z"/>
          <path class="st47" d="M512.5,758.2c2.6,7.8,4.2,16.4,4.5,24.8.1,3.4.3,6.6-.3,9.8.5-8.5-.9-17.6-2.9-25.9-3.2-13.1-7.3-26.3-17.2-35.7,1.9,1.4,4,4,4.7,4.9,5.5,6.7,8.7,14,11.3,22.1Z"/>
          <path class="st31" d="M516.3,786.5c-.4.4-3.3,4.4-3.1,5,.7,2.4,2.4,3.5,1.7,6.7-.4,1.8-.4,3.6-.2,5.5-.2.3-.4.7-.6,1v-.2c0,0,0,0,0-.1.4-6.4-1.6-13-3.3-18.9-1.4-7.5-3.5-14.8-6-22.1-2.2-6.2-3.8-12.3-5.3-18.7-1.1-4.9-2.5-9.9-5.1-14.2.6,0,1.3.3,2.1.9,0,.5.2.9.4,1.4.9,1.8,3.1,7.7,2.8,9.8-.3,2.2.4,2.2,2.6.2-.3.7-.5,1.4-.6,2.3-.2,1.8-1.3,4.8.4,5.6.7.3,2-1.8,3.2-1.8,1.6,0-3.4,2.8-2.7,3.9,0,0,.7,5.6,1.7,5.9,1.6.5,2.7-4,2.7-4,2.1.7-1.7,7-1.6,8.3.1,4.7,2.2-.2,5.8-2-.9,1.7-3.9,3.1-4.6,4.9-.7,1.6.8,2.9,4.3.5l-3.1,3.4c.3,1.8,3-.7,4.6-1.7-4.6,5.5-3.1,6.9-3.4,6.1.6,1.8,3.6-.8,3.4-.5-.2.3-2.7,2.5-2.9,2.9-.7,1.5,1.2,4.3,1.6,6,.5,1.9,2.3.3,3.6-1.1-.2,1.3-2.6,3-2.9,3.4,0,0,0,2.2,2.1,1,.9-.6-1.9,2.4-1.3,3.2.2.3,3.3-2.5,3.6-2.3Z"/>
        </g>
        <path class="st33" d="M513.4,804.2c.8-2.5-.7-8.3-1.3-11.5-.6-3.1-4.1-15.9-5.2-19.2-1.1-3.3-5.4-21-5.4-21,1.5,3.8,5.3,16.8,8.2,25.7,3,8.9,4.1,21.2,4.9,24.3.1.5.1,1.1,0,1.6,0,1.7-.2,5-.4,5.7-.7.7-.8-.7-1.6-.3.4-.9.3-3.9.7-5.3Z"/>
      </g>
      <path class="st26" d="M528.3,634.1s0-.1,0-.2c.4,1,.8,2,1.7,2.7.2,1.3.3,2.4.2,2.8-.5.8-.9-.5-1.7,0,.3-1-.4-3.9-.2-5.3Z"/>
      <g>
        <path class="st29" d="M528,650.4c0,0,0-.2,0-.2h0s0,.2,0,.2Z"/>
        <path class="st29" d="M523.8,646.2c-2.1-1.5-3.6-3.5-5.3-5.4-4-4.6-8.4-8.6-12.2-13.4-2.9-3.6-5.5-7.7-8.5-11.4-2.3-2.8-5.1-5.6-6.9-8.8-4.3-7.5-6.5-15.9-9-24.3-.6-2-1.1-3.9-1.3-6-.1-1.1-1.2-4.6-.8-5.5.6-1.1,2.1-.8,3.9,0,4.7,8,9.7,15.7,14.3,23.8,3.4,6,7.2,11.9,12.4,16.3,3.8,6,6.9,12.1,10,18.7,1.8,3.7,3.7,7.3,5,11.2.8,2.3,1.6,4.5,3,6.4,0,.8-.1,1.6-.4,2.4-.4-.2-.8-1.4-1.5-2.1-.7-.8-1.9-1.2-2.7-1.8Z"/>
        <path class="st58" d="M491,607.2c-4.3-7.5-6.5-15.9-9-24.3-.6-2-1.1-3.9-1.3-6-.1-1.1-1.2-4.6-.8-5.5.3-.7,1.1-.8,2.1-.6,0,.2-2.4-.4-1.9,1.7,1.3,4.9,2.7,13.9,7,24.9,2.8,7.3,7.2,12.5,12.4,19.7,4.1,5.6,9.1,12.2,13.6,17.8-2.3-2.4-4.6-4.8-6.8-7.5-2.9-3.6-5.5-7.7-8.5-11.4-2.3-2.8-5.1-5.6-6.9-8.8Z"/>
        <path class="st53" d="M513,619l.6.3c0-.1,0-.3-.2-.4,4.6,2.6,6.7,8.4,9.5,12.8,1.4,2.2,2.2,4.6,2.7,7.2.4,2.4,1,4.8,1.4,7.1-.5-.2-1.1-.4-1.6-.5.2-.3.2-.9.4-1.2-.3,0-.7-.1-1.1,0-.1-.6,0-1.3.3-1.9-.7,0-1.5.3-2.2.4,1.2-.6,1.6-2.9.5-3.9-1.2-1.1-3.5-.2-4.9-.4,1.1-.8,2.9-.6,3.6-1.8-1-.5-2.5,0-3.5.2,1.5-1.8,4.7-1.4,2.6-4.5-1.8-2.7-3.6-1.5-5.8-.2.8-1.1,3.2-3,.9-3.3-1.6-.2-3.6.7-5.2.7.8-1.3,5.9-1.1,4-4-2.2-.2-4.5-.4-6.7-.3,2.5,0,7.1-1.4,3.6-3.7-2.3-1.4-5.7-2.4-8.2-3.1,2.5-.1,7,1.3,9.5.4Z"/>
        <path class="st40" d="M526.9,646.1s0,0,0,0h0c0,0,0,0,0,0Z"/>
        <path class="st53" d="M492,585.5c4.1-1,6,3.2,8.4,6.3,2.5,3.2,4.2,6.3,5.7,10.1.9,2.5,1.5,4.8,2.1,7.3.3,1.1,1.3,2.5.7,3.7-2.6-.6-4.9-1.1-7.4-.9,1.7-1.3,4.7.1,5.1-.7.3-.6-2.2-3.1-2.8-3.7-1.4-1.6-2.5-2.3-4.7-2.5-1.8-.2-3.7-.3-5.5-.4,2-.5,5.1-.5,7-1.9-.2-.9-1.1-1-1.9-1,3.2-1.6-3.2-2.5-4.3-2.6,1.4-.2,3.5.2,5-.7-.4-1.4-2.8-5.2-4.1-6-1.7-.9-5.5,0-7.2.6.9-1.6,6.2-1.3,5.1-2.9-.6-.9-6.2-.7-7.2-.6,2-1.4,5.6.3,6.8-1-2-2.8-5.7-3.7-7.9-6.4,1.9.8,4.6,3.5,6.6,3.3h.5Z"/>
        <path class="st49" d="M528,650.4c0,0,0-.2,0-.2h0s0,.2,0,.2Z"/>
        <path class="st49" d="M517.8,629.2c-4.1-8.2-8.9-16-14.3-23.6-4.6-6.5-8.5-13-12.3-19.9-2.9-5.4-6.1-10.6-10.6-14.8,2.2-.9,8.1,3.3,9.7,4.4,8.7,6,14.7,13.4,20.4,21.9,5.6,8.2,10.3,17.6,13.4,27.2,1.4,4.5,2.8,8.6,3,13.4.1,3.8,2.3,8.8,1,12.4,0,0,0,0-.1-.1-1.7-7.5-6.1-14.5-10.1-20.9Z"/>
        <path class="st21" d="M498.3,597.8c1,1.5,2,2.9,2.9,4.4-1-1.4-1.9-2.9-2.9-4.4Z"/>
        <path class="st20" d="M490.2,575.2c8.7,6,14.7,13.4,20.4,21.9,5.6,8.2,10.3,17.6,13.4,27.2,1.2,3.9,2.4,7.5,2.8,11.5-2.3-10.1-6.8-20.1-11.9-29.1-8-14.1-17.1-28.1-31.8-35.6,2.6,1,6,3.3,7.1,4.1Z"/>
        <path class="st9" d="M528,650.4c0,0,0-.2,0-.2,0,0,0,0,0,0v.2Z"/>
        <path class="st9" d="M522.6,635.4c1.6,2.6,4,3.2,4.2,7.3.1,2.3.7,4.4,1.6,6.4,0,.4-.2.7-.3,1,0,0,0,0-.1-.1-1.7-7.5-6.1-14.5-10.1-20.9-4.1-8.2-8.9-16-14.3-23.6-4.6-6.5-8.5-13-12.3-19.9-2.9-5.4-6.1-10.6-10.6-14.8.6-.3,1.6,0,2.7.3.2.5.5,1,1,1.5,1.7,1.8,6.2,7.9,6.5,10.4.4,2.6,1.2,2.5,3.1-.6,0,.9.4,3.7.6,4.7.3,2.2-.4,4,1.8,4.4.9.2,1.8-2.8,3.1-3.2,1.9-.6-3.1,4.3-1.9,5.4,0,0,2.6,6.3,4,6.3,2,0,1.9-5.5,1.9-5.5,2.7.2.4,8.6.8,10.1,1.7,5.4,2.5-1,6.1-4.2-.5,2.2-3.4,4.9-3.7,7.2-.2,2.1,1.9,3.1,5.1-.9l-2.5,5c.9,2,3.2-1.8,4.8-3.5-3.5,7.9-1.4,9-1.9,8.2,1.3,1.9,3.9-2.1,3.8-1.7-.1.5-2.3,3.8-2.4,4.3-.4,2,2.8,4.6,3.8,6.4,1.2,2,2.7-.4,3.8-2.5.2,1.6-2.1,4.3-2.2,4.9,0,0,.8,2.6,2.7.4.9-1-1.5,3.4-.5,4.2.3.2,3-4,3.4-3.9-.3.6-2.3,6.1-1.9,6.8Z"/>
      </g>
      <g>
        <path class="st29" d="M549.1,632.1c2.8-3.9,5-8.2,7-12.5,3.9-8.4,8.2-16.6,12.2-24.9,2.3-3.8,3.2-2.5,3.9-.3.3.9-.2,4.5-.3,5.6,0,2-.4,4-.8,6.1-1.8,8.6-3.2,17.1-6.9,25-1.5,3.3-4.1,6.3-6.1,9.4-2.6,3.9-4.9,8.2-7.5,12-3.4,5.1-7.5,9.5-11,14.4-1.6,2.1-2.9,4.2-4.8,5.9-.8.7-1.9,1.2-2.5,2-.2.2-.3.5-.5.8-.1-.4-.3-.8-.5-1.2,2.7-5.3,4.6-10.8,6.4-16.4,2-5.9,4.5-11.5,7.2-17.1,1.4-2.8,2.7-5.7,4.1-8.5Z"/>
        <path class="st58" d="M567.2,620.8c3.3-11.3,4.5-20.3,4.8-25.4.1-2-.8-2.9-1.6-3.2.9-.3,1.8.8,1.9,2.3,0,1-.4,4.2-.5,5.3,0,2-.4,4-.8,6.1-1.8,8.6-3.2,17.1-6.9,25-1.5,3.3-4.1,6.3-6.1,9.4-2.6,3.9-4.9,8.2-7.5,12-1.9,2.8-4,5.4-6.1,8,3.9-6,8.4-13,12-18.9,4.6-7.6,8.5-13.2,10.7-20.7Z"/>
        <path class="st53" d="M539.6,664.5c-1.4.4-3.8-.4-4.9.8,0,0,0,0,0,0,.5-1.5,1.9-4,2.3-5.5.5.9,1.3,1.9,2.4,3-1,0-2.6-.4-3.5.1.8,1.1,2.6.8,3.8,1.5Z"/>
        <path class="st53" d="M543.4,645.3c.1-.2.2-.4.3-.6,2.6.3,6.5-1.3,8.9-1.3-2.5.9-5.8,2.2-7.9,3.8-3.4,2.5,1.4,3.6,3.9,3.3-2.2,0-4.5.5-6.6.9-1.7,3,3.4,2.5,4.3,3.7-1.6,0-3.7-.6-5.2-.3-2.3.5.3,2.1,1.2,3.2-1.8-.8-3.3-.3-4.6.6,1.9-4,3.9-9.3,5.9-13.3Z"/>
        <path class="st40" d="M531.7,672.8s0,0,0,0c0,0,0,0,0,0q0,0,0,0Z"/>
        <path class="st53" d="M554.2,636.8c-2.5,0-6.7,3.1-9.2,3.9,0,0,5-11.2,9.1-18.4,3.6-6.3,5.3-9.6,7.1-13.3,0,0,3.5-.7,6.9-3.3-2,2.9-5.6,4-7.3,7,1.3,1.2,4.7-.8,6.8.4-1,0-6.5.2-7.1,1.2-1,1.7,4.3.9,5.3,2.5-1.8-.5-5.7-1-7.2,0-1.3.8-3.3,4.8-3.6,6.3,1.6.8,3.7.3,5.1.3-1.1.2-7.4,1.6-4.1,3-.8.1-1.7.3-1.8,1.2,2.1,1.3,5.1,1,7.2,1.3-1.8.3-3.7.5-5.5.9-2.2.5-3.1,1.2-4.4,2.9-.5.6-2.8,3.3-2.4,3.9.5.8,3.3-.8,5.1.3Z"/>
        <path class="st34" d="M545.8,640.9c-2.1,3.7-8.1,19-9.5,22.6-1.5,3.6-3.2,8.5-4.2,11.4-1.3,3.5-4.3,5.8-5.4,9.7-.3,1-1.3,1.4-1-1.8.4-3.1,4.2-6.1,5.4-8.4,1.2-2.4,7.9-20.7,14.2-34.5,4.7-10.2,10.3-20.8,12.9-24.9,0,0-10.2,22.2-12.3,25.9Z"/>
      </g>
      <path class="st33" d="M528.4,643.1c-.3-1.6-1.1-3-2.1-4.5-1.7-2.6-2.2-4.5,1.3-2.6,2.6,1.4,2.9,2.2,3.1,4.6,0,.9,0,1.7,0,2.4-.7,2.9-.8,5.9-.6,8.9-.1,2.3.1,4.9.2,6.7.1,6.7-1.2,13.3-1.5,19.9,0,1,0,3.4,0,5.5.4,2.6-.8,10.6-1,12.3-1,12.6-1.3,27.1-1.5,34.1-.1,6.2-3,24.1-3.4,27.1-.4,3.3-4.4,33.5-5.4,46-.5,6.5-2.4,12.1-3.3,18.3-.4,2.9-1.6,5.2-2.5,8-1.2,3.5-1.1,4.4-5.1,4.7-.4-5.6,2.3-11.8,3.5-17.1,1.6-6.6,2.2-13.4,3.1-20.2,1.5-12.3,4.7-23.3,5.1-36.2.2-7.2,1.7-12.8,3-19.5,1.1-5.8,1.3-12.1,1.4-18,.2-11.8,1.2-26.1,2.5-38,0-2.7-.3-5.4.2-8.2.5-3.3,1.1-6.7,1.2-10.1.1-3.2.5-6.5.4-9.9,0-2.6,0-5.3.5-8.2-.4-1.1-.9-3.1-1.8-4.9-1.4-2.8-6.1-10.3-8-13.7-3.5-6-10.5-19.3-13.7-23.1-4.9-5.9-14.7-24.4-14.7-24.4,4.3,5.1,7.6,14.6,15.6,24.6,7,8.8,17.3,30.1,20.4,34.1.7.9,2,2.2,2,2.2.2.5.9.4.7-.7Z"/>
      <path class="st34" d="M527.6,636c2.6,1.4,2.9,2.2,3.2,4.6,0,.9,0,1.7,0,2.4-.7,2.9-.8,5.9-.6,8.9-.1,2.3.1,4.9.1,6.7.1,6.7-1.2,13.3-1.4,19.9,0,1,0,3.4,0,5.5.4,2.6-.8,10.6-1,12.3-1,12.6-1.3,27.1-1.4,34.1-.1,6.2-3,24.1-3.4,27.1-.4,3.3-4.4,33.5-5.4,46-.5,6.4-2.4,12-3.3,18.3-.4,2.9-1.5,5.2-2.5,8-1.2,3.5-1.1,4.4-5.2,4.7,0-1.1,0-2.3.1-3.4,1.8-.8,3.4-2.5,4.1-4.9,1.9-6,3.1-12.4,3.8-18.8.3-1.3.5-2.6.5-3.9,0-1.1,0-2.3,0-3.5.7-4.9.9-10,1.7-14.5,1.2-6.5,2.4-12.9,3-19.5.8-3,1.2-6.2,1.6-9.2.7-4.6,1.4-9.3,1.9-14,.2-.7.3-1.3.2-1.9.7-7.1,1.3-14.6,1.1-21.8.5-1.9.5-3.9.5-6.1-.2-4,.3-7.9.7-11.8.8-8,1.6-16,2.4-24,.9-8.8.1-17.6.8-26.4.4-5.2.9-11.3-3.2-15.2-.2-.2-.4-.3-.6-.5.4,0,1.1.2,2.1.7Z"/>
    </g>
    <g>
      <g>
        <g>
          <path class="st48" d="M550.7,689.5c-.3-8.3-4.1-12.3-6.5-14.9-3-3.2-4.7-2.8-7.7-2.9-1.4,0-2.7.3-3.9.5-1,.2-2.5.2-3.5.8-2.6-.1-4.1.2-6,2.3-1.6,1.7-2.3,3.8-2.9,6-1.2,4.2-.3,10,1.4,14,1.8,4.3,5.1,8.6,9.9,10.4,13.6,5,19.4-10.2,19.2-16.2Z"/>
          <path class="st57" d="M550.7,689.5c-.3-7.1-3.1-11.1-5.4-13.6.7,5-1.9,11.2-4,14.8-2.8,4.7-7.3,10.8-13.6,9.5-2.3-.5-4.2-1.8-5.6-3.6,1.9,3.9,5,7.5,9.4,9.1,13.6,5,19.4-10.2,19.2-16.2Z"/>
          <path class="st24" d="M538.5,700.2c-3.3,4-8.9,4.6-14.3,0,1.8,2.4,4.2,4.5,7.2,5.6,13.6,5,19.4-10.2,19.2-16.2-.3-8.3-4.1-12.3-6.5-14.9-2.1-2.2-3.5-2.7-5.3-2.8,1.2,1.2,2.3,2.6,3.1,4,4.6,7.6,2.6,16.9-3.5,24.4Z"/>
          <path class="st50" d="M546.9,697.5c-2.2,4.6-6.7,9.9-12,9-.2,0-.3,0-.5,0,11.5,2,16.5-11.4,16.3-17-.3-8.3-4.1-12.3-6.5-14.9-3-3.2-4.7-2.8-7.7-2.9-1.4,0-2.7.3-3.9.5,0,0-.1,0-.2,0,4.7.6,9.2,2.2,12.3,6.1.6.8,1.2,1.7,1.6,2.6,2.7,5,3.1,11.4.6,16.5Z"/>
          <path class="st39" d="M541.2,705.8c6.7-2.9,9.7-11.9,9.5-16.3-.3-8.3-4.1-12.3-6.5-14.9-2.6-2.8-4.2-2.9-6.6-2.9.7.2,1.5.5,2.1.9,7.6,2,10.4,12.9,9.6,19.7-.7,6-4,10.1-8.2,13.4Z"/>
          <path class="st25" d="M529.1,696.7c-.8-2.9-2.2-5.6,1.6-11.6,1.5-2.4,3.2-4.4,4.1-7,.9-2.5-2-5-4.9-4-2.7.8-4.5.8-5.9,3.6-1.3,2.6-2.1,4.9-2.2,7.9-.1,5.2,1.3,11.5,5.6,14.5,1.2.9,2.3-1.1,1.6-3.5Z"/>
          <path class="st55" d="M522.6,675.9c-1.3,1.6-1.9,3.5-2.5,5.5-1.2,4.2-.3,10,1.4,14,1.6,3.9,4.5,7.8,8.7,9.8-.2-.1-.4-.3-.6-.4-5-3.6-8.3-9.8-9.1-15.8-.5-3.9,0-9.4,2.1-13.1Z"/>
          <path class="st2" d="M537.2,675.2c.4-1.3-.2-2.4-1.6-2.6-1.4-.2-2,.9-3.1,1.3-1,.4-2.3.6-3.3.4-1.1-.1-2.2-1.1-3.4-.6-.3.1-1.8,1.3-1.5,1.9,1.1,2.3,3.5,3.8,6.4,3.7,2.1,0,5.9-2.3,6.6-4.3Z"/>
          <path class="st24" d="M533,673.9c0-.7-4.4,0-5,.5-.5.5,0,1.1.7,1.2,1.3,0,4-.3,4.3-1.7Z"/>
          <path class="st41" d="M528.8,674.6s0,0,0,0h-.1c0,0,0,0,0,0Z"/>
          <path class="st41" d="M528.8,674.6s0,0,0,0h0s0,0,0,0Z"/>
          <path class="st41" d="M530.3,675.3c.5,0,1.4,0,1.8-.5.5-.9-1.1-.5-1.4-.4-.5.2-.4,0-.9,0-.2,0-.7,0-.8,0-.1,0-.2.2-.1.3h.1c0,0,0,0,0,0,.1.8.9.7,1.5.7Z"/>
          <path class="st33" d="M529.3,675.3c0,.1.6,0,1.4,0,.5,0,1-.1,1.1-.3,1.3-1.7-3.9-7.3-4.5-8.5-1.7-3.3-1.8-6.6-1.1-10.1.2-.9.3-1.9.2-2.7-.4.2-.8.2-1.1.3,0,0,0,0,0,.1-.6,1.9-.8,3.9-1,5.8.2,2.7.5,5.6,1.9,8,.9,1.5,2.1,2.8,2.6,4.5.2.7.1,2.2.5,3Z"/>
          <path class="st34" d="M530.7,675.3c.4,0,.9-.1,1-.3,1.3-1.7-3.9-7.3-4.5-8.5-1.7-3.3-1.8-6.6-1.1-10.1.2-.9.3-1.9.2-2.7,0,0-.2,0-.3.1-.6,2.6-.8,4.5-1,6.5,0,.7,0,1.5,0,2.1.3,3.7,3.5,6.3,4.8,9.6.4,1.1.7,2.1.8,3.2Z"/>
          <path class="st54" d="M522.5,697.4c0,.1.1.2.2.3,0,.1.1.2.2.3,0,.1.1.2.2.3.1.2.3.4.4.6.1.2.2.3.3.5,0,.1.2.2.2.3,0,.1.1.2.2.3,0,0,0,0,0,0,.1.2.3.3.4.5,0,0,0,.1.1.2.1.2.3.3.4.5,0,.1.2.2.3.3.1.1.2.2.3.3,0,0,0,0,.1.1,0,0,0,0,0,0,0,0,.1.1.2.2.1.2.3.3.4.4,0,0,.1.1.2.2,0,0,0,0,.1.1,0,0,.2.1.2.2.2.2.5.4.8.6,0,0,.2.1.3.2,0,0,.1,0,.2.1,0,0,0,0,0,0,0,0,.1,0,.2.1h.1c.2.2.4.3.6.4,0,0,0-.2,0-.3-2.3-2.7-3.6-6.2-3.3-10.7.4-5.2,1.8-6.1,1.8-11,0-2,0-3.2-.9-5.2-.8-2-2.5-3.6-2.5-3.6-.5.3-1,.8-1.5,1.3-.5.6-.9,1.2-1.3,1.8,0,0,0,0,0,0-.2.4-.4.8-.6,1.3,0,0,0,0,0,.1-.2.4-.3.8-.5,1.3,0,0,0,.1,0,.1-.1.4-.3.9-.4,1.4-1.2,4.2-.3,10,1.4,14,.2.4.4.8.6,1.2,0,0,0,0,0,0,0,0,0,0,0,0,0,0,0,.2.1.3,0,.2.2.3.3.5Z"/>
          <path class="st48" d="M516.5,696.3c7.1-5.6,8.2-11.6,8.9-15.3.9-4.6-.5-5.9-2.4-8.6-.9-1.2-2-2.2-3-3.1-.8-.8-1.8-2-2.9-2.6-1.6-2.4-2.8-3.5-5.9-3.8-2.5-.2-4.8.5-7.2,1.3-4.5,1.7-9,6.2-11.4,10.3-2.6,4.4-4.2,10-2.6,15.4,4.4,15.1,21.5,10.4,26.6,6.3Z"/>
          <path class="st57" d="M489.8,690c4.4,15.1,21.5,10.4,26.7,6.3,6-4.8,7.7-9.9,8.5-13.6-3.9,3.9-11,5.6-15.6,6-5.9.6-14.2.6-17.1-5.7-1.1-2.3-1.1-4.8-.5-7.2-2.2,4.2-3.4,9.2-1.9,14.1Z"/>
          <path class="st24" d="M489.8,690c4.4,15.1,21.5,10.4,26.6,6.3,7.1-5.6,8.2-11.6,8.9-15.3.6-3.3.1-4.9-.9-6.5-.3,1.9-.8,3.7-1.5,5.3-3.7,9-13.2,13.2-23.7,12.7-5.6-.3-9.8-4.8-9.2-12.5-1,3.2-1.2,6.6-.2,10Z"/>
          <path class="st50" d="M521,687c-2.6,5.6-8,10.1-14.1,11.2-5.4,1-13,.6-15.6-4.7-.1-.2-.2-.3-.4-.4,5.7,11.4,20.7,7.1,25.5,3.3,7.1-5.6,8.2-11.6,8.9-15.3.9-4.6-.5-5.9-2.4-8.6-.9-1.2-2-2.2-3-3.1,0,0,0,0-.1-.1,2.5,4.5,4,9.5,2.6,14.7-.3,1.1-.7,2.1-1.2,3.1Z"/>
          <path class="st38" d="M516.5,696.3c7.1-5.6,8.2-11.6,8.9-15.3.7-4-.2-5.5-1.7-7.6.3.8.5,1.6.6,2.4,3.2,7.9-4.6,17.5-11.2,21.2-5.7,3.2-11.4,3-17,1.5,6.9,4,16.7.8,20.4-2.2Z"/>
          <path class="st28" d="M496.1,682.1c2-2.6,3.5-5.5,11.2-6.1,3-.2,5.9,0,8.8-.9,2.8-.9,3.1-5,.3-6.9-2.4-1.9-3.6-3.4-7-2.8-3.2.5-5.7,1.4-8.4,3.2-4.6,3.2-9.3,8.5-9.1,14.3,0,1.6,2.4,1.4,4.1-.8Z"/>
          <path class="st55" d="M489.4,687.7c0-6.7,3.2-13.6,8-18.2,3.1-3,8.2-6.1,12.9-6.6-2.2,0-4.3.6-6.4,1.4-4.5,1.7-9,6.2-11.4,10.3-2.4,4-3.9,9-3,14,0-.3,0-.6,0-.8Z"/>
          <path class="st4" d="M514.1,664.3c-.3-.2-2.2-.8-2.7-.1-1.3,2.5-1.1,5.5.9,8,1.4,1.8,5.8,3.7,8,3,1.5-.5,2-1.7,1.2-3-.7-1.3-2.1-1.2-3.2-1.9-1-.6-2-1.6-2.5-2.6-.6-1.1-.5-2.7-1.7-3.4Z"/>
          <path class="st24" d="M515,666.7c-.8-.1-.9.8-.6,1.3.8,1.1,2.9,3.3,4.3,2.7.6-.4-2.8-3.9-3.7-4.1Z"/>
          <path class="st41" d="M515.3,667.6v-.2s0,0,0,0c0,0,0,0,0,.1Z"/>
          <path class="st41" d="M515.3,667.5s0,0,0,0h0s0,0,0,0Z"/>
          <path class="st41" d="M515.7,669.3c.4.4,1,1.2,1.6,1.2,1.1,0-.2-1.3-.6-1.5-.5-.3-.3-.3-.5-.8,0-.2-.4-.6-.6-.7-.1,0-.3,0-.3,0v.2c0,0,0,0,0-.1-.6.6,0,1.3.4,1.8Z"/>
          <path class="st33" d="M526.4,653.2c1.2-2.1,1.6-2.5,2.7-4.6.1-.3,0,0,.1-.3-.1-.6.1-4.3,0-4.9-1,1.8-1.5,4.4-2.6,6.1-.9,1.5-1.7,3-2.8,4.3-1,1.2-3.5,4.7-3.9,6,0,0,0,0,.1,0-.2.4-.4.7-.6,1-.8,1.8-1.1,3.6-2.2,5.2-.5.7-1.8,1.5-2.2,2.4,0,.1.4.6.9,1.2.3.4.7.8.9.8,2.3,0,3.9-8.1,4.6-9.5,1.1-2.2,2.6-3.9,4.4-5.2,0-.3,0-.6.1-1,.1-.5.3-1,.5-1.4,0,0-.1,0-.2.1,0,0,0-.1.1-.2Z"/>
          <path class="st34" d="M521.5,660.9c1.1-2.2,2.6-3.9,4.4-5.2,0-.3,0-.6.1-1,0,0,0,0,0,0-.2.1-.4.2-.6.4-.6.5-1.3,1-1.8,1.4-3,2.6-3.3,7.1-5.3,10.4-.7,1.1-1.4,2-2.3,2.8.3.4.7.7.9.7,2.3,0,3.9-8.1,4.6-9.5Z"/>
          <path class="st6" d="M506.7,666.4l1,.2c-.3-.1-.6-.2-.9-.2,0,0,0,0,0,0Z"/>
          <path class="st5" d="M502.1,672.7c1.7-1.8,3.2-3,5.7-2.6,2.7.5,3.2,1,3.1-2.2,0-1.2.3-1.4-1.2-1.9-.8-.3-2.4-.3-3,.3.3,0,.6,0,.9.2l-1-.2s0,0,0,0c-2.9-.1-7.4,3.6-8.8,5.4-1.4,1.8-3.4,5.2-3.5,7.5,1.5.2,2.4-1.8,3.3-2.7,1.4-1.3,2.9-2.4,4.2-3.8Z"/>
          <path class="st3" d="M513.1,669c-.1-1.1-1.1-1.4-1.8-2.2-1.5-.6-1.7-1.8-3.4-1-1,.4-2.1,1.3-2.7,2.1,1.1,0,2.4-.2,3.4.3,1.2.5,1.6,1.9,2.7,2.3,1.2.5,2-.2,1.9-1.4Z"/>
          <path class="st7" d="M532.1,680c1.2-.5,4.4-1.7,5.1-2.8,1.1-1.8-1.5-3.4-2.8-1.9-.9.6-1,1.7-2,2.3-.8.5-2.4.3-3,.7-.7.5-1,1.3-.2,2,.9.7,2,0,2.8-.3Z"/>
          <path class="st23" d="M492.4,689.5s0,0,0,0c0,0,0-.1,0,0Z"/>
          <path class="st23" d="M495.1,695.9c2.5,1.7,10.7,1.6,13.6.9,6.2-1.6,10.7-6.9,13.7-12.8-3.5,3.7-10,8.4-15,10.3-2.9,1.1-6.6.9-9.5-.2-1.8-.6-5-2.2-5.3-4.4,0,.6-.9,3.7,2.7,6.2Z"/>
          <path class="st23" d="M540.7,703.5c2.6-1.4,6.1-8.4,6.7-11.2,1.3-6.1-1.2-12.2-5-17.3,1.6,4.6,2.8,12.2,2.2,17.3-.3,3-2.1,6-4.3,8-1.4,1.3-4.2,3.3-6.2,2.6,0-.3,2.4,2.7,6.6.5Z"/>
        </g>
        <path class="st27" d="M502,696.3c4.1.5,8.6,0,12.2-2,3.4-1.9,7.9-5.1,8.8-9.9.4-2.1,0-5.9-2.6-6.5-2.3-.5-2.8,2.8-3.8,4.4-2.5,4.2-6.3,7.7-11.1,8.8-3.7.8-10.7.1-13.1-4.1.5,3.6,4.4,8.6,9.5,9.2Z"/>
        <path class="st27" d="M542.7,697.9c1.5-3,2.7-6.7,2.9-10.3.2-3.4,0-8.3-2-11.1-.9-1.2-2.8-2.5-3.9-.8-.9,1.5.5,3.4.9,4.8,1.2,3.8,1.7,8.2.7,12.4-.7,3.2-3.3,8.3-6,8.4,1.9,1.2,5.4.3,7.3-3.4Z"/>
        <path class="st3" d="M498.7,693.3c0,1.7,5.4,4.4,12.4.9,5.8-2.9,10.7-8,10.2-10.6-.9,0-2.6,3.1-3.6,3.8-1.9,1.3-3.7,2.7-5.7,3.8-3.4,1.7-9.5,5.1-13,2.1,0,0-.1-.2-.3,0Z"/>
      </g>
      <path class="st3" d="M497.7,685.6c2.3-.2,1.9-1.5,2.8-3.8,1.1-2.9,6.2-7.9,5.6-10.5-1-5-7.8-.6-9.6,1-2,1.9-7.4,9.2-4.5,12,.8.8,4.6,1.4,5.7,1.3Z"/>
    </g>
    <g>
      <path class="st48" d="M550.6,749.7c.5-9-3.2-13.8-5.5-16.8-2.9-3.7-4.8-3.6-8-3.9-1.5-.1-2.9,0-4.3.2-1.1.1-2.7,0-3.9.5-2.8-.4-4.5-.2-6.8,1.9-1.9,1.7-2.9,3.9-3.8,6.3-1.8,4.4-1.3,10.8,0,15.4,1.5,4.9,4.6,9.8,9.7,12.3,14.2,6.8,22.1-9.1,22.5-15.7Z"/>
      <path class="st57" d="M528.2,765.4c14.2,6.8,22.1-9.1,22.5-15.7.4-7.7-2.2-12.3-4.4-15.4.3,5.5-3.2,12-5.9,15.7-3.5,4.8-9,10.9-15.7,9-2.5-.7-4.3-2.4-5.7-4.5,1.6,4.4,4.6,8.7,9.2,10.9Z"/>
      <path class="st24" d="M528.2,765.4c14.2,6.8,22.1-9.1,22.5-15.7.5-9-3.2-13.8-5.5-16.8-2-2.6-3.6-3.3-5.4-3.6,1.2,1.5,2.2,3.1,3,4.7,4.2,8.7,1.1,18.6-6.3,26.1-4,4-10.2,4.1-15.5-1.5,1.7,2.8,4.1,5.3,7.3,6.8Z"/>
      <path class="st50" d="M546.7,740.1c2.4,5.7,2.2,12.7-1,17.9-2.9,4.7-8.3,10.1-13.9,8.5-.2,0-.4,0-.6,0,12.3,3.3,19.1-10.7,19.4-16.8.5-9-3.2-13.8-5.5-16.8-2.9-3.7-4.8-3.6-8-3.9-1.5-.1-2.9,0-4.3.2,0,0-.1,0-.2,0,5,1.1,9.7,3.3,12.7,7.9.6,1,1.1,2,1.5,3Z"/>
      <path class="st38" d="M550.6,749.7c.5-9-3.2-13.8-5.5-16.8-2.5-3.3-4.3-3.5-6.8-3.8.8.3,1.5.7,2.2,1.1,8,2.9,9.9,15.1,8.4,22.4-1.4,6.4-5.4,10.5-10.2,13.7,7.6-2.5,11.7-12,12-16.7Z"/>
      <path class="st28" d="M526.5,755.4c-.6-3.3-1.8-6.3,2.9-12.4,1.9-2.4,3.9-4.4,5.2-7.2,1.2-2.7-1.7-5.7-4.9-4.8-3,.5-4.9.4-6.8,3.3-1.7,2.7-2.8,5.2-3.1,8.4-.7,5.6.2,12.6,4.6,16.4,1.2,1,2.6-.9,2.1-3.6Z"/>
      <path class="st55" d="M526.2,764.1c-5.1-4.4-8-11.5-8.2-18.1-.2-4.3.9-10.2,3.6-14-1.5,1.6-2.4,3.6-3.2,5.7-1.8,4.4-1.3,10.8,0,15.4,1.4,4.4,4.1,8.9,8.4,11.5-.2-.2-.4-.3-.7-.5Z"/>
      <path class="st4" d="M525.2,730.1c-.4.1-2.1,1.2-1.9,1.9,1,2.6,3.4,4.5,6.6,4.7,2.2.2,6.7-1.9,7.6-4,.6-1.4,0-2.6-1.5-2.9-1.5-.3-2.2.7-3.5,1.1-1.1.3-2.5.4-3.7.1-1.2-.3-2.3-1.4-3.7-.9Z"/>
      <path class="st24" d="M527.6,731c-.6.5,0,1.2.6,1.4,1.4.1,4.4,0,4.9-1.4,0-.8-4.8-.5-5.5,0Z"/>
      <path class="st41" d="M528.5,731.4h-.1c0-.1,0,0,0,0,0,0,0,0,.1,0Z"/>
      <path class="st41" d="M528.4,731.4s0,0,0,0h0s0,0,0,0Z"/>
      <path class="st41" d="M530,732.2c.6,0,1.6.1,2-.4.7-.9-1.1-.7-1.5-.6-.6.1-.5,0-.9-.1-.2,0-.7-.1-.9,0-.1,0-.2.2-.2.3h.1c0,.1,0,0-.1,0,0,.8.9.9,1.6.9Z"/>
      <path class="st33" d="M523.8,714.2c0,0,.1,1.1.1,1.6.3,4.6,1.9,7.5,2.1,7.9.8,1.8,2.2,3.3,2.7,5.1.2.8,0,2.4.3,3.3,0,.1.7.1,1.5.1.5,0,1.1,0,1.2-.2,1.6-1.7-3.5-8.3-4-9.7-.9-2.3-1.8-7.4-2-7.7-.1-.2-1-1-1.8-.4Z"/>
      <path class="st34" d="M527.8,724.1c.8,1.5,1.7,3,2.1,4.6.4,1.2.5,2.4.5,3.6.5,0,1,0,1.1-.2,1.6-1.7-3.5-8.3-4-9.7-.1-.3-.2-.6-.3-.8.1.8.3,1.7.5,2.6Z"/>
      <path class="st6" d="M521.8,737l.7-.6c-.3.1-.5.3-.7.5,0,0,0,0,0,0Z"/>
      <path class="st5" d="M523.5,744.7c-.2-2.4,0-4.4,1.9-6,2.2-1.7,2.9-1.8.4-3.8-.9-.8-.8-1.1-2.2-.3-.7.4-1.8,1.5-1.8,2.4.2-.2.5-.4.7-.5l-.7.6s0,0,0,0c-2,2.1-2.2,7.9-1.8,10.2.4,2.3,1.6,6,3.2,7.6,1.1-1,.2-3,.2-4.3,0-1.9.1-3.8,0-5.7Z"/>
      <path class="st3" d="M528,734.1c-.9-.7-1.8-.1-2.8-.2-1.5.8-2.4,0-3.1,1.9-.3,1-.4,2.4-.2,3.5.8-.8,1.5-1.9,2.5-2.4,1.1-.6,2.5,0,3.5-.5,1.2-.6,1.2-1.6.2-2.4Z"/>
      <path class="st23" d="M529.5,763.1s0,0,0,0c0,0,0,0,0,0Z"/>
      <path class="st23" d="M536,765.4c3-.7,8.3-6.9,9.7-9.5,2.9-5.8,2-12.6-.5-18.7.4,5.1-.4,13-2.3,18-1.1,2.9-3.7,5.5-6.5,7-1.7.9-5,2.2-6.8,1.1.4.4,2.2,3.2,6.4,2.2Z"/>
      <path class="st27" d="M541,760.5c3.2-2.7,5.8-6.4,6.7-10.4.8-3.8,1.4-9.3-1.5-13.2-1.3-1.7-4.5-3.9-6.6-2.4-1.9,1.3.2,4,.8,5.8,1.5,4.7,1.6,9.9-.8,14.2-1.8,3.3-7.1,8.1-11.8,7,3,2.1,9.3,2.4,13.2-.9Z"/>
      <path class="st3" d="M536.5,761c1.2,1.2,6.9-1.1,8.9-8.7,1.7-6.3,1.2-13.3-1.1-14.7-.5.7.5,4,.4,5.2-.2,2.3-.4,4.6-1,6.8-1,3.7-2.5,10.5-7.1,11.1,0,0-.3,0-.2.2Z"/>
      <path class="st3" d="M530.1,756.6c1.4-1.8.2-2.4-.9-4.6-1.4-2.7-1.8-9.8-4.1-11.2-4.4-2.6-5.6,5.4-5.6,7.8,0,2.8,1.9,11.6,6,11.3,1.2,0,4.1-2.5,4.8-3.4Z"/>
    </g>
  </g>
  <path class="st22" d="M528.2,822.2c-5.6-9.6-13.4-10.1-20-1.7-8.4-6.7-15.6-4.3-18.5,5.9-10.2-3.1-16.1,1.8-14.9,12.4-10.7,1.1-14.4,8-9.3,17.8-9.6,5.6-10.1,13.4-1.7,20.1-6.7,8.4-4.3,15.6,5.9,18.5-3.1,10.2,1.8,16.1,12.4,14.9,1.1,10.7,8,14.4,17.8,9.3,5.6,9.6,13.4,10.1,20.1,1.7,8.4,6.7,15.6,4.3,18.5-5.9,10.2,3.1,16.1-1.8,14.9-12.4,10.7-1.1,14.4-8,9.3-17.8,9.6-5.6,10.1-13.4,1.7-20.1,6.7-8.4,4.3-15.6-5.9-18.5,3.1-10.2-1.8-16.1-12.4-14.9-1.1-10.7-8-14.4-17.8-9.3Z"/>
  <g>
    <path class="st15" d="M485.3,838.1l3.1.9c1.4.4,2.6,1.1,3.3,2.4.8,1.3,1,3.1.3,5.5-.7,2.4-1.8,3.8-3.2,4.5-1.3.7-2.8.7-4.1.3l-2.5,8.4-3.1-.9,6.1-21.1ZM485.6,848.5c.9.3,1.6.3,2.1-.1.5-.4.8-1.1,1.1-2.3.3-1.2.5-2,.3-2.7-.2-.6-.7-1-1.7-1.3l-1.8,6.3Z"/>
    <path class="st15" d="M494.8,863.7l1-9.4-.8-.2-2.6,8.9-3.1-.9,6.1-21.1,3.1.9c3.7,1.1,4.7,3.6,3.5,7.6-.6,2.1-1.7,3.8-3.1,4.3l-1,10.8-3.1-.9ZM495.8,851.3c.4.1,1,.2,1.6,0,.6-.3,1.2-.9,1.6-2.4.4-1.5.3-2.4,0-2.9-.3-.5-.9-.7-1.3-.9l-1.8,6.3Z"/>
    <path class="st15" d="M505.7,844l7.1,2.1-.9,3.2-4-1.2-1.6,5.5,2.9.8-1,3.4-2.9-.8-1.7,5.8,4,1.2-.9,3.2-7.1-2.1,6.1-21.1Z"/>
    <path class="st15" d="M513.6,869.2l1.9-13.8v-.9c.1,0,0,0,0,0l-4.1,14.2-2.9-.8,6.1-21.1,3.8,1.1-1,10.2-.2,1.2h0s.5-1.1.5-1.1l4.6-9.1,3.8,1.1-6.1,21.1-2.9-.8,4.1-14.2h-.2c0,0-.4.8-.4.8l-5.8,12.7-1.3-.4Z"/>
    <path class="st15" d="M528.5,850.6l3.1.9-6.1,21.1-3.1-.9,6.1-21.1Z"/>
    <path class="st15" d="M542.1,854.6l-4.9,16.8c-.3.8-.7,1.6-1.2,2.1-.4.5-1,.9-1.7,1.2-.7.3-1.6.3-2.6,0-1-.3-1.8-.8-2.2-1.4-.4-.6-.7-1.3-.7-1.9-.1-.8,0-1.6.1-2.4l4.9-16.8,3.1.9-4.9,16.8c-.2.6-.1,1,0,1.5.1.2.3.3.5.4.5.2.9-.1,1.1-.5.1-.2.3-.4.3-.7l4.9-16.8,3.1.9Z"/>
    <path class="st15" d="M543.4,877.9l1.9-13.8v-.9c.1,0,0,0,0,0l-4.1,14.2-2.9-.8,6.1-21.1,3.8,1.1-1,10.2-.2,1.2h0s.5-1.1.5-1.1l4.6-9.1,3.8,1.1-6.1,21.1-2.9-.8,4.1-14.2h-.2s-.4.8-.4.8l-5.8,12.7-1.3-.4Z"/>
    <path class="st15" d="M484.5,887.2c-.1.5-.4,1-.7,1.6-.2.3-.4.5-.6.8.2.4.4.8,1,1.1l-.8,2.6c-1.7-.5-2.4-1.5-2.7-2.6-.5,0-1,0-1.6-.2-1-.3-1.8-.8-2.2-1.4-.4-.6-.7-1.3-.8-1.9-.1-.8,0-1.6.2-2.5l3.6-12.4c.3-.8.7-1.6,1.2-2.1.4-.5,1-1,1.7-1.2.7-.3,1.6-.3,2.6,0,1,.3,1.7.8,2.2,1.4.5.6.7,1.3.8,1.9.1.8,0,1.6-.1,2.4l-3.6,12.4ZM485,873.9c.2-.6.2-1,0-1.4-.1-.2-.3-.3-.6-.4-.5-.2-.9.2-1.1.5-.2.2-.3.5-.3.7l-3.6,12.4c-.2.6-.1,1,0,1.4.1.2.3.3.5.4.5.2.9-.1,1.1-.5.1-.2.2-.4.3-.7l3.6-12.4Z"/>
    <path class="st15" d="M499.8,873.5l-4.9,16.8c-.3.9-.7,1.6-1.2,2.2-.4.5-1,.9-1.7,1.2-.7.3-1.6.3-2.6,0-1-.3-1.8-.8-2.2-1.4-.4-.6-.7-1.3-.8-1.9-.1-.8,0-1.6.2-2.5l4.9-16.8,3.1.9-4.9,16.8c-.2.6-.1,1,0,1.4.1.2.3.3.5.4.5.2.9-.1,1.1-.5.1-.2.2-.4.3-.7l4.9-16.8,3.1.9Z"/>
    <path class="st15" d="M495.1,895l9.3-20.2,3.8,1.1-2.9,22-3-.9.7-4.5-3-.9-1.8,4.1-3-.9ZM504.4,882.3v-.6c0,0,0,0,0,0l-.2.5-2.8,6.4,2.1.6,1-6.9Z"/>
    <path class="st15" d="M512.8,877.2l3.1.9-5.3,18.2,4.1,1.2-.8,2.9-7.2-2.1,6.1-21.1Z"/>
    <path class="st15" d="M521.3,879.7l3.1.9-6.1,21.1-3.1-.9,6.1-21.1Z"/>
    <path class="st15" d="M524.7,884.1l.9-3.2,9,2.6-.9,3.2-2.9-.9-5.2,17.9-3.1-.9,5.2-17.9-2.9-.9Z"/>
    <path class="st15" d="M537.4,891.7v.2s0,0,0,0v-.2c.1,0,3.7-6.3,3.7-6.3l3,.9-6.7,11.2-2.6,9-3.1-.9,2.6-9,.4-13,3,.9-.4,7.2Z"/>
  </g>
</svg>