<?xml version="1.0" encoding="UTF-8"?>
<svg id="Capa_1" xmlns="http://www.w3.org/2000/svg" version="1.1" viewBox="0 0 2496 1804">
  <!-- Generator: Adobe Illustrator 29.3.1, SVG Export Plug-In . SVG Version: 2.1.0 Build 151)  -->
  <defs>
    <style>.st0 {
  fill: #ae0f0a;
}

.st1 {
  fill: #9c4d1a;
}

.st2 {
  fill: #e18057;
}

.st3 {
  fill: #cc6f48;
}

.st4 {
  fill: #e74122;
}

.st5 {
  fill: #ce221c;
}

.st6 {
  fill: #f29a76;
}
</style>
  </defs>
  <path class="st2" d="M2324.3,351.9c-21.2-38.2-126.6-36.6-233.6,14.1-269.7,127.8-718.7,539.6-984,478.7-74.1-17-152.9-24.1-241.5-19.6-3.1-2.8-6.3-5.6-10.5-6.6-1.5,0-3,0-4.6,0-3.1.3-5.8-.6-8.1-2.7-3.7-2.5-6.1-5.4-10.3-7-3.8-1.4-6-1.4-9.7-3.8-1.6-1.2-3.3-2.3-4.9-3.5-2.8-1.7-5.7-2.1-8.7-1.2-4.4-.4-5.5-1.6-9.3-4.9-1.7-1.5-3.3-3.1-5-4.6-3-1.7-6.3-2.6-9.8-2.6-4.3-1.1-7-3.8-10.6-6-5.9-3.6-11.9-2.1-18.2-4.4-4.5-1.6-7.4-2-12-.7-5.4,1.5-8.9.4-14.4,0-7.2-.5-11.4,3.4-18.2,4.4-4.2.6-7.3.2-11.4,2.1-1.9,1.4-3.9,2.8-5.8,4.3-4.3,3.5-9.3,5.5-14.9,5.8-3.1.9-6.2,1.7-9.3,2.6-3.2,2.2-6.3,4.3-9.5,6.5-2.9,2.5-5.8,5-8.6,7.6-4.7,3.1-9.8,5.4-15.3,6.7-8.6,3.8-16.3,10.3-24.1,15.5-2.9,2.1-5.9,4.2-8.8,6.3-5,4-10.7,6.4-17.1,7.2-2.7.6-5.4,1.2-8.1,1.7-4.2,1.9-7.9,4.5-11,7.8-6.2,5.6-12.6,10.8-19.5,15.4-2.5,1.6-4.9,3.1-7.4,4.7-5.1,2.1-10.3,4-15.6,5.5-5.5,2.8-9.2,6.6-13.9,10.3-35.3,11.3-68.9,23.5-100.2,36.6-2.2,0-4.4.2-6.6.6-5.6,1.2-10.6,4.8-15.3,8.8-147.9,65.8-239.8,149.8-225.1,227,39.1,206.3,329,374.7,641.4,291,325.7-87.4,402.4-319.6,492.5-415.3,69.7-74.1,706.9-301.4,948.4-497.2,70.5-57.1,106.9-140.7,78.8-191.4Z"></path>
  <path class="st6" d="M1220.9,942.7c-15.7-74.8-150.2-114.2-332.1-108.2,1.9,2.2,3.3,5.3,5.6,8,5.4,6.3,12.8,4.5,19.6,8.1,4.1,2.2,7.4,5.7,11.7,7.6,3.6,1.7,7,1.2,10.8,2.1,6.3,1.5,10.7,7,17,8.8,3.5,1,7,1.3,10.4,2.5,4.7,1.7,8.4,4.5,13.5,4.8,2.7.1,5.2-.2,7.8.5,6.1,1.6,7.3,7.7,11.3,11.6,2.8,2.8,3.3,1.6,6.4,2.4,3.3.9,5.1,3.4,7.7,5.5,3.4,2.8,3.2,1.6,6.8,1.9,7.9.6,10.8,10.2,18.3,11.8,1.7.4,3.6,0,5.4.1,3.9,0,5.2,1.3,8,3.9,4.8,4.4,9.1,6.7,15.6,6.9,5.8.2,10,3.7,14.9,6.3,4.7,2.6,8.8,1.5,13.8,2.4,2.5.5,5.2,1.7,7.5,2.8,2.9,1.5,5.1,3.3,7.6,5.2,2.2,1.6,2.9,1.2,5,2,.6.2,1.1.6,1.6,1,17.1,9.3,44.7-14.9,48,.8,18.2,86.8-178.7,201.7-439.9,256.5-261.2,54.8-477.3,26.8-495.5-60-4-19.2,23.2-23.8,34.4-38.8l.9-.4c1.8-2.5,3.6-5.1,5.2-7.8,2.4-3.3,4.9-5.4,7.4-8.4,3.7-4.4,7.1-9.1,9.4-14.3,1.7-3.8,2.8-6.6,5.4-9.9,6-7.6,13.9-13.9,19.3-22,4.2-6.3,4.5-13.9,10.2-18.9,5.3-4.7,9.1-6.3,13.5-13,3.6-5.6,6.9-12.6,9.5-18.7,3.2-7.4,5.4-14.9,10.6-21.2l1.4-1.1c-122.5,61.7-193.2,135.2-179.9,198.5,22,104.8,265,142.3,557,81,292-61.3,511-195.9,489-300.7Z"></path>
  <path class="st3" d="M925.6,858.3c3.6,1.7,7,1.2,10.8,2.1,6.3,1.5,10.7,7,17,8.8,3.5,1,7,1.3,10.4,2.5,4.7,1.7,8.4,4.5,13.5,4.8,2.7.1,5.2-.2,7.8.5,6.1,1.6,7.3,7.7,11.3,11.6,2.8,2.8,3.3,1.6,6.4,2.4,3.3.9,5.1,3.4,7.7,5.5,3.4,2.8,3.2,1.6,6.8,1.9,7.9.6,10.8,10.2,18.3,11.8,1.7.4,3.6,0,5.4.1,3.9,0,5.2,1.3,8,3.9,4.8,4.4,9.1,6.7,15.6,6.9,5.8.2,10,3.7,14.9,6.3,4.7,2.6,8.8,1.5,13.8,2.4,2.5.5,5.2,1.7,7.5,2.8,2.9,1.5,5.1,3.3,7.6,5.2,2.2,1.6,2.9,1.2,5,2,.6.2,1.1.6,1.6,1,17.1,9.3,44.7-14.9,48,.8-11.6-55.1-107.2-85.7-242.3-86.6,1.5,1.1,3.1,2.2,4.8,3Z"></path>
  <path class="st0" d="M1163,941.9c-3.3-15.8-30.9,8.5-48-.8-.5-.4-1-.8-1.6-1-2.2-.8-2.8-.4-5-2-2.6-1.9-4.8-3.7-7.6-5.2-2.2-1.1-4.9-2.3-7.5-2.8-5-.9-9.1.1-13.8-2.4-4.9-2.7-9.1-6.1-14.9-6.3-6.5-.2-10.8-2.6-15.6-6.9-2.8-2.6-4.1-3.8-8-3.9-1.7,0-3.6.2-5.4-.1-7.5-1.6-10.4-11.2-18.3-11.8-3.6-.3-3.4.9-6.8-1.9-2.5-2.1-4.4-4.7-7.7-5.5-3.2-.8-3.6.3-6.4-2.4-4-3.9-5.2-10-11.3-11.6-2.7-.7-5.1-.4-7.8-.5-5.2-.2-8.8-3.1-13.5-4.8-3.4-1.2-6.9-1.6-10.4-2.5-6.3-1.8-10.8-7.2-17-8.8-3.7-.9-7.2-.4-10.8-2.1-4.3-2-7.5-5.4-11.7-7.6-6.8-3.6-14.2-1.8-19.6-8.1-4.6-5.3-5.6-12.2-13.8-10.8-11.3,2-15.7-10.7-25.7-13.2-1.5,0-3,0-4.6,0-3.1.3-5.8-.6-8.1-2.7-3.7-2.5-6.1-5.4-10.3-7-3.8-1.4-6-1.4-9.7-3.8-1.6-1.2-3.3-2.3-4.9-3.5-2.8-1.7-5.7-2.1-8.7-1.2-4.4-.4-5.5-1.6-9.3-4.9-1.7-1.5-3.3-3.1-5-4.6-3-1.7-6.3-2.6-9.8-2.6-4.3-1.1-7-3.8-10.6-6-5.9-3.6-11.9-2.1-18.2-4.4-4.5-1.6-7.4-2-12-.7-5.4,1.5-8.9.4-14.4,0-7.2-.5-11.4,3.4-18.2,4.4-4.2.6-7.3.2-11.4,2.1-1.9,1.4-3.9,2.8-5.8,4.3-4.3,3.5-9.3,5.5-14.9,5.8-3.1.9-6.2,1.7-9.3,2.6-3.2,2.2-6.3,4.3-9.5,6.5-2.9,2.5-5.8,5-8.6,7.6-4.7,3.1-9.8,5.4-15.3,6.7-8.6,3.8-16.3,10.3-24.1,15.5-2.9,2.1-5.9,4.2-8.8,6.3-5,4-10.7,6.4-17.1,7.2-2.7.6-5.4,1.2-8.1,1.7-4.2,1.9-7.9,4.5-11,7.8-6.2,5.6-12.6,10.8-19.5,15.4-2.5,1.6-4.9,3.1-7.4,4.7-5.1,2.1-10.3,4-15.6,5.5-6.2,3.2-10.1,7.7-15.8,11.8-3,1.8-5.9,3.6-8.9,5.4-6.4,1.3-12.7,3-18.8,5.2-6.2,2.9-11.7,7.9-17.9,11-6.7,2.4-13.4,4.8-20.1,7-6.7,3-13.7,5-21,6.1-6,.6-12.2-.3-18.1.9-10.2,2.1-18.7,12.4-26.4,18.6-2.7,2.1-5.5,4.1-8.2,6.2-5.5,3.3-10.8,7.1-15.7,11.3-5.2,6.3-7.4,13.8-10.6,21.2-2.6,6.1-5.9,13.2-9.5,18.7-4.3,6.6-8.2,8.2-13.5,13-5.7,5.1-6,12.6-10.2,18.9-5.4,8.1-13.2,14.4-19.3,22-2.6,3.3-3.7,6.1-5.4,9.9-2.3,5.2-5.7,10-9.4,14.3-2.5,3-5,5.1-7.4,8.4-1.6,2.7-3.4,5.3-5.2,7.8l-.9.4c-11.2,14.9-38.4,19.6-34.4,38.8,18.2,86.8,234.3,114.9,495.5,60,261.2-54.8,458.1-169.7,439.9-256.5Z"></path>
  <path class="st5" d="M1116.8,957.7c-.7-1.5-1.5-3.9-2.9-4.9-1.1-.8-2.4-.7-3.5-1.4-2.2-1.4-2.4-3.2-3-5.5-.6-2.3-1.7-5.2-4.4-5.9-1.9-.5-4,.9-5.9.9-1.2,0-2.3-.3-3.4-.4-2.9-.2-6.2-.4-8.9-1.7-3.4-1.7-4.2-3.7-8.5-3.7-4.2,0-7.4,1.8-11.2-1.1-3.4-2.6-6.4-7.4-11-7.9-1.8-.2-3.5.6-5.3.2-2.4-.4-3.9-2.1-5.9-3.1-1.4-.7-3.2-1.6-4.7-1.8-1.2,0-2.7.7-3.9.4-3.1-.8-3.9-4.4-7.3-5-2.7-.5-3.7-1-5.8-2.8-1.7-1.4-3.1-2.9-5-3.9-3.6-1.9-8-5.6-12.3-4.2-5.5,1.8-8.6,8.4-13.7,11-2.4,1.2-4.8.5-7.3,1.2-3.4.9-7.9,3.4-10.9,5.1-7.1,4.1-14.8,12.7-23.5,12.2,0-5.4,4.8-9.9,8.3-13.5,3.4-3.6,7.2-6.8,11.1-9.8,2.7-2.1,5.5-4.2,8.2-6.3,1.9-1.2,3.5-2.6,4.9-4.2,1-1.7.4-3.2.4-5,0-1.2.8-6.9-.4-7.9-1.6-1.4-2.8,1-4.7.4-1.3-.9-2.5-2-3.6-3.2-1.3-.7-2.7-1-4.2-.7-5.3-.2-10.7-2.4-15.9-3.5-3.3-.7-6.6-.6-9.8-1.6-4.6-1.4-8.2-4.1-12.1-6.8-4.7-3.3-11.1-4.6-16.7-5-5.1-.4-7.9.3-12.1-2.7-5.6-4.1-12.8-9.1-20-8.9-4.2,0-8.6,1.5-12.5,3-5.3,2.1-10.5,4.5-15.6,7.1-4.6,2.7-9.6,4-14.9,4-1.9-3.3-2.1-2.6.2-7.5,1-2.2,2.3-4.3,3.6-6.3,2.5-3.8,5.2-7.5,7.6-11.4,1.4-2.3,2.6-4.3,1.4-6.6-.3-.5-1.3-.7-1.8-1.1-1.8-1.6-2.4-3.5-4.3-5-2.6-1.9-5.7-1.9-8.5-3.6-2.8-1.7-3.5-3.9-5.9-5.9-3.1-2.7-4-1.9-8-2.5-2.6-.3-4.8-1.7-7-3-8.2-5-17.6-7.5-25.8-12.8-3.6-2.3-7.6-5.5-11.4-7.2-4.8-2.1-9.7-2.8-14.7-4-16.8-4.1-35-12-52.3-4.4-7.1,3.2-14,10.6-20,15-5.4,4-11.1,7.8-16.8,11.4-15.9,10-32.6,18.5-47.9,29.6-15.1,11-31.2,20.4-46.4,31.2-5.5,3.9-19.8,12.7-20.6,20.1-.5,4.7.5,8.2,3.1,11.9,2.5,3.7,5.3,6.3,9,8.9,3.2,2.3,9.6,4.1,12.5,7.5,7.3,8.7-.9,18.7-8.6,23.3-11.3,6.7-25.3,4.9-36.8,10.8-4.2,2.1-7.4,4.3-10.2,8.3-2.2,3.2-3.4,7.4-5.4,10.7-5.3,8.9-14.8,15.5-18,25.4-.7,2.2-2.2,6.9-1,9.3,2.2,4.3,4.4.2.9,6-4.3,7.1-6.8,14.3-7.9,22.4-.7,4.9-1.2,9.6,2.6,13.6,2.9,3.1,13,6.8,15.7,8.2,3,1.5,5.9,2.9,8.9,4.4-2.8.7-5.6,1.4-8.5,1.5-4.4.2-6.7.2-9.6,4-5.6,7.5-8,18.3-6.2,27.4,1.2,6,2.9,10.3,2.8,16.7,0,1.3-1.9,11.7-.9,13.7,1.3,2.6,2,1.9,3,5.8,1.7,6.8.8,14.6.8,21.6,0,5,.6,7.7,3.5,11.6,3.5,4.7,8,12.7,13.9,13.9,3.7.8,7.4-.7,11.3-.4,7.7.5,13.8,2.3,21.3-1,5.7-2.5,10.4-7.4,17-6.5,2.2.9,4.4,1.8,6.6,2.8,4.2,2.2,8.5,2.6,12.8,1.3,10.6-1.6,19.5-7.6,29.7-10.7,9.9-3,17.6-2.5,27.5-.8,8.7,1.5,17.5,1.8,26.3.1,11.9-2.2,21.9-10.7,33.8-11.8,6.7-.6,12.7,2.1,19.4,2.2,12.2,0,24.1-5.3,35-10.7,3.8-2.2,7.6-4.4,11.4-6.5,5.5-3.5,11.4-5.5,17.7-6,13.6-2.6,26.8-6.5,40.4-9.3,14.7-3.1,29.9-2.7,43.6-10.3,10.8-6,19.7-14.7,31.2-19.2,14.2-5.6,28.8-9,42.8-15.6,15.1-7.2,30.3-14.2,45.6-20.8,9.8-4.2,19.4-8.8,29.1-13.3,5.9-2.5,11.6-5.6,17-9.2,4.4-3.7,7.4-8.3,9.1-13.9,4.7-6.7,15.2-9.8,21.8-13.8,10.1-5.7,18.5-13.4,25.3-23.2,3.3-3.6,3.6-7,1.1-10.3-.8-.9-2.7-1.7-4.6-2.5,4.8-1.3,9.6-3.1,13.8-5.2,6.1-3.1,8.6-7.2,6.9-11.7Z"></path>
  <path class="st1" d="M2239.4,402.1c8,16-5.5,39-30.2,51.3-24.7,12.3-51.2,9.3-59.2-6.7-8-16,5.5-39,30.2-51.3,24.7-12.3,51.2-9.3,59.2,6.7Z"></path>
  <path class="st4" d="M716.2,795.2c1.4-.3,1.7-1.5,2.6-2.4,1.5-1.5,3.2-2.4,5.3-3,2.5-.7,2.9.2,5.1,1.3,1.8.9,3.6,1.5,5.2,2.5,1.1.7,3.5,2.8,4.8,2.7,2.2-.1,2.1-1.9,4.5-.7,2.4,1.2,4.2,2.1,7,2,3.2,0,4.2.7,6.6,3.3,2.5,2.7,4.2,6.1,8.2,5.9,2.2-.1,3.9-1.3,6.1-.5,2.8,1.1,6.1,4.3,8.7,5.8,3.3,2,6.8,2,10.3,3.5,2.2,1,4,2.6,6.2,3.5,1.7.7,3.6.7,5.4,1.3,4.5,1.5,6.4,6.4,11.6,6.7,1.5,0,1.3-.6,2.8.6,1.8,1.3,2,2.5,4.3,3.4,3.6,1.5,6.5,4.3,10,5.7.8.3,1.8.2,2.5.7,1.2.8,1.9,3.4,2.8,4.6-2.4,1.7-5.6,7.2-6.5,10-.5,1.5,0,2.6-.4,4-.4,1.8-1.8,3.2-2.2,5.1-.4,2.5-.4,3.4-2.2,5.4-1.3,1.4-2.5,2.8-3.3,4.6-.6,1.3-.5,2.3-1.8,3.2-1.7.5-3.3,1.3-4.8,2.3-1.9,1.6-3.5,3.5-5,5.5-1.4-.3-.8-2.3-1-3.4-.6-3.2-2-5.9-3.5-8.7-1.3-2.5-1.9-4-2-6.9,0-2.3,0-4.2-.5-6.5-1.1-4.8-3.7-11.4-8.7-12.4-3.7-.7-5.1.3-8.5-1.9-4.9-3.1-8.6-8.6-14-10.8-3-1.2-6.2-1.9-9.1-3.4-4.4-2.3-8.2-5.8-12.6-8.1-4.4-2.3-9-3.2-13.6-4.8-2.8-1-4.7-1.8-6.3-4.3-1.3-2-2.1-4.4-3.7-6.3-1.5-1.7-3.3-2.4-5.1-3.6-1.2-.8-2-1.4-2.8-2.5-2.6-3.5-1.1-2.6-2.6-3.8Z"></path>
  <path class="st4" d="M853.9,873.4c3.9-1.3,8.1-4.5,12.5-4.2.9,0,1.7.6,2.7.6,1.3,0,3.7-1.5,4.8-2.3,2-1.3,2.5-2.3,5-2.7,4.1-.7,7.6-1.7,10.8,1.3,1.8,1.6,1.8,1.6,3,3.8.9,1.7,1.4,2.5,3.4,2.7,1.1.1,1.9-.4,3.2,0,1.9.6,3.5,2.4,5.4,3.3,3.4,1.6,6.4.2,9.7,2.3,1.9,1.2,3.6,3,5.7,4,1.8.8,3.6.6,5.5.8,4.2.3,8.3,3,12.2,4.6,4.7,2,10.6,1.9,15.7,2.9,4.3.8,8.4-1.4,12,2.1,3.1,3,.8,6-1.5,8.8-2.4,3-5.5,3.9-8.7,5.7-2.4,1.4-4,3-5.8,5.1-4,4.6-9,13-15.4,14.4-4.3-4.8-1.6-9.5-2.9-15.2-1-4.6-4.3-3.9-8-4.3-7.5-.9-12.1-3.5-16.4-9.8-1.3-3.3-3.5-5.7-6.7-7.1-2.6-.3-5.3-.5-7.9-.7-5.3-.4-12.8-1.3-17-5.1-1-1.9-2.5-3.2-4.5-3.9-1.9,0-3.8.2-5.7.5-3.4.2-3.5.2-5.8-2-1.6-1.5-4.6-1.7-5.2-5.5Z"></path>
  <path class="st4" d="M944.1,947.1c2.8-1.6,6.3-4.9,9.8-4.9,1.6,0,2.7.5,4.3.3,3.1-.4,5.9-2.1,8.7-3.5,4.7-2.4,8.2-5.8,12.6-8.4,2.9-1.7,5.9-2.3,9.2-2.8,3.8-.6,8-1,11.3-3.2,2.6-1.8,3.9-3.8,7-5,3.6-1.4,5.2-.9,8.5.4,1.9.8,3.9,1,5.8,1.7,1.2.4,2.5,1.5,3.7,1.8,2.2.6,4.6-.4,6.6,1.1,2.5,1.8,3.2,5.4,5.7,7.4,2.8,2.3,6.3,5.2,9.4,6.9,3.5,1.9,7.8,2.4,11.7,3,4.5.7,9.7.7,13.5,3.6,1.6,1.3,2.8,3,4.4,4.3,1.4,1.1,3.2,1.6,4.6,2.7,2.9,2,5.1,5.1,8.2,6.9,2.6,1.5,9,2.6,12.1,2.2-1.9,2-4.8,3.3-7.3,4.2-4.2,1.6-8.3,3.7-12.7,4.6-8.7,1.8-17.7,2.2-26.2,4.7-7.3,2.1-11.1,3.5-15.4-3.6-2.3-3.7-3.4-7.6-4.8-11.7-1.2-3.5-2-3-5.2-3.6-4.8-1-10.7-4.4-14-7.9-3.4-3.6-4.6-9-9.4-11-9.2-4-17.5,1.1-25.8,4.9-6.7,3.1-14.3,4.5-21.2,7.1-3.8,1.4-5,.7-8.9.4-2.4-.2-7.7.9-6-2.4Z"></path>
  <path class="st4" d="M703.3,837.3c-3.2.5-2.3,5.5.9,5,3.2-.5,2.4-5.5-.9-5Z"></path>
  <path class="st4" d="M604.2,1061.8c-3.2.5-2.3,5.5.9,5,3.2-.6,2.4-5.5-.9-5Z"></path>
  <path class="st4" d="M712.8,893.9c-.1-.9-.5-1.6-1.1-2.3-.5-.9-1.1-1.6-1.9-2.2h0c-.6-.9-1.3-1.4-2.1-1.8-.5-.4-1.1-.6-1.7-.6-.9-.3-1.8-.3-2.8-.1-.6.2-1.2.4-1.8.6h-.2c-.5.3-1.1.5-1.6.6l-.5.3c-.9.5-1.9.9-2.7,1.7l-.7.6-1.4,1.3c-.6.5-1.1,1-1.5,1.7-.9,1.3-1.4,2.7-1.6,4.3-.2,1.6.1,3.2.8,4.7.7,1.4,1.7,2.6,2.9,3.5.7.4,1.5.8,2.2,1.2h.3c0,.1.5.3.5.3.8.2,1.7.4,2.6.6h.3s1.4,0,1.4,0c.9,0,1.8,0,2.6-.4l1.4-.4h.3c0-.1.5-.4.5-.4.8-.5,1.6-1,2.4-1.5h.1c0,0,1.8-2,1.8-2l.6-1.2.6-1.2h0c0-.1.1-.4.1-.4l.2-.6c.2-.8.4-1.6.6-2.4.2-1.3,0-2.6-.5-3.8Z"></path>
  <path class="st4" d="M657.4,1131.3c-.1-.9-.5-1.6-1.1-2.3-.5-.9-1.1-1.6-1.9-2.2h0c-.6-.9-1.3-1.4-2.1-1.8-.5-.4-1.1-.6-1.7-.6-.9-.3-1.8-.3-2.8-.1-.6.2-1.2.4-1.8.6h-.2c-.5.3-1.1.5-1.6.6l-.5.3c-.9.5-1.9.9-2.7,1.7l-.7.6-1.4,1.3c-.6.5-1.1,1-1.5,1.7-.9,1.3-1.4,2.7-1.6,4.3-.2,1.6.1,3.2.8,4.7.7,1.4,1.7,2.6,2.9,3.5.7.4,1.5.8,2.2,1.2h.3c0,.1.5.3.5.3.8.2,1.7.4,2.6.6h.3s1.4,0,1.4,0c.9,0,1.8,0,2.6-.4l1.4-.4h.3c0-.1.5-.4.5-.4.8-.5,1.6-1,2.4-1.5h.1c0,0,1.8-2,1.8-2l.6-1.2.6-1.2h0c0-.1.1-.4.1-.4l.2-.6c.2-.8.4-1.6.6-2.4.2-1.3,0-2.6-.5-3.8Z"></path>
  <path class="st4" d="M734.9,856.7c-.3-.6-.7-1.1-1.3-1.5l-.9-.5c-.7-.2-1.4-.3-2.1-.2-.5,0-1,.3-1.4.6l-1.1,1-.6,1.4c-.2.5-.2,1,0,1.6l.3,1c.3.6.7,1.1,1.3,1.5l.9.5c.7.2,1.4.3,2.1.2.5,0,1-.3,1.4-.6l1.1-1,.6-1.4c.2-.5.2-1,0-1.6l-.3-1Z"></path>
  <path class="st4" d="M749.9,879.7c-3.9.7-2.9,6.8,1,6.1,3.9-.7,2.9-6.8-1-6.1Z"></path>
  <path class="st4" d="M763.8,907.6h-.6c-5.8,1.4-4.3,9.9,1.6,9.2h.6c5.9-.8,4.3-10.5-1.6-9.2Z"></path>
  <path class="st4" d="M718.2,1015c-.7-1.5-1.8-2.8-3.2-3.8-.7-.4-1.5-.8-2.2-1.2-1.6-.6-3.3-.8-5-.5-1.3.2-2.5.7-3.5,1.5-1.1.6-2,1.4-2.7,2.5-.8,1-1.3,2.2-1.4,3.4-.4,1.2-.5,2.5-.2,3.8.3.8.5,1.7.8,2.5.7,1.5,1.8,2.8,3.2,3.8.7.4,1.5.8,2.2,1.2,1.6.6,3.3.8,5,.5,1.3-.2,2.5-.7,3.5-1.5,1.1-.6,2-1.4,2.7-2.5.8-1,1.3-2.2,1.4-3.4.4-1.2.5-2.5.2-3.8-.3-.8-.5-1.7-.8-2.5Z"></path>
  <path class="st4" d="M855.5,1083.4c-.7-1.5-1.8-2.8-3.2-3.8-.7-.4-1.5-.8-2.2-1.2-1.6-.6-3.3-.8-5-.5-1.3.2-2.5.7-3.5,1.5-1.1.6-2,1.4-2.7,2.5-.8,1-1.3,2.2-1.4,3.4-.4,1.2-.5,2.5-.2,3.8.3.8.5,1.6.8,2.5.7,1.5,1.8,2.8,3.2,3.8.7.4,1.5.8,2.2,1.2,1.6.6,3.3.8,5,.5,1.3-.2,2.5-.7,3.5-1.5,1.1-.6,2-1.4,2.7-2.5.8-1,1.3-2.2,1.4-3.4.4-1.2.5-2.5.2-3.8-.3-.8-.5-1.6-.8-2.5Z"></path>
  <path class="st4" d="M815.6,910c-5,.9-3.7,8.7,1.3,7.8,5-.9,3.7-8.7-1.3-7.8Z"></path>
  <path class="st4" d="M863.6,936.9c-.5-1-1.2-1.8-2.1-2.5l-1.4-.8c-1.1-.4-2.2-.5-3.3-.3-.9.1-1.6.4-2.3.9-.7.4-1.3.9-1.8,1.6-.5.7-.8,1.4-.9,2.2-.3.8-.3,1.6-.1,2.5.2.5.3,1.1.5,1.6.5,1,1.2,1.8,2.1,2.5l1.4.8c1.1.4,2.2.5,3.3.3.9-.1,1.6-.4,2.3-.9.7-.4,1.3-.9,1.8-1.6.5-.7.8-1.4.9-2.2.3-.8.3-1.6.1-2.5-.2-.5-.3-1.1-.5-1.6Z"></path>
  <path class="st4" d="M711.9,1121.5c-.5-1-1.2-1.8-2.1-2.5l-1.4-.8c-1.1-.4-2.2-.5-3.3-.3-.9.1-1.6.4-2.3.9-.7.4-1.3.9-1.8,1.6-.5.7-.8,1.4-.9,2.2-.3.8-.3,1.6-.1,2.5.2.5.3,1.1.5,1.6.5,1,1.2,1.8,2.1,2.5l1.4.8c1.1.4,2.2.5,3.3.3.9-.1,1.6-.4,2.3-.9.7-.4,1.3-.9,1.8-1.6.5-.7.8-1.4.9-2.2.3-.8.3-1.6.1-2.5-.2-.5-.3-1.1-.5-1.6Z"></path>
  <path class="st4" d="M925.2,960.8c-5.7,1-9.7,6.6-8.7,12.3,1,5.7,6.6,9.7,12.3,8.7,5.7-1,9.7-6.6,8.7-12.3-1-5.7-6.6-9.7-12.3-8.7Z"></path>
  <path class="st4" d="M980.8,1009.4c-5.7,1-9.7,6.6-8.7,12.3,1,5.7,6.6,9.7,12.3,8.7,5.7-1,9.7-6.6,8.7-12.3-1-5.7-6.6-9.7-12.3-8.7Z"></path>
  <path class="st4" d="M891.7,921c-.3-.7-.8-1.2-1.4-1.6l-.9-.5c-.7-.3-1.4-.3-2.2-.2-.6,0-1.1.3-1.5.6l-1.2,1.1c-.3.4-.5.9-.6,1.5-.2.5-.2,1.1,0,1.7l.3,1.1c.3.7.8,1.2,1.4,1.6l.9.5c.7.3,1.4.3,2.2.2.6,0,1.1-.3,1.5-.6l1.2-1.1c.3-.4.5-.9.6-1.5.2-.5.2-1.1,0-1.6l-.3-1.1Z"></path>
  <path class="st4" d="M920.1,1029.4c-.3-.7-.8-1.2-1.4-1.6l-.9-.5c-.7-.3-1.4-.3-2.2-.2-.6,0-1.1.3-1.5.6l-1.2,1.1c-.3.4-.5.9-.6,1.5-.2.5-.2,1.1,0,1.7l.3,1.1c.3.7.8,1.2,1.4,1.6l.9.5c.7.3,1.4.3,2.2.2.6,0,1.1-.3,1.5-.6l1.2-1.1c.3-.4.5-.9.6-1.5.2-.5.2-1.1,0-1.6l-.3-1.1Z"></path>
  <polygon class="st4" points="863.8 974.5 863 973.4 861.8 972.5 860.3 972.4 859.6 972.6 858.4 973.6 858 974.6 858 975.7 858.6 977.1 859.8 977.9 861.1 978.3 861.8 978.5 862.7 978.4 863.3 978.1 864 977.5 864.2 976.9 864.4 976.3 864.3 975.4 863.8 974.5"></polygon>
  <polygon class="st4" points="1044.1 997.6 1043.3 996.5 1042.1 995.6 1040.6 995.5 1039.8 995.7 1038.7 996.7 1038.3 997.7 1038.2 998.8 1038.9 1000.2 1040.1 1001 1041.4 1001.4 1042 1001.6 1043 1001.5 1043.6 1001.2 1044.2 1000.6 1044.5 1000 1044.7 999.4 1044.5 998.5 1044.1 997.6"></polygon>
  <path class="st4" d="M793.5,985.4c-4.4.8-3.2,7.5,1.2,6.8,4.4-.8,3.2-7.5-1.2-6.8Z"></path>
  <path class="st4" d="M803.7,933.3c-3.6.6-2.7,6.3,1,5.7,3.6-.6,2.7-6.3-1-5.7Z"></path>
  <polygon class="st4" points="756.8 963.6 756.4 962.9 755.8 962.3 755 961.9 754.2 961.7 753 961.9 752.2 962.3 751.3 963.1 750.9 963.7 750.6 964.6 750.5 965.5 750.7 966.1 751.5 967.1 752.1 967.6 752.8 967.9 753.6 968.1 754.9 968 755.6 967.6 756.3 967.1 756.7 966.4 757 965.7 757.1 964.4 756.8 963.6"></polygon>
  <polygon class="st4" points="885.1 1065.4 884.6 1064.7 884 1064.2 883.3 1063.8 882.5 1063.6 881.2 1063.7 880.4 1064.1 879.5 1064.9 879.2 1065.6 878.8 1066.4 878.8 1067.4 878.9 1068 879.7 1068.9 880.3 1069.4 881 1069.8 881.8 1070 883.1 1069.8 883.9 1069.5 884.5 1068.9 885 1068.3 885.3 1067.5 885.3 1066.2 885.1 1065.4"></polygon>
  <polygon class="st4" points="815.4 1089.5 815 1088.8 814.4 1088.2 813.7 1087.8 812.9 1087.6 811.6 1087.8 810.8 1088.1 809.9 1089 809.5 1089.6 809.2 1090.5 809.1 1091.4 809.3 1092 810.1 1093 810.7 1093.5 811.4 1093.8 812.2 1094 813.5 1093.9 814.3 1093.5 814.9 1093 815.4 1092.3 815.6 1091.5 815.7 1090.3 815.4 1089.5"></polygon>
  <polygon class="st4" points="709.2 1086.2 708.7 1085.5 708.1 1084.9 707.4 1084.5 706.6 1084.3 705.3 1084.5 704.6 1084.8 703.7 1085.7 703.3 1086.3 702.9 1087.2 702.9 1088.1 703.1 1088.7 703.9 1089.7 704.4 1090.2 705.2 1090.5 706 1090.7 707.2 1090.6 708 1090.2 708.6 1089.7 709.1 1089 709.4 1088.3 709.4 1087 709.2 1086.2"></polygon>
  <path class="st4" d="M689.4,960.3c-3.8.7-2.8,6.5,1,5.9,3.8-.6,2.8-6.5-1-5.9Z"></path>
  <path class="st4" d="M640.1,1051.9c-3.8.7-2.8,6.5,1,5.9,3.8-.6,2.8-6.5-1-5.9Z"></path>
  <polygon class="st4" points="728.1 974 727.8 973.5 727.3 973.1 726.8 972.8 726.2 972.7 725.2 972.8 724.6 973 724 973.7 723.5 974.2 723.2 974.9 723.2 975.5 723.3 976 723.9 976.6 724.5 977 725.1 977.3 725.7 977.5 726.6 977.3 727.2 977.1 727.7 976.7 728 976.2 728.2 975.6 728.3 974.7 728.1 974"></polygon>
  <path class="st4" d="M660,1023.6c-3.9.7-2.9,6.8,1,6.1,3.9-.7,2.9-6.8-1-6.1Z"></path>
  <path class="st4" d="M723.6,924.4c-2.8.5-2,4.8.7,4.3,2.8-.5,2-4.8-.7-4.3Z"></path>
  <path class="st4" d="M679.2,990.1c-2.8.5-2,4.8.7,4.3,2.8-.5,2-4.8-.7-4.3Z"></path>
  <path class="st4" d="M785.1,864c-.4-.9-1-1.6-1.8-2.2l-1.3-.7c-.9-.4-1.9-.4-2.9-.3-.8.1-1.5.4-2.1.8-.6.3-1.2.8-1.6,1.5-.5.6-.7,1.3-.8,2-.2.7-.3,1.5-.1,2.2l.5,1.4c.4.9,1,1.6,1.8,2.2l1.3.7c.9.4,1.9.4,2.9.3.8-.1,1.5-.4,2.1-.8.6-.3,1.2-.8,1.6-1.5.5-.6.7-1.3.8-2,.2-.7.3-1.5.1-2.2l-.5-1.4Z"></path>
  <path class="st4" d="M701,811.4c-4.2.7-3.1,7.3,1.1,6.6,4.2-.7,3.1-7.3-1.1-6.6Z"></path>
  <path class="st4" d="M676.8,864.6c-.3-.6-.7-1.1-1.3-1.5l-.9-.5c-.7-.2-1.4-.3-2.1-.2-.5,0-1,.3-1.4.6l-1.1,1-.6,1.4c-.2.5-.2,1,0,1.6l.3,1c.3.6.7,1.1,1.3,1.5l.9.5c.7.2,1.4.3,2.1.2.5,0,1-.3,1.4-.6l1.1-1,.6-1.4c.2-.5.2-1,0-1.6l-.3-1Z"></path>
  <path class="st4" d="M971.3,976c-4.5.8-3.3,7.8,1.2,7,4.5-.8,3.3-7.8-1.2-7Z"></path>
  <path class="st4" d="M926.4,998.6c-4.5.8-3.3,7.8,1.2,7,4.5-.8,3.3-7.8-1.2-7Z"></path>
  <path class="st4" d="M1005.8,966.8c-3.2.6-2.4,5.5.9,5,3.2-.5,2.3-5.5-.9-5Z"></path>
  <path class="st4" d="M992.1,948.5c-2.5.4-1.8,4.3.7,3.8,2.5-.4,1.8-4.3-.7-3.8Z"></path>
  <path class="st4" d="M874.6,1033.4c-2.5.4-1.8,4.3.7,3.8,2.5-.4,1.8-4.3-.7-3.8Z"></path>
  <path class="st4" d="M994.1,985.2c-2.6.5-1.9,4.5.7,4.1,2.6-.5,1.9-4.5-.7-4.1Z"></path>
  <path class="st4" d="M970.7,959.9c-2.2.4-1.6,3.8.6,3.4,2.2-.4,1.6-3.8-.6-3.4Z"></path>
  <path class="st4" d="M842.9,1013c-4.4.8-3.2,7.5,1.2,6.8,4.4-.8,3.2-7.5-1.2-6.8Z"></path>
  <path class="st4" d="M880.8,955.8c-9.3,1.6-6.8,16.1,2.5,14.5,9.3-1.6,6.8-16.1-2.5-14.5Z"></path>
  <path class="st4" d="M832.2,963.7c-.4-.8-1-1.4-1.8-1.9-.7-.6-1.5-.9-2.4-1-.9-.3-1.8-.3-2.7-.1-.6.2-1.2.4-1.7.5-1.1.5-2,1.3-2.7,2.2l-.8,1.5c-.4,1.2-.5,2.3-.3,3.5.2.6.4,1.2.5,1.7.4.8.9,1.5,1.6,2.1.6.6,1.3,1.1,2.2,1.4.6.3,1.1.4,1.7.4.6,0,1.2.1,1.9,0,.6-.1,1.2-.3,1.7-.6.5-.2,1-.5,1.5-.9l1.2-1.3c.6-.7.9-1.5,1-2.4.3-.9.3-1.8.1-2.7-.1-.9-.5-1.8-1-2.5Z"></path>
  <path class="st4" d="M768.7,1019.8c-5.2.9-3.8,8.9,1.4,8,5.2-.9,3.8-8.9-1.4-8Z"></path>
  <path class="st4" d="M748.4,982.4c-4.6.8-3.4,7.9,1.2,7.1,4.6-.8,3.4-7.9-1.2-7.1Z"></path>
  <path class="st4" d="M746.8,1078.6c-4.6.8-3.4,7.9,1.2,7.1,4.6-.8,3.4-7.9-1.2-7.1Z"></path>
  <path class="st4" d="M657.4,1070.1c-4.6.8-3.4,7.9,1.2,7.1,4.6-.8,3.4-7.9-1.2-7.1Z"></path>
  <path class="st4" d="M773.7,946.2c0-.5-.3-1-.7-1.4l-1-1.2-1.3-.9c-.4-.3-.9-.5-1.5-.5-.8-.3-1.6-.3-2.4-.1l-1.6.5-1.3.8-1.1,1.1-.7,1.4-.4,1.5c-.1.8,0,1.6.3,2.4,0,.5.3,1,.7,1.4.4.7.9,1.3,1.6,1.7l.4.3c.6.5,1.3.7,2,.8.7.2,1.5.3,2.2.1l1.4-.5c.9-.4,1.6-1,2.2-1.8l.3-.4.7-1.4.4-1.5c.1-.8,0-1.6-.3-2.4Z"></path>
  <path class="st4" d="M721.7,944.5c-4.7.8-3.4,8,1.2,7.2,4.7-.8,3.4-8-1.2-7.2Z"></path>
  <path class="st4" d="M678.5,921.3c-8.4,1.4-6.1,14.4,2.2,13,8.4-1.4,6.1-14.4-2.2-13Z"></path>
  <path class="st4" d="M625.7,1006c-.6-1.2-1.4-2.2-2.4-2.9-1.1-.8-2.3-1.2-3.6-1.3h-.5c-1.3-.1-2.5,0-3.7.6-1.1.5-2.1,1.3-2.8,2.3-.7,1-1.1,2.2-1.3,3.4-.1,1.3,0,2.5.6,3.7l.2.5c.6,1.2,1.4,2.2,2.4,2.9,1.1.8,2.3,1.2,3.6,1.3,1.4.1,2.7,0,3.9-.7,1.2-.6,2.2-1.4,2.9-2.4.8-1.1,1.2-2.3,1.3-3.6.1-1.4,0-2.7-.7-3.9Z"></path>
  <path class="st4" d="M752.4,1109.4c-.6-1.2-1.4-2.2-2.4-2.9-1.1-.8-2.3-1.2-3.6-1.3h-.5c-1.3-.1-2.5,0-3.7.6-1.1.5-2.1,1.3-2.8,2.3-.7,1-1.1,2.2-1.3,3.4-.1,1.3,0,2.5.6,3.7l.2.5c.6,1.2,1.4,2.2,2.4,2.9,1.1.8,2.3,1.2,3.6,1.3,1.4.1,2.7,0,3.9-.7,1.2-.6,2.2-1.4,2.9-2.4.8-1.1,1.2-2.3,1.3-3.6.1-1.4,0-2.7-.7-3.9Z"></path>
  <path class="st4" d="M562.1,1091.8c-.6-1.2-1.4-2.2-2.4-2.9-1.1-.8-2.3-1.2-3.6-1.3h-.5c-1.3-.1-2.5,0-3.7.6-1.1.5-2.1,1.3-2.8,2.3-.7,1-1.1,2.2-1.3,3.4-.1,1.3,0,2.5.6,3.7l.2.5c.6,1.2,1.4,2.2,2.4,2.9,1.1.8,2.3,1.2,3.6,1.3,1.4.1,2.7,0,3.9-.7,1.2-.6,2.2-1.4,2.9-2.4.8-1.1,1.2-2.3,1.3-3.6.1-1.4,0-2.7-.7-3.9Z"></path>
  <path class="st4" d="M612.8,897.7c-5.5,1-4.1,9.5,1.5,8.6,5.5-1,4.1-9.5-1.5-8.6Z"></path>
  <path class="st4" d="M631,944.7c-.3-.6-.7-1.1-1.3-1.5l-.9-.5c-.6-.2-1.3-.3-2-.2l-1.4.6-1.1,1-.6,1.4v1.5c0,0,.2,1,.2,1,.3.6.7,1.1,1.3,1.5l.9.5c.6.2,1.3.3,2,.2l1.4-.6,1.1-1,.6-1.4v-1.5c0,0-.2-1-.2-1Z"></path>
  <path class="st4" d="M647.7,952.1c-7,1.2-5.1,12.1,1.9,10.8,7-1.2,5.1-12.1-1.9-10.8Z"></path>
  <path class="st4" d="M577.4,1123.9c-7,1.2-5.1,12.1,1.9,10.8,7-1.2,5.1-12.1-1.9-10.8Z"></path>
  <path class="st4" d="M552.4,996.8c-11.4,2-8.4,19.7,3.1,17.7,11.4-2,8.4-19.7-3.1-17.7Z"></path>
  <path class="st4" d="M558,967.7c-4.2.7-3.1,7.3,1.1,6.6,4.2-.7,3.1-7.3-1.1-6.6Z"></path>
  <path class="st4" d="M586.6,998.5c-4.7.8-3.4,8,1.2,7.2,4.7-.8,3.4-8-1.2-7.2Z"></path>
  <path class="st4" d="M618.3,1125.8c-4.7.8-3.4,8,1.2,7.2,4.7-.8,3.4-8-1.2-7.2Z"></path>
  <path class="st4" d="M556.3,1044.6c-5.2.9-3.8,9,1.4,8.1,5.2-.9,3.8-9-1.4-8.1Z"></path>
  <path class="st4" d="M545.7,1154.3c-5.2.9-3.8,9,1.4,8.1,5.2-.9,3.8-9-1.4-8.1Z"></path>
  <path class="st4" d="M600.8,963.4c-4.3.7-3.2,7.4,1.1,6.7,4.3-.7,3.2-7.4-1.1-6.7Z"></path>
  <path class="st4" d="M590.8,893.3c-3.8.7-2.8,6.5,1,5.9,3.8-.6,2.8-6.5-1-5.9Z"></path>
  <path class="st4" d="M650.6,895.4c-4.3.7-3.2,7.4,1.1,6.7,4.3-.7,3.2-7.4-1.1-6.7Z"></path>
  <path class="st4" d="M646.2,853.4h-.1c0-.1-.1-.3-.1-.3h0s-.5-.4-.5-.4h-.2c0-.1,0-.1,0-.1h-.2c0,0,0,0,0,0h0c-.3-.1,0-.2-.8-.2h-.8s-1.2.5-1.2.5l-.3.2-.7,1-.3.8v1.2c0,0,0,.4,0,.4l.6,1.1.6.5,1.1.5h.4c0,0,1.2,0,1.2,0l1.1-.6.5-.6.2-.4.4-1.2v-.8c-.1-.6-.4-1.1-.7-1.5Z"></path>
  <path class="st4" d="M710.8,856.4c-.7-1.4-1.6-2.5-2.8-3.4-.7-.3-1.3-.7-2-1-1.5-.5-3-.7-4.5-.4-1.2.2-2.2.6-3.2,1.3-1,.5-1.8,1.3-2.4,2.2-.7.9-1.1,1.9-1.3,3-.4,1.1-.4,2.2-.2,3.4.2.7.5,1.5.7,2.2.7,1.4,1.6,2.5,2.8,3.4.7.3,1.3.7,2,1,1.5.5,3,.7,4.5.4,1.2-.2,2.2-.6,3.2-1.3,1-.5,1.8-1.3,2.4-2.2.7-.9,1.1-1.9,1.3-3,.4-1.1.4-2.2.2-3.4-.2-.7-.5-1.5-.7-2.2Z"></path>
  <path class="st5" d="M404.7,960.6c-.4-1-1.1-1.8-1.9-2.5-.5-.5-1-.9-1.7-1.2-.6-.4-1.2-.7-1.9-.7-.7-.3-1.4-.3-2.1-.2-1.1,0-2.2.2-3.2.7l-1.4.9h0s-1.9,1.3-1.9,1.3l-.8.9-.8.9v.2c-.1,0-.6.6-.6.6-.7,1.1-1.3,2.3-1.9,3.4h0c0,.1-.3,1.4-.3,1.4l-.3,1.3c0,.8,0,1.7,0,2.5h0c.2,1.4.6,2.5,1.4,3.5.6,1.1,1.4,2,2.4,2.6l2.1,1.1c1.2.5,2.4.7,3.6.5h1.3c.8-.3,1.6-.6,2.4-.8.7-.4,1.4-.9,2-1.3,1.3-1,1.5-1.6,2.2-2.9l.6-1.1c.2-.8.4-1.6.6-2.4v-.2s0,0,0,0h0c0-.1.3-1.3.3-1.3l.3-.7c.2-.7.3-1.4.5-2.1,0-.7,0-1.5,0-2.2-.2-.7-.4-1.4-.7-2.1Z"></path>
  <path class="st5" d="M408.9,1007.1l-.6-1-.9-.8-1-.5-1.1-.3c-.6,0-1.2,0-1.8.2l-1.1.5-1.3,1.2-.4.5-.6,1.4c-.2.5-.2,1,0,1.6l.3,1c.3.6.7,1.1,1.3,1.5l.5.3,1,.5,1.1.3c.6,0,1.2,0,1.8-.2l1.1-.5.9-.7.7-.9.4-1.1c.2-.6.2-1.2,0-1.8l-.4-1.2Z"></path>
  <polygon class="st5" points="434.6 1003 433.9 1002 433.2 1001.5 431.9 1001.1 431.3 1001 431 1001 430.8 1000.9 430.8 1000.9 430.2 1001 429.9 1001 429.2 1001.4 428.8 1001.8 428.6 1002.3 428.4 1002.9 428.4 1003.1 428.3 1003.4 428.2 1004.1 428.3 1005 428.5 1005.9 429.3 1006.9 430 1007.4 430.8 1007.7 431.7 1007.8 432.6 1007.6 433.8 1007 434.3 1006.4 434.8 1005.6 435 1004.8 434.9 1003.9 434.6 1003"></polygon>
  <path class="st5" d="M455.8,963.3l-.4-.3c-3.3-2.2-7.9.5-7.2,4.5.7,4,5.9,5,8.3,1.9l.3-.4c1.3-1.7.8-4.6-1-5.8Z"></path>
  <path class="st5" d="M452.1,1025c-4.4.8-3.3,7.7,1.2,6.9,4.4-.8,3.3-7.7-1.2-6.9Z"></path>
  <path class="st5" d="M458.5,1081l-.5-1-1.1-1.2h-.2c0-.1,0-.2,0-.2-.6-.4-1.2-.6-1.8-.7h-1s-1,.3-1,.3c-.6.3-1.1.7-1.5,1.3h0c0,0-.1.3-.1.3l-.5.9-.2,1.1c0,.6,0,1.1.2,1.7l.5,1,.7.8.9.6,1,.4c.5.2,1.1.2,1.6,0l1.1-.3.9-.6.7-.8.5-.9.2-1.1c0-.6,0-1.1-.2-1.7Z"></path>
  <path class="st5" d="M385.1,1059.9c-.5-1.1-1.2-2-2.1-2.7-.8-.8-1.7-1.5-2.8-1.8-1.5-.6-3-.7-4.6-.4-1.6.3-3,.9-4.2,2l-.8.9-.8.9h0c-.4.8-.9,1.6-1.2,2.3-.3.8-.5,1.6-.6,2.4v.2c0,.8,0,2.3,0,2.4v.3s0,0,0,0c.2.7.4,1.4.7,2.1h0s0,.2,0,.2h0c.9,1.6,1.3,2.4,2.7,3.4,0,0,1.2.8,1.9,1h0c.7.2,1.3.3,2,.5h0c1.4.1,2.8,0,4.1-.7,1.1-.5,2-1.3,2.7-2.2l.3-.2c1.2-1,2.1-2.2,2.6-3.7.2-.7.3-1.5.5-2.2.2-1.6-.1-3.2-.8-4.7Z"></path>
  <path class="st5" d="M321.7,1089.1c-.6-1.3-1.9-2.2-3.3-2.4h-.4s-.2,0-.2,0h-1.2s-1.3.6-1.3.6l-1,.9-.4.8c-.2.6-.3,1.3-.2,1.9l.2.5.2.5h0s0,.1,0,.1v.2c0,0,.3.4.3.4.6,1.3,1.9,2.2,3.3,2.4.8,0,1.5,0,2.2-.4.7-.3,1.2-.8,1.6-1.4.4-.6.7-1.3.7-2,0-.8,0-1.5-.4-2.2Z"></path>
  <path class="st5" d="M342.9,1030.4l-.5-.6c-.4-.5-.9-.8-1.5-1-.6-.2-1.2-.3-1.9-.2-.6.1-1.2.4-1.7.8-.5.4-.8.9-1,1.5l-.3.7c-.5,1.3-.2,2.9.7,4,.5.5,1,.9,1.7,1.2.7.3,1.4.3,2.1.2.7-.1,1.3-.4,1.9-.9.5-.5.9-1,1.2-1.7.5-1.3.2-2.9-.7-4Z"></path>
  <path class="st5" d="M367.2,1031.2c-3,.5-2.2,5.1.8,4.6,3-.5,2.2-5.1-.8-4.6Z"></path>
  <path class="st5" d="M371.3,1098.5c-4.2.7-3.1,7.3,1.1,6.6,4.2-.7,3.1-7.3-1.1-6.6Z"></path>
  <path class="st5" d="M417.2,1050.6c-2.5.4-1.8,4.3.7,3.8,2.5-.4,1.8-4.3-.7-3.8Z"></path>
  <path class="st5" d="M480.6,929.4l-.4-.6-.9-.7-1-.3h-.4s-.4,0-.4,0h-.9c-.6,0-1.1,0-1.7.3l-1.2,1-.4.7c-.2.5-.2,1.1-.2,1.6l.5,1.2.8.9c.5.3,1,.5,1.5.6.6,0,1.1,0,1.7-.3l.8-.3h.4c0-.1.4-.3.4-.3l.6-.4.7-.9.3-.7v-1.1c0,0-.2-.7-.2-.7Z"></path>
  <path class="st5" d="M501.2,970.2l-.5-1.1-.5-.4h0s-1.2-.5-1.2-.5h-.7s-.6,0-.6,0h-1.1c-.6.2-1.2.5-1.7.9-.5.4-.8.9-1,1.5-.4,1.2-.2,2.6.6,3.5.8,1,2.1,1.4,3.3,1.2.6-.1,1.2-.4,1.7-.8.5-.4.8-.9,1-1.5l.4-1,.2-.5v-1.5c.1,0,0,0,0,0Z"></path>
  <path class="st5" d="M551.2,921l-.7-1c-.4-.5-.9-.9-1.4-1.1-.5-.3-1.1-.5-1.7-.6l-.9-.2c-.9,0-1.8,0-2.6.5-.8.4-1.5.9-2,1.7l-.6,1.1c-.3.9-.4,1.7-.2,2.6,0,.7.3,1.3.8,1.8.3.6.7,1.1,1.3,1.4.7.5,1.5.8,2.4.9.9,0,1.8,0,2.6-.5l.8-.5,1-.7c.5-.4.9-.9,1.1-1.4l.4-1.1c.2-.6.2-1.2,0-1.9l-.4-1.2Z"></path>
  <path class="st5" d="M559.5,933.1c-3.3.6-2.4,5.6.9,5.1,3.3-.6,2.4-5.6-.9-5.1Z"></path>
  <path class="st5" d="M519.6,941.7c-.3-.5-.6-1-1.1-1.3l-.8-.4c-.6-.2-1.1-.3-1.7-.2l-1.2.5-.9.9-.5,1.2v1.3c0,0,.2.9.2.9.3.5.6,1,1.1,1.3l.8.4c.6.2,1.1.3,1.7.2l1.2-.5.9-.9.5-1.2v-1.3c0,0-.2-.9-.2-.9Z"></path>
  <path class="st5" d="M510.5,907.6c-4.6.8-3.4,7.9,1.2,7.1,4.6-.8,3.4-7.9-1.2-7.1Z"></path>
  <path class="st6" d="M1278.8,852.2c-16.9,6.7-37,18.2-35.2,36.2,2.3,22.4,33.6,25.6,55.6,21.2,290.5-57.2,512.1-302.7,797.7-380.7,37.3-10.2,76.5-17.9,108-40.3-23.1,0-47.4-.3-67.6-11.5-20.2-11.2-34.2-37.3-24.1-58.1,4-8.2,11.2-14.6,15.5-22.7,23-43.2-43.2-14.4-56.1-8.1-21.1,10.3-40.5,21-59.2,35.2-52.3,39.6-103.3,80.5-157.3,118-116.1,80.8-238.3,153-365,215.9-69.5,34.4-143.3,60.2-212.4,94.8Z"></path>
  <path class="st6" d="M2280.2,340.7c17.4,5.1,33.6,18.5,36.4,36.5,2.2,14.7-4.6,29-11.3,42.3-4.3,8.5-11.1,18.5-20.6,17-10.6-1.6-13.4-15.8-11.1-26.3,2.3-10.5,6.9-21.8,2-31.3-5.7-11-20.3-12.6-32.2-15.9-11.4-3.1-18.7-10.4-19.9-21.6,15.9-6.8,39.9-5.6,56.7-.7Z"></path>
  <path class="st3" d="M227.6,1138.4c-.2-.7-.3-1.4-.3-2.1-1.7-17.4,23.9-22.3,34.7-36.6l.9-.4c1.8-2.5,3.6-5.1,5.2-7.8,2.4-3.3,4.9-5.4,7.4-8.4,3.7-4.4,7.1-9.1,9.4-14.3,1.7-3.8,2.8-6.6,5.4-9.9,6-7.6,13.9-13.9,19.3-22,4.2-6.3,4.5-13.9,10.2-18.9,5.3-4.7,9.1-6.3,13.5-13,1-1.5,1.9-3.1,2.9-4.8-76.1,45.6-117.7,94.6-108.7,137.8v.6Z"></path>
</svg>