<?xml version="1.0" encoding="UTF-8"?>
<svg id="Layer_1" xmlns="http://www.w3.org/2000/svg" version="1.1" viewBox="0 0 2123.3 2475.7">
  <!-- Generator: Adobe Illustrator 29.3.1, SVG Export Plug-In . SVG Version: 2.1.0 Build 151)  -->
  <defs>
    <style>.st0 {
  fill: #efb167;
}

.st1 {
  fill: #fff;
}

.st2 {
  fill: #db8d4d;
}

.st3 {
  opacity: .4;
}

.st4 {
  opacity: .6;
}
</style>
  </defs>
  <path class="st0" d="M382.2,928.8c43.2-63.8,78.5-132.7,101.6-206.2,64.8-206.3,258.1-642.4,727.3-603.7,612.7,50.5,967.6,504.9,735.1,1485.3-232.6,980.4-1009.6,844.6-1459.4,594.4C57.7,1959.9,35.9,1440.7,382.2,928.8Z"></path>
  <g class="st3">
    <path class="st1" d="M577.2,912.9c16.4-29.9,31.8-60.4,45.1-92.2,19.2-45.9,50.5-121.1,92.2-221.7,73-176.3,157.3-262.8,257.1-180.7,117.2,96.5-146.1,699-301.5,762.8-146.8,60.3-212.8-49.8-92.9-268.2Z"></path>
  </g>
  <g>
    <path class="st2" d="M500.5,1674.1c-12-20.8,13.7-42.8,32.9-28.4,20.7,15.5,46.6,29.5,78.6,38.8,45.7,13.3,89,19.5,125,22,24.1,1.7,29,35.3,6.1,43-75.3,25.5-179.7,33.9-242.6-75.5Z"></path>
    <path class="st2" d="M1568.3,1084.3c-12-20.8,13.7-42.8,32.9-28.4,20.7,15.5,46.6,29.5,78.6,38.8,45.7,13.3,89,19.5,125,22,24.1,1.7,29,35.3,6.1,43-75.3,25.5-179.7,33.9-242.6-75.5Z"></path>
    <path class="st2" d="M1646.6,546.8c7.2,22.9-22.5,38.9-38.2,20.7-16.9-19.6-39.2-38.8-68.4-54.7-41.8-22.8-82.8-38.1-117.4-48.3-23.2-6.8-20.7-40.7,3.3-43.4,79.1-8.8,182.8,5.4,220.8,125.7Z"></path>
    <path class="st2" d="M883.9,1297.6c-6.2-13,7.8-27.2,18-18.3,10.9,9.6,24.7,18.1,41.7,23.6,24.4,7.9,47.6,11.3,66.9,12.5,12.9.8,15.2,22,2.8,27.1-40.7,17-96.8,23.4-129.4-44.9Z"></path>
    <path class="st2" d="M1280,1597.3c-6.2-13,7.8-27.2,18-18.3,10.9,9.6,24.7,18.1,41.7,23.6,24.4,7.9,47.6,11.3,66.9,12.5,12.9.8,15.2,22,2.8,27.1-40.7,17-96.8,23.4-129.4-44.9Z"></path>
    <path class="st2" d="M1269.1,530.8c6.2,13-7.8,27.2-18,18.3-10.9-9.6-24.7-18.1-41.7-23.6-24.4-7.9-47.6-11.3-66.9-12.5-12.9-.8-15.2-22-2.8-27.1,40.7-17,96.8-23.4,129.4,44.9Z"></path>
    <path class="st2" d="M1331.1,978.1c6.2,13-7.8,27.2-18,18.3-10.9-9.6-24.7-18.1-41.7-23.6-24.4-7.9-47.6-11.3-66.9-12.5-12.9-.8-15.2-22-2.8-27.1,40.7-17,96.8-23.4,129.4,44.9Z"></path>
    <path class="st2" d="M1890.5,1515.8c-232.6,980.5-1009.6,844.6-1459.4,594.5-89.6-49.9-161.3-111.9-215.8-183.5-74-142.7-91.5-313.6-54.4-497.1,38.5,146.4,131.7,269.7,282.5,353.5,394.9,219.6,1077,338.8,1281.1-521.7,110.4-465.6,69.8-795.8-75.9-1008.1,77.5,48.5,144.5,110.1,199.3,185.5,129.4,242.1,156.7,596.3,42.6,1076.8Z"></path>
  </g>
  <g class="st4">
    <path class="st1" d="M437.1,1009.3c43.2-63.8,78.5-132.7,101.6-206.2,64.8-206.3,258.1-642.4,727.3-603.7,263.4,21.7,478.9,118.3,620.8,299-137.7-232.8-375.7-354.7-675.7-379.5-469.3-38.7-662.5,397.4-727.3,603.7-23.1,73.5-58.4,142.4-101.6,206.2-278.7,412-318.7,828.6-100.1,1100-154-269.4-97.4-646.3,155-1019.5Z"></path>
  </g>
  <path class="st1" d="M1125.8,2417.4c-59.1,0-120.3-5.3-183.5-15.9-198.8-33.4-367.4-111-473.8-170.2-179.9-100.1-298.8-252.7-343.8-441.3-62.3-261,18.1-574.3,226.4-882.2,43.5-64.4,76.1-130.5,96.8-196.5C511.8,508.2,714.1,40.2,1214.2,81.5c143.6,11.8,272.1,45.3,382,99.5,114.9,56.7,210.1,136.2,282.9,236.6,93.8,129.3,150.9,293.4,169.5,487.8,19.5,202.8-2.7,440.8-66,707.4-89.2,376.2-264.4,624.2-520.7,737.2-101.9,44.9-214.4,67.4-336.1,67.4ZM413.3,949.8c-196.3,290.2-272.9,582.4-215.6,822.8,40,167.6,146.3,303.6,307.3,393.2,123.3,68.6,554.5,279.6,926.7,115.6,233.6-103,394.5-333.7,478-685.8,119.6-504.2,88.9-885.7-91.3-1133.9-130.6-180-336-282.7-610.4-305.3-446.2-36.7-630.1,391.6-688.5,577.5-22.9,72.9-58.7,145.6-106.3,216h0ZM382.2,928.8h0,0Z"></path>
</svg>